STARTFONT 2.1
COMMENT
COMMENT Converted from OpenType font "GenBasB.ttf" by "otf2bdf 3.0".
COMMENT
FONT -FreeType-Gentium Basic-Bold-R-Normal--32-320-72-72-P-159-ISO10646-1
SIZE 32 72 72
FONTBOUNDINGBOX 49 47 -16 -12
STARTPROPERTIES 19
FOUNDRY "FreeType"
FAMILY_NAME "Gentium Basic"
WEIGHT_NAME "Bold"
SLANT "R"
SETWIDTH_NAME "Normal"
ADD_STYLE_NAME ""
PIXEL_SIZE 32
POINT_SIZE 320
RESOLUTION_X 72
RESOLUTION_Y 72
SPACING "P"
AVERAGE_WIDTH 159
CHARSET_REGISTRY "ISO10646"
CHARSET_ENCODING "1"
FONT_ASCENT 27
FONT_DESCENT 9
COPYRIGHT "Copyright (c) SIL International, 2003-2008."
_OTF_FONTFILE "GenBasB.ttf"
_OTF_PSNAME "GentiumBasic-Bold"
ENDPROPERTIES
CHARS 704
STARTCHAR 0020
ENCODING 32
SWIDTH 250 0
DWIDTH 8 0
BBX 0 0 0 0
BITMAP
ENDCHAR
STARTCHAR 0021
ENCODING 33
SWIDTH 312 0
DWIDTH 10 0
BBX 5 24 2 -1
BITMAP
18
78
78
78
78
78
78
78
78
70
70
70
70
30
30
30
30
00
00
70
F8
F8
F8
70
ENDCHAR
STARTCHAR 0022
ENCODING 34
SWIDTH 468 0
DWIDTH 15 0
BBX 11 10 2 13
BITMAP
38E0
F3E0
F1E0
F1C0
71C0
71C0
71C0
71C0
70C0
60C0
ENDCHAR
STARTCHAR 0023
ENCODING 35
SWIDTH 500 0
DWIDTH 16 0
BBX 15 18 1 2
BITMAP
018C
0398
0318
0318
0338
3FFE
3FFE
0670
0E60
0C60
0C60
7FFC
FFF8
18C0
18C0
3980
3180
3180
ENDCHAR
STARTCHAR 0024
ENCODING 36
SWIDTH 500 0
DWIDTH 16 0
BBX 14 25 1 -3
BITMAP
0300
0300
0300
1FF0
3FF8
7378
E338
E310
F300
FF00
7F00
3FE0
0FF0
03F8
037C
031C
C31C
C31C
E31C
FB78
FFF0
3FE0
0300
0300
0300
ENDCHAR
STARTCHAR 0025
ENCODING 37
SWIDTH 718 0
DWIDTH 23 0
BBX 21 20 1 0
BITMAP
000060
1E00C0
7381C0
618380
E1C300
E1C600
E1CE00
E1DC00
619800
73B000
1E71E0
00E770
01C630
018E38
038E38
070E38
0E0E38
0C0630
1C0730
3803C0
ENDCHAR
STARTCHAR 0026
ENCODING 38
SWIDTH 687 0
DWIDTH 22 0
BBX 21 23 1 0
BITMAP
01F000
077800
0E3C00
0E3C00
1E3C00
1E7C00
1E7800
1FF000
1FE000
0FC000
0F8000
1F8FF8
3FC3A0
7BE180
7BF180
F1F980
F0FB00
F07F00
F07E00
F83F00
781FF0
3FF7F0
0FC3C0
ENDCHAR
STARTCHAR 0027
ENCODING 39
SWIDTH 281 0
DWIDTH 9 0
BBX 5 10 2 13
BITMAP
38
F0
F0
F0
70
70
70
70
70
60
ENDCHAR
STARTCHAR 0028
ENCODING 40
SWIDTH 343 0
DWIDTH 11 0
BBX 9 30 2 -5
BITMAP
0100
0380
0600
0E00
1C00
3C00
3800
7800
7800
7000
7000
F000
F000
F000
F000
F000
F000
F000
F000
F000
7000
7800
7800
3800
3C00
1C00
1E00
0E00
0700
0180
ENDCHAR
STARTCHAR 0029
ENCODING 41
SWIDTH 343 0
DWIDTH 11 0
BBX 9 30 0 -5
BITMAP
4000
F000
3800
3C00
1C00
1E00
0E00
0F00
0F00
0F00
0780
0780
0780
0780
0780
0780
0780
0780
0780
0700
0F00
0F00
0F00
0E00
1E00
1C00
3800
3000
6000
C000
ENDCHAR
STARTCHAR 002A
ENCODING 42
SWIDTH 437 0
DWIDTH 14 0
BBX 12 13 1 11
BITMAP
0300
0F00
4640
6670
F6F0
3FC0
0F00
3FE0
FEF0
E670
4620
0700
0E00
ENDCHAR
STARTCHAR 002B
ENCODING 43
SWIDTH 406 0
DWIDTH 13 0
BBX 12 12 1 3
BITMAP
0600
0600
0600
0600
0600
7FF0
FFE0
0600
0600
0600
0600
0600
ENDCHAR
STARTCHAR 002C
ENCODING 44
SWIDTH 281 0
DWIDTH 9 0
BBX 6 10 2 -6
BITMAP
38
FC
FC
3C
3C
38
38
70
60
C0
ENDCHAR
STARTCHAR 002D
ENCODING 45
SWIDTH 343 0
DWIDTH 11 0
BBX 10 2 1 7
BITMAP
FFC0
FF80
ENDCHAR
STARTCHAR 002E
ENCODING 46
SWIDTH 281 0
DWIDTH 9 0
BBX 5 5 2 -1
BITMAP
70
F8
F8
F8
70
ENDCHAR
STARTCHAR 002F
ENCODING 47
SWIDTH 468 0
DWIDTH 15 0
BBX 14 30 1 -5
BITMAP
001C
0038
0038
0078
0070
0070
00E0
00E0
00E0
01C0
01C0
0380
0380
0380
0700
0700
0700
0E00
0E00
1C00
1C00
1C00
3800
3800
7800
7000
7000
E000
E000
C000
ENDCHAR
STARTCHAR 0030
ENCODING 48
SWIDTH 500 0
DWIDTH 16 0
BBX 14 18 1 0
BITMAP
07C0
18E0
3870
7078
7078
F03C
F03C
F03C
F03C
F03C
F03C
F03C
F038
7038
7838
3870
1C60
0F80
ENDCHAR
STARTCHAR 0031
ENCODING 49
SWIDTH 500 0
DWIDTH 16 0
BBX 13 19 2 0
BITMAP
0180
0F80
7F80
EF80
0780
0780
0780
0780
0780
0780
0780
0780
0780
0780
0780
0780
0780
3FE0
7FF8
ENDCHAR
STARTCHAR 0032
ENCODING 50
SWIDTH 500 0
DWIDTH 16 0
BBX 13 19 1 0
BITMAP
0FE0
38F0
7878
F078
7078
0078
00F0
00F0
01E0
01C0
0380
0700
0E00
1C08
1C08
3818
7FF8
FFF8
FFF8
ENDCHAR
STARTCHAR 0033
ENCODING 51
SWIDTH 500 0
DWIDTH 16 0
BBX 13 19 1 0
BITMAP
1F80
79E0
70F0
F0F0
40F0
00F0
01E0
07C0
0FC0
03F0
00F0
0078
0078
0078
0078
80F0
C0F0
7FE0
1F80
ENDCHAR
STARTCHAR 0034
ENCODING 52
SWIDTH 531 0
DWIDTH 17 0
BBX 14 19 1 0
BITMAP
0030
01F0
01F0
03F0
07F0
06F0
0CF0
0CF0
18F0
38F0
30F0
60F0
FFFC
FFF8
00F0
00F0
00F0
01F8
07FC
ENDCHAR
STARTCHAR 0035
ENCODING 53
SWIDTH 500 0
DWIDTH 16 0
BBX 13 19 1 0
BITMAP
3FF8
3FF0
3FE0
7000
7000
6000
6000
7F80
7FE0
61F0
00F8
0078
0078
0078
0078
0070
80F0
C1E0
7F80
ENDCHAR
STARTCHAR 0036
ENCODING 54
SWIDTH 500 0
DWIDTH 16 0
BBX 14 20 1 0
BITMAP
0070
03F0
0780
0F00
1C00
3C00
7800
7800
73E0
FFF0
FC78
F07C
F03C
F03C
F03C
703C
7838
3838
1C70
07C0
ENDCHAR
STARTCHAR 0037
ENCODING 55
SWIDTH 500 0
DWIDTH 16 0
BBX 13 19 2 0
BITMAP
FFF8
FFF8
FFF0
C030
8060
8060
00E0
00C0
01C0
0180
0380
0380
0700
0700
0E00
0E00
1E00
1C00
3800
ENDCHAR
STARTCHAR 0038
ENCODING 56
SWIDTH 500 0
DWIDTH 16 0
BBX 14 19 1 0
BITMAP
0FC0
18F0
3078
7078
7078
7878
7EF0
3FC0
1FE0
0FF0
3FF8
78FC
F87C
F03C
F03C
F038
7038
3870
1FC0
ENDCHAR
STARTCHAR 0039
ENCODING 57
SWIDTH 500 0
DWIDTH 16 0
BBX 14 20 1 -1
BITMAP
07C0
18F0
3878
7078
F03C
F03C
F03C
F03C
F83C
7C7C
3FFC
1F3C
0038
0078
0070
00F0
01E0
0780
3F00
3800
ENDCHAR
STARTCHAR 003A
ENCODING 58
SWIDTH 281 0
DWIDTH 9 0
BBX 5 16 2 -1
BITMAP
70
F8
F8
F8
70
00
00
00
00
00
00
70
F8
F8
F8
70
ENDCHAR
STARTCHAR 003B
ENCODING 59
SWIDTH 281 0
DWIDTH 9 0
BBX 6 21 2 -6
BITMAP
70
F8
F8
F8
70
00
00
00
00
00
00
38
FC
FC
3C
3C
38
38
70
60
C0
ENDCHAR
STARTCHAR 003C
ENCODING 60
SWIDTH 468 0
DWIDTH 15 0
BBX 13 10 1 4
BITMAP
0018
00F0
07F0
3F80
FC00
F800
7F00
0FE0
01F8
0030
ENDCHAR
STARTCHAR 003D
ENCODING 61
SWIDTH 468 0
DWIDTH 15 0
BBX 13 7 1 5
BITMAP
FFF8
FFF0
0000
0000
0000
FFF8
FFF0
ENDCHAR
STARTCHAR 003E
ENCODING 62
SWIDTH 468 0
DWIDTH 15 0
BBX 13 10 1 4
BITMAP
6000
FC00
3F80
07F0
00F8
01F0
0FE0
7F00
F800
C000
ENDCHAR
STARTCHAR 003F
ENCODING 63
SWIDTH 468 0
DWIDTH 15 0
BBX 12 24 1 -1
BITMAP
1FC0
79E0
F0F0
F0F0
F0F0
C0F0
00F0
01E0
01C0
03C0
0380
0700
0700
0600
0600
0600
0000
0000
0000
0E00
1F00
1F00
1F00
0E00
ENDCHAR
STARTCHAR 0040
ENCODING 64
SWIDTH 875 0
DWIDTH 28 0
BBX 26 28 1 -7
BITMAP
001FC000
00FFF800
03FFFC00
07E03E00
0F800F00
1E000780
3C1E2380
3C31E180
7861E1C0
78E1E0C0
F0E1E0C0
F1E1E0C0
F1E1E0C0
F1E1E0C0
F1E1E0C0
F1E1E180
F1E1E180
F8F3E300
78FFFE00
787DFC00
7C38F000
3E000000
3E000200
1F800600
0FE03F00
07FFF800
01FFF000
003F8000
ENDCHAR
STARTCHAR 0041
ENCODING 65
SWIDTH 625 0
DWIDTH 20 0
BBX 20 20 0 0
BITMAP
002000
00F000
00F000
01F800
01F800
01F800
03BC00
033C00
033C00
071E00
061E00
0E1F00
0FFF00
0C0700
1C0780
180780
180380
3803C0
3803C0
FE0FF0
ENDCHAR
STARTCHAR 0042
ENCODING 66
SWIDTH 593 0
DWIDTH 19 0
BBX 17 20 1 0
BITMAP
3FE000
FC7800
3C3C00
3C1E00
3C1E00
3C1E00
3C1E00
3C3C00
3C7800
3FF800
3C1E00
3C0F00
3C0F00
3C0780
3C0780
3C0780
3C0780
3C0F00
7C1E00
FFF800
ENDCHAR
STARTCHAR 0043
ENCODING 67
SWIDTH 562 0
DWIDTH 18 0
BBX 16 20 1 0
BITMAP
01FE
061F
1C0E
3804
3800
7000
7000
F000
F000
F000
F000
F000
F000
F800
7800
7C03
3F0E
1FFC
0FF8
03E0
ENDCHAR
STARTCHAR 0044
ENCODING 68
SWIDTH 625 0
DWIDTH 20 0
BBX 18 20 1 0
BITMAP
3FF000
FC3C00
3C0E00
3C0F00
3C0780
3C0780
3C03C0
3C03C0
3C03C0
3C03C0
3C03C0
3C03C0
3C03C0
3C0380
3C0780
3C0780
3C0F00
3C0E00
7C1C00
FFF000
ENDCHAR
STARTCHAR 0045
ENCODING 69
SWIDTH 531 0
DWIDTH 17 0
BBX 15 20 1 0
BITMAP
FFFC
7C0C
3C0C
3C0C
3C0C
3C00
3C00
3C00
3C00
3FF0
3C20
3C00
3C00
3C00
3C00
3C00
3C02
3C06
7C0E
FFFE
ENDCHAR
STARTCHAR 0046
ENCODING 70
SWIDTH 500 0
DWIDTH 16 0
BBX 14 20 1 0
BITMAP
FFFC
7C0C
3C0C
3C0C
3C0C
3C00
3C00
3C00
3C00
3FF0
3C20
3C00
3C00
3C00
3C00
3C00
3C00
3C00
7E00
FF00
ENDCHAR
STARTCHAR 0047
ENCODING 71
SWIDTH 593 0
DWIDTH 19 0
BBX 18 20 1 0
BITMAP
01FE00
060F00
1C0600
380400
380000
780000
700000
F00000
F00000
F00000
F07FC0
F07FC0
F00F00
F00F00
780F00
780F00
3C0F00
1E0F00
0FFE00
03F000
ENDCHAR
STARTCHAR 0048
ENCODING 72
SWIDTH 687 0
DWIDTH 22 0
BBX 20 20 1 0
BITMAP
FF0FF0
7E07E0
3C03C0
3C03C0
3C03C0
3C03C0
3C03C0
3C03C0
3C03C0
3FFFC0
3C03C0
3C03C0
3C03C0
3C03C0
3C03C0
3C03C0
3C03C0
3C03C0
7E07E0
FF0FF0
ENDCHAR
STARTCHAR 0049
ENCODING 73
SWIDTH 312 0
DWIDTH 10 0
BBX 8 20 1 0
BITMAP
FF
7E
3C
3C
3C
3C
3C
3C
3C
3C
3C
3C
3C
3C
3C
3C
3C
3C
7E
FF
ENDCHAR
STARTCHAR 004A
ENCODING 74
SWIDTH 343 0
DWIDTH 11 0
BBX 14 27 -4 -7
BITMAP
07FC
01F8
00F0
00F0
00F0
00F0
00F0
00F0
00F0
00F0
00F0
00F0
00F0
00F0
00F0
00F0
00F0
00F0
00F0
00F0
00F0
00E0
01E0
31C0
7F80
FF00
3C00
ENDCHAR
STARTCHAR 004B
ENCODING 75
SWIDTH 625 0
DWIDTH 20 0
BBX 19 20 1 0
BITMAP
FF1FC0
7E0F00
3C0E00
3C1C00
3C3800
3C7000
3CE000
3CE000
3DC000
3F8000
3FC000
3DE000
3CF000
3C7800
3C3C00
3C3E00
3C1F00
3C0F80
7E07E0
FF0380
ENDCHAR
STARTCHAR 004C
ENCODING 76
SWIDTH 500 0
DWIDTH 16 0
BBX 15 20 1 0
BITMAP
FF00
7E00
3C00
3C00
3C00
3C00
3C00
3C00
3C00
3C00
3C00
3C00
3C00
3C00
3C00
3C00
3C02
3C06
7C0E
FFFE
ENDCHAR
STARTCHAR 004D
ENCODING 77
SWIDTH 843 0
DWIDTH 27 0
BBX 25 20 1 0
BITMAP
FC001F80
3E003E00
3E003E00
3E007E00
3F007E00
3700FE00
3780DE00
3781DE00
33C19E00
33C39E00
31C39E00
31E31E00
30E71E00
30F61E00
30FE1E00
307C1E00
307C1E00
30381E00
78383F00
FC187F80
ENDCHAR
STARTCHAR 004E
ENCODING 78
SWIDTH 656 0
DWIDTH 21 0
BBX 19 20 1 0
BITMAP
F807E0
7C03C0
3C0180
3E0180
3F0180
3F8180
378180
33C180
33E180
31E180
30F180
30F980
307D80
303D80
301F80
301F80
300F80
300780
780780
FC0180
ENDCHAR
STARTCHAR 004F
ENCODING 79
SWIDTH 625 0
DWIDTH 20 0
BBX 18 20 1 0
BITMAP
03F000
0C1C00
1C0E00
380700
380780
700780
7003C0
F003C0
F003C0
F003C0
F003C0
F003C0
F003C0
F80380
780780
780700
3C0F00
1E1E00
0FF800
03E000
ENDCHAR
STARTCHAR 0050
ENCODING 80
SWIDTH 562 0
DWIDTH 18 0
BBX 16 20 1 0
BITMAP
3FF0
FC3C
3C1E
3C0F
3C0F
3C0F
3C0F
3C0F
3C0E
3C1E
3E3C
3DF0
3C00
3C00
3C00
3C00
3C00
3C00
7E00
FF80
ENDCHAR
STARTCHAR 0051
ENCODING 81
SWIDTH 625 0
DWIDTH 20 0
BBX 21 25 1 -5
BITMAP
03F000
0E1C00
1C0E00
380F00
380780
700780
700380
F003C0
F003C0
F003C0
F003C0
F003C0
F003C0
F00380
780380
780780
3C0700
1C0E00
0E1C00
03F800
003C00
000F08
0007F8
0003F0
0000E0
ENDCHAR
STARTCHAR 0052
ENCODING 82
SWIDTH 593 0
DWIDTH 19 0
BBX 18 20 1 0
BITMAP
3FE000
FC7800
3C3C00
3C1E00
3C1E00
3C1E00
3C1E00
3C3C00
3CFC00
3FF000
3FE000
3CF000
3C7000
3C7800
3C3C00
3C3E00
3C1E00
3C0F00
7E0FC0
FF0780
ENDCHAR
STARTCHAR 0053
ENCODING 83
SWIDTH 500 0
DWIDTH 16 0
BBX 13 20 2 0
BITMAP
0FE0
30E0
6060
E000
E000
F000
FC00
7F00
7FC0
1FE0
0FF0
03F8
00F8
0078
8078
C078
C070
E0E0
FFC0
3F00
ENDCHAR
STARTCHAR 0054
ENCODING 84
SWIDTH 593 0
DWIDTH 19 0
BBX 18 20 0 0
BITMAP
FFFFC0
C1E1C0
C1E0C0
C1E0C0
81E080
01E000
01E000
01E000
01E000
01E000
01E000
01E000
01E000
01E000
01E000
01E000
01E000
01E000
03F000
07F800
ENDCHAR
STARTCHAR 0055
ENCODING 85
SWIDTH 656 0
DWIDTH 21 0
BBX 19 20 1 0
BITMAP
FF07E0
7E03C0
3C0180
3C0180
3C0180
3C0180
3C0180
3C0180
3C0180
3C0180
3C0180
3C0180
3C0180
3C0180
3C0180
3C0300
1E0300
0F0600
07FC00
03F000
ENDCHAR
STARTCHAR 0056
ENCODING 86
SWIDTH 656 0
DWIDTH 21 0
BBX 21 20 0 0
BITMAP
FF03F8
3C00E0
3C00C0
1E00C0
1E0180
0F0180
0F0380
0F0300
078300
078700
03C600
03C600
03CE00
01EC00
01EC00
00F800
00F800
00F800
007000
006000
ENDCHAR
STARTCHAR 0057
ENCODING 87
SWIDTH 843 0
DWIDTH 27 0
BBX 27 20 0 0
BITMAP
FF060FE0
3C0603C0
1C0F0380
1C0F0300
1C0F0300
1E1F8300
1E1B8300
0E1BC700
0E3BC600
0F31C600
0F31E600
0770EE00
0760FC00
07E0FC00
07C07C00
03C07C00
03C03C00
03803800
03803800
03001000
ENDCHAR
STARTCHAR 0058
ENCODING 88
SWIDTH 625 0
DWIDTH 20 0
BBX 20 20 0 0
BITMAP
7F8FE0
3E0380
1E0700
0F0600
0F8E00
078C00
03DC00
03F800
01F000
00F000
00F800
01F800
03BC00
03BE00
071E00
060F00
0E0F80
1C0780
3C07C0
FE1FF0
ENDCHAR
STARTCHAR 0059
ENCODING 89
SWIDTH 625 0
DWIDTH 20 0
BBX 19 20 0 0
BITMAP
FC07E0
3C03C0
1E0380
0F0300
0F0700
078600
038E00
03CC00
01DC00
01F800
00F800
00F000
00F000
00F000
00F000
00F000
00F000
00F000
01F800
03FC00
ENDCHAR
STARTCHAR 005A
ENCODING 90
SWIDTH 531 0
DWIDTH 17 0
BBX 15 20 1 0
BITMAP
7FFE
603E
607C
407C
40F8
00F0
01F0
01E0
03E0
07C0
07C0
0F80
0F00
1F00
3E00
3E02
7C02
7C06
F806
FFFE
ENDCHAR
STARTCHAR 005B
ENCODING 91
SWIDTH 343 0
DWIDTH 11 0
BBX 9 30 2 -5
BITMAP
FF80
FF80
F000
F000
F000
F000
F000
F000
F000
F000
F000
F000
F000
F000
F000
F000
F000
F000
F000
F000
F000
F000
F000
F000
F000
F000
F000
F000
FF80
FF80
ENDCHAR
STARTCHAR 005C
ENCODING 92
SWIDTH 468 0
DWIDTH 15 0
BBX 13 30 1 -5
BITMAP
C000
E000
E000
7000
7000
3000
3800
3800
1C00
1C00
1C00
0E00
0E00
0600
0700
0700
0380
0380
0380
01C0
01C0
00C0
00E0
00E0
0070
0070
0070
0038
0038
0018
ENDCHAR
STARTCHAR 005D
ENCODING 93
SWIDTH 343 0
DWIDTH 11 0
BBX 9 30 0 -5
BITMAP
FF80
FF80
0780
0780
0780
0780
0780
0780
0780
0780
0780
0780
0780
0780
0780
0780
0780
0780
0780
0780
0780
0780
0780
0780
0780
0780
0780
0780
FF80
FF80
ENDCHAR
STARTCHAR 005E
ENCODING 94
SWIDTH 500 0
DWIDTH 16 0
BBX 12 15 2 9
BITMAP
0200
0600
0F00
0F00
1B00
1B80
1180
31C0
31C0
60C0
60E0
6060
C070
C030
8020
ENDCHAR
STARTCHAR 005F
ENCODING 95
SWIDTH 468 0
DWIDTH 15 0
BBX 14 2 1 -4
BITMAP
FFFC
FFF8
ENDCHAR
STARTCHAR 0060
ENCODING 96
SWIDTH 312 0
DWIDTH 10 0
BBX 7 8 0 16
BITMAP
70
F0
78
38
3C
1C
0E
06
ENDCHAR
STARTCHAR 0061
ENCODING 97
SWIDTH 500 0
DWIDTH 16 0
BBX 14 15 1 0
BITMAP
1FC0
70E0
F0F0
C0F0
00F0
03F0
1FF0
3FF0
78F0
F0F0
F0F0
F0F0
FBFC
7EF8
3860
ENDCHAR
STARTCHAR 0062
ENCODING 98
SWIDTH 531 0
DWIDTH 17 0
BBX 16 24 0 0
BITMAP
0C00
FC00
7C00
3C00
3C00
3C00
3C00
3C00
3C00
3C78
3DFC
3FFE
3F1E
3C0F
3C07
3C07
3C07
3C07
3C06
3C0E
3E1C
3FF8
1FF0
07C0
ENDCHAR
STARTCHAR 0063
ENCODING 99
SWIDTH 468 0
DWIDTH 15 0
BBX 13 15 1 0
BITMAP
03F8
0C78
3830
7010
7000
F000
F000
F000
F000
F800
F808
7C38
3FF0
1FE0
0F80
ENDCHAR
STARTCHAR 0064
ENCODING 100
SWIDTH 562 0
DWIDTH 18 0
BBX 16 24 1 0
BITMAP
001C
00FC
003C
003C
003C
003C
003C
003C
003C
07FC
187C
383C
703C
703C
F03C
F03C
F03C
F03C
F83C
F83C
7C7C
7FFF
3FBE
1E18
ENDCHAR
STARTCHAR 0065
ENCODING 101
SWIDTH 468 0
DWIDTH 15 0
BBX 13 15 1 0
BITMAP
07C0
18E0
3870
7078
7078
F078
FFF0
F000
F000
F000
F808
7C38
7FF0
3FE0
0F80
ENDCHAR
STARTCHAR 0066
ENCODING 102
SWIDTH 343 0
DWIDTH 11 0
BBX 13 24 1 0
BITMAP
01F0
07F8
0E70
1C20
1C00
3C00
3C00
3C00
3C00
FFC0
3C80
3C00
3C00
3C00
3C00
3C00
3C00
3C00
3C00
3C00
3C00
3C00
7F00
FF80
ENDCHAR
STARTCHAR 0067
ENCODING 103
SWIDTH 531 0
DWIDTH 17 0
BBX 16 23 0 -8
BITMAP
07E3
1C7F
387E
783C
783C
783C
783C
3C38
3C70
0FC0
0E00
1C00
1FC0
3FFC
0FFE
1FFF
787F
F00F
F00E
F00E
781C
3FF8
0FC0
ENDCHAR
STARTCHAR 0068
ENCODING 104
SWIDTH 562 0
DWIDTH 18 0
BBX 17 24 1 0
BITMAP
0C0000
FC0000
7C0000
3C0000
3C0000
3C0000
3C0000
3C0000
3C0000
3C7800
3DFC00
3FFE00
3F1E00
3E1E00
3C1E00
3C1E00
3C1E00
3C1E00
3C1E00
3C1E00
3C1E00
3C1E00
7E3F00
FF7F80
ENDCHAR
STARTCHAR 0069
ENCODING 105
SWIDTH 312 0
DWIDTH 10 0
BBX 8 21 1 0
BITMAP
1C
3E
3E
1C
00
00
1C
FC
7C
3C
3C
3C
3C
3C
3C
3C
3C
3C
3C
7E
FF
ENDCHAR
STARTCHAR 006A
ENCODING 106
SWIDTH 281 0
DWIDTH 9 0
BBX 12 29 -5 -8
BITMAP
00E0
01F0
01F0
00E0
0000
0000
00E0
07E0
03E0
01E0
01E0
01E0
01E0
01E0
01E0
01E0
01E0
01E0
01E0
01E0
01E0
01E0
01E0
01C0
01C0
6380
FF00
FE00
7800
ENDCHAR
STARTCHAR 006B
ENCODING 107
SWIDTH 562 0
DWIDTH 18 0
BBX 17 24 1 0
BITMAP
0C0000
FC0000
7C0000
3C0000
3C0000
3C0000
3C0000
3C0000
3C0000
3C3F80
3C1E00
3C3C00
3C7000
3CE000
3DC000
3FC000
3FE000
3DE000
3CF000
3C7800
3C3C00
3C3E00
7E1F80
FF0F00
ENDCHAR
STARTCHAR 006C
ENCODING 108
SWIDTH 312 0
DWIDTH 10 0
BBX 8 24 1 0
BITMAP
0C
FC
7C
3C
3C
3C
3C
3C
3C
3C
3C
3C
3C
3C
3C
3C
3C
3C
3C
3C
3C
3C
7E
FF
ENDCHAR
STARTCHAR 006D
ENCODING 109
SWIDTH 875 0
DWIDTH 28 0
BBX 26 15 1 0
BITMAP
1C783C00
FCFCFE00
7FFFFF00
3F1F8F00
3C1E0F00
3C1E0F00
3C1E0F00
3C1E0F00
3C1E0F00
3C1E0F00
3C1E0F00
3C1E0F00
3C1E0F00
7E3F1F80
FF7FBFC0
ENDCHAR
STARTCHAR 006E
ENCODING 110
SWIDTH 562 0
DWIDTH 18 0
BBX 17 15 1 0
BITMAP
0C3C00
FCFC00
7FFE00
3F1E00
3E1E00
3C1E00
3C1E00
3C1E00
3C1E00
3C1E00
3C1E00
3C1E00
3C1E00
7E3F00
FF7F80
ENDCHAR
STARTCHAR 006F
ENCODING 111
SWIDTH 531 0
DWIDTH 17 0
BBX 15 15 1 0
BITMAP
07E0
1870
3838
703C
701E
F01E
F01E
F01E
F01E
F01E
F01C
781C
3838
1C30
0FC0
ENDCHAR
STARTCHAR 0070
ENCODING 112
SWIDTH 562 0
DWIDTH 18 0
BBX 16 23 1 -8
BITMAP
0C78
FCFC
7FFE
3E3E
3C1F
3C0F
3C0F
3C0F
3C0F
3C0F
3C0E
3E1E
3FFC
3DF8
3CF0
3C00
3C00
3C00
3C00
3C00
3C00
7F00
FF80
ENDCHAR
STARTCHAR 0071
ENCODING 113
SWIDTH 562 0
DWIDTH 18 0
BBX 17 23 1 -8
BITMAP
03C200
0C3600
381E00
701E00
701E00
F01E00
F01E00
F01E00
F01E00
F81E00
F81E00
7C7E00
7FFE00
3FDE00
0F1E00
001E00
001E00
001E00
001E00
001E00
001E00
003F00
00FF80
ENDCHAR
STARTCHAR 0072
ENCODING 114
SWIDTH 437 0
DWIDTH 14 0
BBX 13 15 1 0
BITMAP
18F0
F9F8
7BF8
3E30
3C30
3C30
3C00
3C00
3C00
3C00
3C00
3C00
3C00
7E00
FF00
ENDCHAR
STARTCHAR 0073
ENCODING 115
SWIDTH 406 0
DWIDTH 13 0
BBX 11 15 1 0
BITMAP
1FC0
61C0
E180
E080
F800
FE00
7F80
7FC0
1FE0
07E0
81E0
C0E0
C0C0
E0C0
FF00
ENDCHAR
STARTCHAR 0074
ENCODING 116
SWIDTH 375 0
DWIDTH 12 0
BBX 11 20 0 0
BITMAP
0400
1C00
3C00
3C00
3C00
FFE0
3C40
3C00
3C00
3C00
3C00
3C00
3C00
3C00
3C00
3C00
3C60
3FE0
1F80
0E00
ENDCHAR
STARTCHAR 0075
ENCODING 117
SWIDTH 562 0
DWIDTH 18 0
BBX 17 15 0 0
BITMAP
1C0E00
FC7E00
3C1E00
3C1E00
3C1E00
3C1E00
3C1E00
3C1E00
3C1E00
3C1E00
3C1E00
3C7E00
3FFF80
1FDF00
0F0C00
ENDCHAR
STARTCHAR 0076
ENCODING 118
SWIDTH 500 0
DWIDTH 16 0
BBX 16 15 0 0
BITMAP
FE1F
7C0E
3C0C
3C0C
1E1C
1E18
0F18
0F30
0730
07F0
07E0
03E0
03C0
01C0
0180
ENDCHAR
STARTCHAR 0077
ENCODING 119
SWIDTH 718 0
DWIDTH 23 0
BBX 23 15 0 0
BITMAP
FE183E
7C181C
3C1C18
3C3C18
1C3E30
1E7E30
1E6F30
0E6F70
0FC760
0FC7E0
07C3E0
0783C0
0783C0
0301C0
020180
ENDCHAR
STARTCHAR 0078
ENCODING 120
SWIDTH 531 0
DWIDTH 17 0
BBX 16 15 0 0
BITMAP
FF3F
3E1C
1E18
0F30
0FF0
07E0
03C0
03E0
03E0
06F0
0EF8
1C78
183C
783E
FC7F
ENDCHAR
STARTCHAR 0079
ENCODING 121
SWIDTH 500 0
DWIDTH 16 0
BBX 17 23 -1 -8
BITMAP
7F0F80
3E0700
1E0600
1E0600
0F0E00
0F0C00
078C00
079800
079800
03F800
03F000
01F000
01F000
01E000
00E000
00C000
00C000
01C000
018000
278000
7F0000
FE0000
780000
ENDCHAR
STARTCHAR 007A
ENCODING 122
SWIDTH 468 0
DWIDTH 15 0
BBX 13 15 1 0
BITMAP
7FF8
60F8
41F0
41E0
03E0
07C0
0780
0F80
0F00
1F00
3E10
3C18
7C18
F818
FFF8
ENDCHAR
STARTCHAR 007B
ENCODING 123
SWIDTH 375 0
DWIDTH 12 0
BBX 9 30 2 -5
BITMAP
0100
0780
0E00
1C00
3C00
3C00
3C00
3C00
3E00
1E00
1E00
1E00
1E00
3C00
7800
FC00
3C00
1E00
1E00
1E00
1E00
3E00
3C00
3C00
3C00
3C00
1C00
1E00
0700
0180
ENDCHAR
STARTCHAR 007C
ENCODING 124
SWIDTH 218 0
DWIDTH 7 0
BBX 2 32 3 -6
BITMAP
40
C0
C0
C0
C0
C0
C0
C0
C0
C0
C0
C0
C0
C0
C0
C0
C0
C0
C0
C0
C0
C0
C0
C0
C0
C0
C0
C0
C0
C0
C0
80
ENDCHAR
STARTCHAR 007D
ENCODING 125
SWIDTH 375 0
DWIDTH 12 0
BBX 9 30 1 -5
BITMAP
4000
F000
3C00
1C00
1E00
1E00
1E00
1E00
3E00
3C00
3C00
3C00
3C00
1E00
1F80
0F00
1E00
3C00
3C00
3C00
3C00
3E00
1E00
1E00
1E00
1E00
1C00
3800
7000
C000
ENDCHAR
STARTCHAR 007E
ENCODING 126
SWIDTH 500 0
DWIDTH 16 0
BBX 14 6 1 7
BITMAP
1C08
3E0C
7F88
47F0
83F0
80E0
ENDCHAR
STARTCHAR 00A0
ENCODING 160
SWIDTH 250 0
DWIDTH 8 0
BBX 0 0 0 0
BITMAP
ENDCHAR
STARTCHAR 00A1
ENCODING 161
SWIDTH 312 0
DWIDTH 10 0
BBX 5 24 2 -9
BITMAP
70
F8
F8
F8
70
00
00
30
30
30
30
70
70
70
70
78
78
78
78
78
78
78
78
60
ENDCHAR
STARTCHAR 00A2
ENCODING 162
SWIDTH 500 0
DWIDTH 16 0
BBX 13 20 2 -1
BITMAP
0300
0300
0300
0FF8
1FF8
3B38
7310
E300
E300
E300
E300
E300
E300
7318
7B30
3FE0
1FC0
0300
0300
0300
ENDCHAR
STARTCHAR 00A3
ENCODING 163
SWIDTH 500 0
DWIDTH 16 0
BBX 14 19 1 0
BITMAP
01FC
063C
0E1C
1C0C
1C08
3C00
3C00
3C00
3C00
FFE0
3C00
3C00
3C00
3C04
3804
380C
7FFC
FFFC
8030
ENDCHAR
STARTCHAR 00A4
ENCODING 164
SWIDTH 500 0
DWIDTH 16 0
BBX 12 13 2 3
BITMAP
C030
EF70
70E0
30C0
6060
6060
6060
6060
70E0
39C0
6F60
C030
8010
ENDCHAR
STARTCHAR 00A5
ENCODING 165
SWIDTH 500 0
DWIDTH 16 0
BBX 18 19 -1 0
BITMAP
F81FC0
FC0F80
3E0600
1E0E00
1F0C00
0F9C00
079800
07F800
03F000
03F000
03F000
01E000
3FFF00
01E000
01E000
01E000
01E000
03F000
07F800
ENDCHAR
STARTCHAR 00A6
ENCODING 166
SWIDTH 218 0
DWIDTH 7 0
BBX 2 32 3 -6
BITMAP
40
C0
C0
C0
C0
C0
C0
C0
C0
C0
C0
C0
C0
C0
80
00
00
40
C0
C0
C0
C0
C0
C0
C0
C0
C0
C0
C0
C0
C0
80
ENDCHAR
STARTCHAR 00A7
ENCODING 167
SWIDTH 500 0
DWIDTH 16 0
BBX 12 22 2 0
BITMAP
0FC0
31E0
70E0
7040
7C00
7E00
3F80
7FC0
63E0
E1F0
E0F0
F070
FC70
7F70
3FE0
1FC0
07E0
41E0
40E0
E0E0
F0C0
7F00
ENDCHAR
STARTCHAR 00A8
ENCODING 168
SWIDTH 406 0
DWIDTH 13 0
BBX 11 5 1 17
BITMAP
70E0
F1E0
F1E0
F1E0
E1C0
ENDCHAR
STARTCHAR 00A9
ENCODING 169
SWIDTH 718 0
DWIDTH 23 0
BBX 21 21 1 0
BITMAP
01FC00
070700
0C0180
1800C0
307E60
60C730
618630
C30218
C70018
C70018
C70018
C70018
C70018
C78018
63C730
61FC30
30F860
100040
080180
060300
01FC00
ENDCHAR
STARTCHAR 00AA
ENCODING 170
SWIDTH 281 0
DWIDTH 9 0
BBX 7 11 1 9
BITMAP
3C
CC
8C
3C
6C
CC
CE
FC
00
00
FE
ENDCHAR
STARTCHAR 00AB
ENCODING 171
SWIDTH 500 0
DWIDTH 16 0
BBX 14 15 1 0
BITMAP
0208
061C
0C38
1C70
3870
78E0
F1E0
F3C0
F1E0
78E0
3870
1C70
0C38
0618
020C
ENDCHAR
STARTCHAR 00AC
ENCODING 172
SWIDTH 500 0
DWIDTH 16 0
BBX 13 7 2 3
BITMAP
FFF8
FFF8
0018
0018
0018
0018
0010
ENDCHAR
STARTCHAR 00AD
ENCODING 173
SWIDTH 343 0
DWIDTH 11 0
BBX 10 2 1 7
BITMAP
FFC0
FF80
ENDCHAR
STARTCHAR 00AE
ENCODING 174
SWIDTH 343 0
DWIDTH 11 0
BBX 12 11 0 11
BITMAP
1F80
30C0
7E60
DB30
DB30
DE30
DB30
D930
64E0
30C0
1F80
ENDCHAR
STARTCHAR 00AF
ENCODING 175
SWIDTH 500 0
DWIDTH 16 0
BBX 14 3 1 18
BITMAP
7FF8
7FFC
FFF8
ENDCHAR
STARTCHAR 00B0
ENCODING 176
SWIDTH 343 0
DWIDTH 11 0
BBX 7 8 2 12
BITMAP
3C
7E
46
C6
C6
CC
FC
78
ENDCHAR
STARTCHAR 00B1
ENCODING 177
SWIDTH 406 0
DWIDTH 13 0
BBX 12 15 1 2
BITMAP
0600
0600
0600
0600
0600
7FF0
FFE0
0600
0600
0600
0600
0400
0000
FFF0
FFE0
ENDCHAR
STARTCHAR 00B2
ENCODING 178
SWIDTH 343 0
DWIDTH 11 0
BBX 8 11 2 10
BITMAP
3E
73
E3
03
06
06
0C
18
31
61
FF
ENDCHAR
STARTCHAR 00B3
ENCODING 179
SWIDTH 343 0
DWIDTH 11 0
BBX 9 11 1 10
BITMAP
3E00
E700
E700
0700
1C00
3F00
0780
0380
0380
C700
7E00
ENDCHAR
STARTCHAR 00B4
ENCODING 180
SWIDTH 312 0
DWIDTH 10 0
BBX 8 8 3 16
BITMAP
1C
1E
3F
3C
78
70
E0
C0
ENDCHAR
STARTCHAR 00B5
ENCODING 181
SWIDTH 593 0
DWIDTH 19 0
BBX 18 23 1 -8
BITMAP
1C0600
FC1E00
3C1E00
3C1E00
3C1E00
3C1E00
3C1E00
3C1E00
3C1E00
3C1E00
3C1E00
3E3E00
3FFF80
3FDFC0
338E00
300000
300000
380000
380000
380000
3C0000
3E0000
300000
ENDCHAR
STARTCHAR 00B6
ENCODING 182
SWIDTH 593 0
DWIDTH 19 0
BBX 17 24 1 -4
BITMAP
0FFF80
3C7F00
786600
706600
F06600
F06600
F06600
F06600
786600
786600
3C6600
0FE600
006600
006600
006600
006600
006600
006600
006600
006600
006600
006600
00FF00
01FF80
ENDCHAR
STARTCHAR 00B7
ENCODING 183
SWIDTH 218 0
DWIDTH 7 0
BBX 5 5 1 8
BITMAP
70
F8
F8
F8
70
ENDCHAR
STARTCHAR 00B8
ENCODING 184
SWIDTH 218 0
DWIDTH 7 0
BBX 7 7 0 -7
BITMAP
18
30
3C
3E
1E
3C
F0
ENDCHAR
STARTCHAR 00B9
ENCODING 185
SWIDTH 343 0
DWIDTH 11 0
BBX 8 11 2 10
BITMAP
08
F8
18
18
18
18
18
18
18
18
FF
ENDCHAR
STARTCHAR 00BA
ENCODING 186
SWIDTH 281 0
DWIDTH 9 0
BBX 7 11 1 9
BITMAP
38
4C
C6
C6
C6
C6
C6
6C
38
00
FE
ENDCHAR
STARTCHAR 00BB
ENCODING 187
SWIDTH 500 0
DWIDTH 16 0
BBX 13 15 2 0
BITMAP
8100
C380
6180
70C0
38E0
3C70
1E78
1E78
1E78
3C70
38E0
70C0
61C0
C180
8300
ENDCHAR
STARTCHAR 00BC
ENCODING 188
SWIDTH 625 0
DWIDTH 20 0
BBX 17 19 2 0
BITMAP
300380
F00300
300600
300C00
301C00
301800
303000
306000
78E000
84C100
018700
030F00
070B00
061300
0C3300
183F80
384300
300300
E00F80
ENDCHAR
STARTCHAR 00BD
ENCODING 189
SWIDTH 625 0
DWIDTH 20 0
BBX 17 19 2 0
BITMAP
300180
F00300
300700
300600
300C00
301800
303800
303000
786000
84C000
01CF00
019980
033180
070100
0E0300
0C0600
180C00
381880
703F80
ENDCHAR
STARTCHAR 00BE
ENCODING 190
SWIDTH 625 0
DWIDTH 20 0
BBX 18 19 1 0
BITMAP
3C01C0
660180
460300
0C0600
1C0E00
060C00
061800
863000
7C7000
006080
00C380
018780
038580
030980
061980
0C1FC0
1C2180
180180
7007C0
ENDCHAR
STARTCHAR 00BF
ENCODING 191
SWIDTH 468 0
DWIDTH 15 0
BBX 13 23 1 -8
BITMAP
0700
0F80
0F80
0F80
0700
0000
0000
0300
0300
0300
0700
0600
0E00
1C00
3C00
7800
7000
F018
F078
F078
F078
78F0
3FC0
ENDCHAR
STARTCHAR 00C0
ENCODING 192
SWIDTH 625 0
DWIDTH 20 0
BBX 20 28 0 0
BITMAP
030000
078000
07C000
0FE000
01E000
007000
001800
000000
002000
00F000
00F000
01F800
01F800
01F800
03BC00
033C00
033C00
071E00
061E00
0E1F00
0FFF00
0C0700
1C0780
180780
180380
3803C0
3803C0
FE0FF0
ENDCHAR
STARTCHAR 00C1
ENCODING 193
SWIDTH 625 0
DWIDTH 20 0
BBX 20 28 0 0
BITMAP
000800
001E00
003E00
007C00
00F000
01E000
018000
000000
002000
00F000
00F000
01F800
01F800
01F800
03BC00
033C00
033C00
071E00
061E00
0E1F00
0FFF00
0C0700
1C0780
180780
180380
3803C0
3803C0
FE0FF0
ENDCHAR
STARTCHAR 00C2
ENCODING 194
SWIDTH 625 0
DWIDTH 20 0
BBX 20 27 0 0
BITMAP
00E000
00F000
01F800
03FC00
070E00
040600
000000
002000
00F000
00F000
01F800
01F800
01F800
03BC00
033C00
033C00
071E00
061E00
0E1F00
0FFF00
0C0700
1C0780
180780
180380
3803C0
3803C0
FE0FF0
ENDCHAR
STARTCHAR 00C3
ENCODING 195
SWIDTH 625 0
DWIDTH 20 0
BBX 20 26 0 0
BITMAP
03C300
07FE00
07FE00
0C7C00
080000
000000
002000
00F000
00F000
01F800
01F800
01F800
03BC00
033C00
033C00
071E00
061E00
0E1F00
0FFF00
0C0700
1C0780
180780
180380
3803C0
3803C0
FE0FF0
ENDCHAR
STARTCHAR 00C4
ENCODING 196
SWIDTH 625 0
DWIDTH 20 0
BBX 20 26 0 0
BITMAP
060C00
0F1E00
0F1E00
0F1E00
0E1C00
000000
002000
00F000
00F000
01F800
01F800
01F800
03BC00
033C00
033C00
071E00
061E00
0E1F00
0FFF00
0C0700
1C0780
180780
180380
3803C0
3803C0
FE0FF0
ENDCHAR
STARTCHAR 00C5
ENCODING 197
SWIDTH 625 0
DWIDTH 20 0
BBX 20 27 0 0
BITMAP
007000
019800
019800
019000
00E000
000000
000000
002000
00F000
00F000
01F800
01F800
01F800
03BC00
033C00
033C00
071E00
061E00
0E1F00
0FFF00
0C0700
1C0780
180780
180380
3803C0
3803C0
FE0FF0
ENDCHAR
STARTCHAR 00C6
ENCODING 198
SWIDTH 812 0
DWIDTH 26 0
BBX 25 20 0 0
BITMAP
03FFFF00
00FF0300
00FF0300
00EF0300
00EF0300
01CF0000
01CF0000
038F0000
038F0000
03FFFE00
070F0400
060F0000
0E0F0000
0E0F0000
0C0F0000
1C0F0000
180F0080
180F0180
381F0180
FE3FFF80
ENDCHAR
STARTCHAR 00C7
ENCODING 199
SWIDTH 562 0
DWIDTH 18 0
BBX 16 27 1 -7
BITMAP
01FE
061F
1C0E
3804
3800
7000
7000
F000
F000
F000
F000
F000
F000
F800
7800
7C01
7E07
3FFE
1FFC
0FF0
00C0
01C0
01F0
00F0
00F0
01E0
0380
ENDCHAR
STARTCHAR 00C8
ENCODING 200
SWIDTH 531 0
DWIDTH 17 0
BBX 15 28 1 0
BITMAP
0800
1C00
3E00
1F00
0780
01C0
0040
0000
FFFC
7C0C
3C0C
3C0C
3C0C
3C00
3C00
3C00
3C00
3FF0
3C20
3C00
3C00
3C00
3C00
3C00
3C02
3C06
7C0E
FFFE
ENDCHAR
STARTCHAR 00C9
ENCODING 201
SWIDTH 531 0
DWIDTH 17 0
BBX 15 28 1 0
BITMAP
0060
00F0
01F8
01F0
03C0
0700
0C00
0000
FFFC
7C0C
3C0C
3C0C
3C0C
3C00
3C00
3C00
3C00
3FF0
3C20
3C00
3C00
3C00
3C00
3C00
3C02
3C06
7C0E
FFFE
ENDCHAR
STARTCHAR 00CA
ENCODING 202
SWIDTH 531 0
DWIDTH 17 0
BBX 15 27 1 0
BITMAP
0380
07C0
0FC0
1FE0
1C70
3018
0000
FFFC
7C0C
3C0C
3C0C
3C0C
3C00
3C00
3C00
3C00
3FF0
3C20
3C00
3C00
3C00
3C00
3C00
3C02
3C06
7C0E
FFFE
ENDCHAR
STARTCHAR 00CB
ENCODING 203
SWIDTH 531 0
DWIDTH 17 0
BBX 15 26 1 0
BITMAP
3870
3870
78F0
78F0
3060
0000
FFFC
7C0C
3C0C
3C0C
3C0C
3C00
3C00
3C00
3C00
3FF0
3C20
3C00
3C00
3C00
3C00
3C00
3C02
3C06
7C0E
FFFE
ENDCHAR
STARTCHAR 00CC
ENCODING 204
SWIDTH 312 0
DWIDTH 10 0
BBX 9 28 0 0
BITMAP
2000
F000
F800
7C00
1E00
0F00
0300
0000
7F80
3F00
1E00
1E00
1E00
1E00
1E00
1E00
1E00
1E00
1E00
1E00
1E00
1E00
1E00
1E00
1E00
1E00
3F00
7F80
ENDCHAR
STARTCHAR 00CD
ENCODING 205
SWIDTH 312 0
DWIDTH 10 0
BBX 10 28 1 0
BITMAP
0200
0780
0FC0
1F00
3E00
7800
6000
0000
FF00
7E00
3C00
3C00
3C00
3C00
3C00
3C00
3C00
3C00
3C00
3C00
3C00
3C00
3C00
3C00
3C00
3C00
7E00
FF00
ENDCHAR
STARTCHAR 00CE
ENCODING 206
SWIDTH 312 0
DWIDTH 10 0
BBX 10 27 0 0
BITMAP
0C00
1E00
3F00
7F80
E1C0
C040
0000
7F80
3F00
1E00
1E00
1E00
1E00
1E00
1E00
1E00
1E00
1E00
1E00
1E00
1E00
1E00
1E00
1E00
1E00
3F00
7F80
ENDCHAR
STARTCHAR 00CF
ENCODING 207
SWIDTH 312 0
DWIDTH 10 0
BBX 11 26 -1 0
BITMAP
70E0
F1E0
F1E0
F1E0
60C0
0000
3FC0
1F80
0F00
0F00
0F00
0F00
0F00
0F00
0F00
0F00
0F00
0F00
0F00
0F00
0F00
0F00
0F00
0F00
1F80
3FC0
ENDCHAR
STARTCHAR 00D0
ENCODING 208
SWIDTH 625 0
DWIDTH 20 0
BBX 18 20 1 0
BITMAP
3FF000
FC3C00
3C0E00
3C0F00
3C0780
3C0780
3C03C0
3C03C0
3C03C0
FFC3C0
3C03C0
3C03C0
3C03C0
3C0380
3C0780
3C0780
3C0F00
3C0E00
7C1C00
FFF000
ENDCHAR
STARTCHAR 00D1
ENCODING 209
SWIDTH 656 0
DWIDTH 21 0
BBX 19 26 1 0
BITMAP
03C300
07FE00
0FFC00
0C7800
180000
000000
F807E0
7C03C0
3C0180
3E0180
3F0180
3F8180
378180
33C180
33E180
31E180
30F180
30F980
307D80
303D80
301F80
301F80
300F80
300780
780780
FC0180
ENDCHAR
STARTCHAR 00D2
ENCODING 210
SWIDTH 625 0
DWIDTH 20 0
BBX 18 28 1 0
BITMAP
020000
0F0000
0F8000
07C000
03E000
00F000
003000
000000
03F000
0C1C00
1C0E00
380700
380780
700780
7003C0
F003C0
F003C0
F003C0
F003C0
F003C0
F003C0
F80380
780780
780700
3C0F00
1E1E00
0FF800
03E000
ENDCHAR
STARTCHAR 00D3
ENCODING 211
SWIDTH 625 0
DWIDTH 20 0
BBX 18 28 1 0
BITMAP
001000
003C00
007C00
00F800
01E000
03C000
030000
000000
03F000
0C1C00
1C0E00
380700
380780
700780
7003C0
F003C0
F003C0
F003C0
F003C0
F003C0
F003C0
F80380
780780
780700
3C0F00
1E1E00
0FF800
03E000
ENDCHAR
STARTCHAR 00D4
ENCODING 212
SWIDTH 625 0
DWIDTH 20 0
BBX 18 27 1 0
BITMAP
00C000
01E000
03F000
07F800
0E1C00
080C00
000000
03F000
0C1C00
1C0E00
380700
380780
700780
7003C0
F003C0
F003C0
F003C0
F003C0
F003C0
F003C0
F80380
780780
780700
3C0F00
1E1E00
0FF800
03E000
ENDCHAR
STARTCHAR 00D5
ENCODING 213
SWIDTH 625 0
DWIDTH 20 0
BBX 18 26 1 0
BITMAP
03C600
0FFC00
0FFC00
187800
100000
000000
03F000
0C1C00
1C0E00
380700
380780
700780
7003C0
F003C0
F003C0
F003C0
F003C0
F003C0
F003C0
F80380
780780
780700
3C0F00
1E1E00
0FF800
03E000
ENDCHAR
STARTCHAR 00D6
ENCODING 214
SWIDTH 625 0
DWIDTH 20 0
BBX 18 26 1 0
BITMAP
0E1C00
1E3C00
1E3C00
1E3C00
1C3800
000000
03F000
0C1C00
1C0E00
380700
380780
700780
7003C0
F003C0
F003C0
F003C0
F003C0
F003C0
F003C0
F80380
780780
780700
3C0F00
1E1E00
0FF800
03E000
ENDCHAR
STARTCHAR 00D7
ENCODING 215
SWIDTH 406 0
DWIDTH 13 0
BBX 11 10 1 4
BITMAP
6060
F0E0
39C0
1F80
0F00
0F00
1F80
39C0
70E0
E060
ENDCHAR
STARTCHAR 00D8
ENCODING 216
SWIDTH 625 0
DWIDTH 20 0
BBX 18 21 1 -1
BITMAP
03F1C0
0C1F80
1C0F00
380F00
381F80
703F80
703FC0
F07BC0
F0F3C0
F0E3C0
F1C3C0
F1C3C0
F383C0
F70380
7E0780
7E0700
3C0700
3E0E00
7FF800
E3E000
800000
ENDCHAR
STARTCHAR 00D9
ENCODING 217
SWIDTH 656 0
DWIDTH 21 0
BBX 19 28 1 0
BITMAP
030000
078000
0FC000
07C000
01E000
007000
001800
000000
FF07E0
7E03C0
3C0180
3C0180
3C0180
3C0180
3C0180
3C0180
3C0180
3C0180
3C0180
3C0180
3C0180
3C0180
3C0180
3C0300
1E0300
0F0600
07FC00
03F000
ENDCHAR
STARTCHAR 00DA
ENCODING 218
SWIDTH 656 0
DWIDTH 21 0
BBX 19 28 1 0
BITMAP
000800
001E00
003E00
007C00
00F000
01C000
018000
000000
FF07E0
7E03C0
3C0180
3C0180
3C0180
3C0180
3C0180
3C0180
3C0180
3C0180
3C0180
3C0180
3C0180
3C0180
3C0180
3C0300
1E0300
0F0600
07FC00
03F000
ENDCHAR
STARTCHAR 00DB
ENCODING 219
SWIDTH 656 0
DWIDTH 21 0
BBX 19 27 1 0
BITMAP
00E000
00F000
01F800
03FC00
070E00
0C0600
000000
FF07E0
7E03C0
3C0180
3C0180
3C0180
3C0180
3C0180
3C0180
3C0180
3C0180
3C0180
3C0180
3C0180
3C0180
3C0180
3C0300
1E0300
0F0600
07FC00
03F000
ENDCHAR
STARTCHAR 00DC
ENCODING 220
SWIDTH 656 0
DWIDTH 21 0
BBX 19 26 1 0
BITMAP
060C00
0F1E00
0F1E00
0F1E00
0E1C00
000000
FF07E0
7E03C0
3C0180
3C0180
3C0180
3C0180
3C0180
3C0180
3C0180
3C0180
3C0180
3C0180
3C0180
3C0180
3C0180
3C0300
1E0300
0F0600
07FC00
03F000
ENDCHAR
STARTCHAR 00DD
ENCODING 221
SWIDTH 625 0
DWIDTH 20 0
BBX 19 28 0 0
BITMAP
000800
001E00
003E00
007C00
00F000
01C000
018000
000000
FC07E0
3C03C0
1E0380
0F0300
0F0700
078600
038E00
03CC00
01DC00
01F800
00F800
00F000
00F000
00F000
00F000
00F000
00F000
00F000
01F800
03FC00
ENDCHAR
STARTCHAR 00DE
ENCODING 222
SWIDTH 562 0
DWIDTH 18 0
BBX 16 20 1 0
BITMAP
FF80
7E00
3C00
3C00
3FF0
3C3C
3C1E
3C0F
3C0F
3C0F
3C0F
3C0E
3C1E
3C3C
3FF0
3C00
3C00
3C00
7E00
FF80
ENDCHAR
STARTCHAR 00DF
ENCODING 223
SWIDTH 656 0
DWIDTH 21 0
BBX 18 24 1 0
BITMAP
00F800
03FE00
0F1F00
0E0F80
1C0780
1C0780
3C0780
3C0780
3C0F00
3C3C00
3C7000
3CE000
3CE000
3CF000
3CFC00
3C7F00
3C3F80
3C0FC0
3C07C0
3D03C0
3C81C0
3CC180
7CE180
FCFE00
ENDCHAR
STARTCHAR 00E0
ENCODING 224
SWIDTH 500 0
DWIDTH 16 0
BBX 14 24 1 0
BITMAP
1C00
3E00
1E00
0F00
0700
0380
0180
00C0
0000
1FC0
70E0
F0F0
C0F0
00F0
03F0
1FF0
3FF0
78F0
F0F0
F0F0
F0F0
FBFC
7EF8
3860
ENDCHAR
STARTCHAR 00E1
ENCODING 225
SWIDTH 500 0
DWIDTH 16 0
BBX 14 24 1 0
BITMAP
00E0
01F0
01E0
03C0
0380
0300
0700
0600
0000
1FC0
70E0
F0F0
C0F0
00F0
03F0
1FF0
3FF0
78F0
F0F0
F0F0
F0F0
FBFC
7EF8
3860
ENDCHAR
STARTCHAR 00E2
ENCODING 226
SWIDTH 500 0
DWIDTH 16 0
BBX 14 23 1 0
BITMAP
0380
0780
0FC0
1FE0
1CE0
3830
2010
0000
1FC0
70E0
F0F0
C0F0
00F0
03F0
1FF0
3FF0
78F0
F0F0
F0F0
F0F0
FBFC
7EF8
3860
ENDCHAR
STARTCHAR 00E3
ENCODING 227
SWIDTH 500 0
DWIDTH 16 0
BBX 14 22 1 0
BITMAP
0E08
1F18
3FF0
63F0
40E0
0000
0000
1FC0
70E0
F0F0
C0F0
00F0
03F0
1FF0
3FF0
78F0
F0F0
F0F0
F0F0
FBFC
7EF8
3860
ENDCHAR
STARTCHAR 00E4
ENCODING 228
SWIDTH 500 0
DWIDTH 16 0
BBX 14 22 1 0
BITMAP
3870
78F0
78F0
78F0
3060
0000
0000
1FC0
70E0
F0F0
C0F0
00F0
03F0
1FF0
3FF0
78F0
F0F0
F0F0
F0F0
FBFC
7EF8
3860
ENDCHAR
STARTCHAR 00E5
ENCODING 229
SWIDTH 500 0
DWIDTH 16 0
BBX 14 22 1 0
BITMAP
0380
04C0
0CC0
0CC0
0780
0000
0000
1FC0
70E0
F0F0
C0F0
00F0
03F0
1FF0
3FF0
78F0
F0F0
F0F0
F0F0
FBFC
7EF8
3860
ENDCHAR
STARTCHAR 00E6
ENCODING 230
SWIDTH 718 0
DWIDTH 23 0
BBX 22 15 1 0
BITMAP
03E3E0
1FFC70
3CFC38
78783C
70783C
80783C
07FFF8
1C7800
787800
707800
F07C08
F9FE1C
FFBFF8
7F1FF0
3C07C0
ENDCHAR
STARTCHAR 00E7
ENCODING 231
SWIDTH 468 0
DWIDTH 15 0
BBX 14 22 1 -7
BITMAP
03F8
0C78
3830
7010
7000
F000
F000
F000
F000
F000
F808
7C1C
3FF8
1FF0
0FC0
0300
03C0
03E0
05E0
01E0
03C0
0E00
ENDCHAR
STARTCHAR 00E8
ENCODING 232
SWIDTH 468 0
DWIDTH 15 0
BBX 13 24 1 0
BITMAP
0E00
1E00
1F00
0F00
0780
0380
01C0
00C0
0000
07C0
18E0
3870
7078
7078
F078
FFF0
F000
F000
F000
F808
7C38
7FF0
3FE0
0F80
ENDCHAR
STARTCHAR 00E9
ENCODING 233
SWIDTH 468 0
DWIDTH 15 0
BBX 13 24 1 0
BITMAP
00E0
00F0
01F0
01E0
03C0
0380
0700
0600
0000
07C0
18E0
3870
7078
7078
F078
FFF0
F000
F000
F000
F808
7C38
7FF0
3FE0
0F80
ENDCHAR
STARTCHAR 00EA
ENCODING 234
SWIDTH 468 0
DWIDTH 15 0
BBX 13 23 1 0
BITMAP
0380
07C0
0FC0
0FE0
1C70
3830
3018
0000
07C0
18E0
3870
7078
7078
F078
FFF0
F000
F000
F000
F808
7C38
7FF0
3FE0
0F80
ENDCHAR
STARTCHAR 00EB
ENCODING 235
SWIDTH 468 0
DWIDTH 15 0
BBX 13 22 1 0
BITMAP
3870
3870
78F0
78F0
3060
0000
0000
07C0
18E0
3870
7078
7078
F078
FFF0
F000
F000
F000
F808
7C38
7FF0
3FE0
0F80
ENDCHAR
STARTCHAR 00EC
ENCODING 236
SWIDTH 312 0
DWIDTH 10 0
BBX 9 24 0 0
BITMAP
7000
F800
7800
3C00
1C00
0E00
0600
0200
0000
0E00
7E00
3E00
1E00
1E00
1E00
1E00
1E00
1E00
1E00
1E00
1E00
1E00
3F00
7F80
ENDCHAR
STARTCHAR 00ED
ENCODING 237
SWIDTH 312 0
DWIDTH 10 0
BBX 9 24 1 0
BITMAP
0700
0F80
0F00
1E00
1C00
3800
3000
2000
0000
1C00
FC00
7C00
3C00
3C00
3C00
3C00
3C00
3C00
3C00
3C00
3C00
3C00
7E00
FF00
ENDCHAR
STARTCHAR 00EE
ENCODING 238
SWIDTH 312 0
DWIDTH 10 0
BBX 10 23 0 0
BITMAP
1C00
1E00
3F00
7F00
7380
C1C0
8040
0000
0E00
7E00
3E00
1E00
1E00
1E00
1E00
1E00
1E00
1E00
1E00
1E00
1E00
3F00
7F80
ENDCHAR
STARTCHAR 00EF
ENCODING 239
SWIDTH 312 0
DWIDTH 10 0
BBX 11 22 -1 0
BITMAP
70E0
F1E0
F1E0
F1E0
E1C0
0000
0000
0700
3F00
1F00
0F00
0F00
0F00
0F00
0F00
0F00
0F00
0F00
0F00
0F00
1F80
3FC0
ENDCHAR
STARTCHAR 00F0
ENCODING 240
SWIDTH 500 0
DWIDTH 16 0
BBX 14 23 1 0
BITMAP
0E00
3F1C
5FF8
03E0
0FE0
3CE0
0070
0038
0FF8
18F8
387C
703C
703C
F03C
F03C
F03C
F03C
F038
F038
7870
7870
3C60
0F80
ENDCHAR
STARTCHAR 00F1
ENCODING 241
SWIDTH 593 0
DWIDTH 19 0
BBX 17 22 1 0
BITMAP
070600
0FCC00
1FFC00
11F800
307000
000000
000000
0C3C00
FCFC00
7FFE00
3F1E00
3E1E00
3C1E00
3C1E00
3C1E00
3C1E00
3C1E00
3C1E00
3C1E00
3C1E00
7E3F00
FF7F80
ENDCHAR
STARTCHAR 00F2
ENCODING 242
SWIDTH 531 0
DWIDTH 17 0
BBX 15 24 1 0
BITMAP
0E00
1F00
0F00
0700
0380
0180
00C0
00C0
0000
07E0
1870
3838
703C
701E
F01E
F01E
F01E
F01E
F01E
F01C
781C
3838
1C30
0FC0
ENDCHAR
STARTCHAR 00F3
ENCODING 243
SWIDTH 531 0
DWIDTH 17 0
BBX 15 24 1 0
BITMAP
00F0
00F8
00F0
01E0
01C0
0380
0300
0600
0000
07E0
1870
3838
703C
701E
F01E
F01E
F01E
F01E
F01E
F01C
781C
3838
1C30
0FC0
ENDCHAR
STARTCHAR 00F4
ENCODING 244
SWIDTH 531 0
DWIDTH 17 0
BBX 15 23 1 0
BITMAP
0380
03C0
07E0
0FE0
1E70
1838
3018
0000
07E0
1870
3838
703C
701E
F01E
F01E
F01E
F01E
F01E
F01C
781C
3838
1C30
0FC0
ENDCHAR
STARTCHAR 00F5
ENCODING 245
SWIDTH 531 0
DWIDTH 17 0
BBX 15 22 1 0
BITMAP
0E0C
1F88
1FF8
31F0
20E0
0000
0000
07E0
1870
3838
703C
701E
F01E
F01E
F01E
F01E
F01E
F01C
781C
3838
1C30
0FC0
ENDCHAR
STARTCHAR 00F6
ENCODING 246
SWIDTH 531 0
DWIDTH 17 0
BBX 15 22 1 0
BITMAP
1830
3C78
3C78
3870
3870
0000
0000
07E0
1870
3838
703C
701E
F01E
F01E
F01E
F01E
F01E
F01C
781C
3838
1C30
0FC0
ENDCHAR
STARTCHAR 00F7
ENCODING 247
SWIDTH 406 0
DWIDTH 13 0
BBX 12 12 1 3
BITMAP
0600
0E00
0E00
0C00
0000
FFF0
FFE0
0000
0600
0E00
0E00
0C00
ENDCHAR
STARTCHAR 00F8
ENCODING 248
SWIDTH 531 0
DWIDTH 17 0
BBX 15 16 1 -1
BITMAP
07EE
187C
383C
707C
70FE
F0FE
F1DE
F39E
F39E
F71E
FE1C
7C1C
7C38
7C30
6FC0
8000
ENDCHAR
STARTCHAR 00F9
ENCODING 249
SWIDTH 562 0
DWIDTH 18 0
BBX 17 24 0 0
BITMAP
070000
0F8000
078000
03C000
01C000
00E000
006000
003000
000000
1C0E00
FC7E00
3C1E00
3C1E00
3C1E00
3C1E00
3C1E00
3C1E00
3C1E00
3C1E00
3C1E00
3C7E00
3FFF80
1FDF00
0F0C00
ENDCHAR
STARTCHAR 00FA
ENCODING 250
SWIDTH 562 0
DWIDTH 18 0
BBX 17 24 0 0
BITMAP
003800
007C00
007800
00F000
00E000
00C000
018000
018000
000000
1C0E00
FC7E00
3C1E00
3C1E00
3C1E00
3C1E00
3C1E00
3C1E00
3C1E00
3C1E00
3C1E00
3C7E00
3FFF80
1FDF00
0F0C00
ENDCHAR
STARTCHAR 00FB
ENCODING 251
SWIDTH 562 0
DWIDTH 18 0
BBX 17 23 0 0
BITMAP
00C000
01E000
03F000
07F800
073800
0E0C00
080400
000000
1C0E00
FC7E00
3C1E00
3C1E00
3C1E00
3C1E00
3C1E00
3C1E00
3C1E00
3C1E00
3C1E00
3C7E00
3FFF80
1FDF00
0F0C00
ENDCHAR
STARTCHAR 00FC
ENCODING 252
SWIDTH 562 0
DWIDTH 18 0
BBX 17 22 0 0
BITMAP
0E1C00
1E3C00
1E3C00
1E3C00
0C1800
000000
000000
1C0E00
FC7E00
3C1E00
3C1E00
3C1E00
3C1E00
3C1E00
3C1E00
3C1E00
3C1E00
3C1E00
3C7E00
3FFF80
1FDF00
0F0C00
ENDCHAR
STARTCHAR 00FD
ENCODING 253
SWIDTH 500 0
DWIDTH 16 0
BBX 17 32 -1 -8
BITMAP
003800
003E00
007C00
007800
00F000
00E000
00C000
018000
000000
7F0F80
3E0700
1E0600
1E0600
0F0E00
0F0C00
078C00
079800
079800
03F800
03F000
01F000
01F000
01E000
00E000
00C000
00C000
01C000
018000
278000
7F0000
FE0000
780000
ENDCHAR
STARTCHAR 00FE
ENCODING 254
SWIDTH 562 0
DWIDTH 18 0
BBX 16 32 1 -8
BITMAP
0C00
FC00
7C00
3C00
3C00
3C00
3C00
3C00
3C00
3C78
3DFC
3FFE
3E3E
3C1F
3C0F
3C0F
3C0F
3C0F
3C0F
3C0E
3F1E
3FFC
3DF8
3CF0
3C00
3C00
3C00
3C00
3C00
3C00
7F00
FF80
ENDCHAR
STARTCHAR 00FF
ENCODING 255
SWIDTH 500 0
DWIDTH 16 0
BBX 17 30 -1 -8
BITMAP
060C00
0F1E00
0F1E00
0E1C00
0E1C00
000000
000000
7F0F80
3E0700
1E0600
1E0600
0F0E00
0F0C00
078C00
079800
079800
03F800
03F000
01F000
01F000
01E000
00E000
00C000
00C000
01C000
018000
278000
7F0000
FE0000
780000
ENDCHAR
STARTCHAR 0100
ENCODING 256
SWIDTH 625 0
DWIDTH 20 0
BBX 20 25 0 0
BITMAP
0FFF80
0FFF00
1FFF00
000000
000000
002000
00F000
00F000
01F800
01F800
01F800
03BC00
033C00
033C00
071E00
061E00
0E1F00
0FFF00
0C0700
1C0780
180780
180380
3803C0
3803C0
FE0FF0
ENDCHAR
STARTCHAR 0101
ENCODING 257
SWIDTH 500 0
DWIDTH 16 0
BBX 14 21 1 0
BITMAP
7FFC
7FFC
7FF8
0000
0000
0000
1FC0
70E0
F0F0
C0F0
00F0
03F0
1FF0
3FF0
78F0
F0F0
F0F0
F0F0
FBFC
7EF8
3860
ENDCHAR
STARTCHAR 0102
ENCODING 258
SWIDTH 625 0
DWIDTH 20 0
BBX 20 27 0 0
BITMAP
040200
0F0E00
07FE00
03FC00
00F000
000000
000000
002000
00F000
00F000
01F800
01F800
01F800
03BC00
033C00
033C00
071E00
061E00
0E1F00
0FFF00
0C0700
1C0780
180780
180380
3803C0
3803C0
FE0FF0
ENDCHAR
STARTCHAR 0103
ENCODING 259
SWIDTH 500 0
DWIDTH 16 0
BBX 14 22 1 0
BITMAP
2010
7878
3FF0
1FE0
0780
0000
0000
1FC0
70E0
F0F0
C0F0
00F0
03F0
1FF0
3FF0
78F0
F0F0
F0F0
F0F0
FBFC
7EF8
3860
ENDCHAR
STARTCHAR 0106
ENCODING 262
SWIDTH 562 0
DWIDTH 18 0
BBX 16 28 1 0
BITMAP
0010
003C
007C
00F8
01E0
03C0
0300
0000
01FE
061F
1C0E
3804
3800
7000
7000
F000
F000
F000
F000
F000
F000
F800
7800
7C03
3F0E
1FFC
0FF8
03E0
ENDCHAR
STARTCHAR 0107
ENCODING 263
SWIDTH 468 0
DWIDTH 15 0
BBX 13 24 1 0
BITMAP
00E0
01F0
01E0
03C0
0380
0700
0600
0600
0000
03F8
0C78
3830
7010
7000
F000
F000
F000
F000
F800
F808
7C38
3FF0
1FE0
0F80
ENDCHAR
STARTCHAR 0108
ENCODING 264
SWIDTH 562 0
DWIDTH 18 0
BBX 16 27 1 0
BITMAP
00C0
01E0
03F0
07F8
0E1C
080C
0000
01FE
061F
1C0E
3804
3800
7000
7000
F000
F000
F000
F000
F000
F000
F800
7800
7C03
3F0E
1FFC
0FF8
03E0
ENDCHAR
STARTCHAR 0109
ENCODING 265
SWIDTH 468 0
DWIDTH 15 0
BBX 13 23 1 0
BITMAP
0300
0780
0FC0
1FE0
1CE0
3870
2010
0000
03F8
0C78
3830
7010
7000
F000
F000
F000
F000
F800
F808
7C38
3FF0
1FE0
0F80
ENDCHAR
STARTCHAR 010A
ENCODING 266
SWIDTH 562 0
DWIDTH 18 0
BBX 16 26 1 0
BITMAP
00E0
01E0
01E0
01E0
01C0
0000
01FE
061F
1C0E
3804
3800
7000
7000
F000
F000
F000
F000
F000
F000
F800
7800
7C03
3F0E
1FFC
0FF8
03E0
ENDCHAR
STARTCHAR 010B
ENCODING 267
SWIDTH 468 0
DWIDTH 15 0
BBX 13 22 1 0
BITMAP
0380
0780
0780
0780
0700
0000
0000
03F8
0C78
3830
7010
7000
F000
F000
F000
F000
F800
F808
7C38
3FF0
1FE0
0F80
ENDCHAR
STARTCHAR 010C
ENCODING 268
SWIDTH 562 0
DWIDTH 18 0
BBX 16 28 1 0
BITMAP
0804
0E1C
0738
03F0
01E0
01C0
0000
0000
01FE
061F
1C0E
3804
3800
7000
7000
F000
F000
F000
F000
F000
F000
F800
7800
7C03
3F0E
1FFC
0FF8
03E0
ENDCHAR
STARTCHAR 010D
ENCODING 269
SWIDTH 468 0
DWIDTH 15 0
BBX 13 24 1 0
BITMAP
2010
3070
1CE0
1FE0
0FC0
0780
0700
0000
0000
03F8
0C78
3830
7010
7000
F000
F000
F000
F000
F800
F808
7C38
3FF0
1FE0
0F80
ENDCHAR
STARTCHAR 010E
ENCODING 270
SWIDTH 625 0
DWIDTH 20 0
BBX 18 28 1 0
BITMAP
180800
1C3C00
0F7000
07E000
03E000
01C000
000000
000000
3FF000
FC3C00
3C0E00
3C0F00
3C0780
3C0780
3C03C0
3C03C0
3C03C0
3C03C0
3C03C0
3C03C0
3C03C0
3C0380
3C0780
3C0780
3C0F00
3C0E00
7C1C00
FFF000
ENDCHAR
STARTCHAR 0110
ENCODING 272
SWIDTH 625 0
DWIDTH 20 0
BBX 18 20 1 0
BITMAP
3FF000
FC3C00
3C0E00
3C0F00
3C0780
3C0780
3C03C0
3C03C0
3C03C0
FFC3C0
3C03C0
3C03C0
3C03C0
3C0380
3C0780
3C0780
3C0F00
3C0E00
7C1C00
FFF000
ENDCHAR
STARTCHAR 0111
ENCODING 273
SWIDTH 562 0
DWIDTH 18 0
BBX 17 24 1 0
BITMAP
001C00
00FC00
007C00
003C00
003C00
07FF80
003C00
003C00
003C00
07FC00
187C00
383C00
703C00
703C00
F03C00
F03C00
F03C00
F03C00
F83C00
F83C00
7C7C00
7FFF00
3FBE00
1E1800
ENDCHAR
STARTCHAR 0112
ENCODING 274
SWIDTH 531 0
DWIDTH 17 0
BBX 15 25 1 0
BITMAP
3FFC
7FFC
7FFC
0000
0000
FFFC
7C0C
3C0C
3C0C
3C0C
3C00
3C00
3C00
3C00
3FF0
3C20
3C00
3C00
3C00
3C00
3C00
3C02
3C06
7C0E
FFFE
ENDCHAR
STARTCHAR 0113
ENCODING 275
SWIDTH 468 0
DWIDTH 15 0
BBX 14 21 1 0
BITMAP
3FFC
7FFC
7FFC
0000
0000
0000
07C0
18E0
3870
7078
7078
F078
FFF0
F000
F000
F000
F808
7C38
7FF0
3FE0
0F80
ENDCHAR
STARTCHAR 0114
ENCODING 276
SWIDTH 531 0
DWIDTH 17 0
BBX 15 27 1 0
BITMAP
2010
3838
1FF0
0FE0
07C0
0000
0000
FFFC
7C0C
3C0C
3C0C
3C0C
3C00
3C00
3C00
3C00
3FF0
3C20
3C00
3C00
3C00
3C00
3C00
3C02
3C06
7C0E
FFFE
ENDCHAR
STARTCHAR 0115
ENCODING 277
SWIDTH 468 0
DWIDTH 15 0
BBX 13 22 1 0
BITMAP
2010
3838
1FF0
0FE0
07C0
0000
0000
07C0
18E0
3870
7078
7078
F078
FFF0
F000
F000
F000
F808
7C38
7FF0
3FE0
0F80
ENDCHAR
STARTCHAR 0116
ENCODING 278
SWIDTH 531 0
DWIDTH 17 0
BBX 15 26 1 0
BITMAP
0380
0380
0780
0780
0300
0000
FFFC
7C0C
3C0C
3C0C
3C0C
3C00
3C00
3C00
3C00
3FF0
3C20
3C00
3C00
3C00
3C00
3C00
3C02
3C06
7C0E
FFFE
ENDCHAR
STARTCHAR 0117
ENCODING 279
SWIDTH 468 0
DWIDTH 15 0
BBX 13 22 1 0
BITMAP
0380
0380
0780
0780
0300
0000
0000
07C0
18E0
3870
7078
7078
F078
FFF0
F000
F000
F000
F808
7C38
7FF0
3FE0
0F80
ENDCHAR
STARTCHAR 011A
ENCODING 282
SWIDTH 531 0
DWIDTH 17 0
BBX 15 28 1 0
BITMAP
3010
1838
1EE0
0FE0
07C0
0380
0000
0000
FFFC
7C0C
3C0C
3C0C
3C0C
3C00
3C00
3C00
3C00
3FF0
3C20
3C00
3C00
3C00
3C00
3C00
3C02
3C06
7C0E
FFFE
ENDCHAR
STARTCHAR 011B
ENCODING 283
SWIDTH 468 0
DWIDTH 15 0
BBX 13 24 1 0
BITMAP
3010
3838
1CF0
0FE0
0FC0
0780
0380
0000
0000
07C0
18E0
3870
7078
7078
F078
FFF0
F000
F000
F000
F808
7C38
7FF0
3FE0
0F80
ENDCHAR
STARTCHAR 011C
ENCODING 284
SWIDTH 593 0
DWIDTH 19 0
BBX 18 27 1 0
BITMAP
00E000
01E000
03F000
07F800
0E1C00
0C0600
000000
01FE00
060F00
1C0600
380400
380000
780000
700000
F00000
F00000
F00000
F07FC0
F07FC0
F00F00
F00F00
780F00
780F00
3C0F00
1E0F00
0FFE00
03F000
ENDCHAR
STARTCHAR 011D
ENCODING 285
SWIDTH 531 0
DWIDTH 17 0
BBX 16 31 0 -8
BITMAP
01C0
03C0
07E0
07F0
0E70
1C18
100C
0000
07E3
1C7F
387E
783C
783C
783C
783C
3C38
3C70
0FC0
0E00
1C00
1FC0
3FFC
0FFE
1FFF
787F
F00F
F00E
F00E
781C
3FF8
0FC0
ENDCHAR
STARTCHAR 011E
ENCODING 286
SWIDTH 593 0
DWIDTH 19 0
BBX 18 27 1 0
BITMAP
080400
0E0E00
07FC00
07F800
01F000
000000
000000
01FE00
060F00
1C0600
380400
380000
780000
700000
F00000
F00000
F00000
F07FC0
F07FC0
F00F00
F00F00
780F00
780F00
3C0F00
1E0F00
0FFE00
03F000
ENDCHAR
STARTCHAR 011F
ENCODING 287
SWIDTH 531 0
DWIDTH 17 0
BBX 16 30 0 -8
BITMAP
1008
1C1C
0FF8
0FF0
03E0
0000
0000
07E3
1C7F
387E
783C
783C
783C
783C
3C38
3C70
0FC0
0E00
1C00
1FC0
3FFC
0FFE
1FFF
787F
F00F
F00E
F00E
781C
3FF8
0FC0
ENDCHAR
STARTCHAR 0120
ENCODING 288
SWIDTH 593 0
DWIDTH 19 0
BBX 18 26 1 0
BITMAP
00E000
00E000
01E000
01E000
00C000
000000
01FE00
060F00
1C0600
380400
380000
780000
700000
F00000
F00000
F00000
F07FC0
F07FC0
F00F00
F00F00
780F00
780F00
3C0F00
1E0F00
0FFE00
03F000
ENDCHAR
STARTCHAR 0121
ENCODING 289
SWIDTH 531 0
DWIDTH 17 0
BBX 16 30 0 -8
BITMAP
01C0
01C0
03C0
03C0
0180
0000
0000
07E3
1C7F
387E
783C
783C
783C
783C
3C38
3C70
0FC0
0E00
1C00
1FC0
3FFC
0FFE
1FFF
787F
F00F
F00E
F00E
781C
3FF8
0FC0
ENDCHAR
STARTCHAR 0124
ENCODING 292
SWIDTH 687 0
DWIDTH 22 0
BBX 20 27 1 0
BITMAP
00E000
00F000
01F800
03FC00
070E00
0C0600
000000
FF0FF0
7E07E0
3C03C0
3C03C0
3C03C0
3C03C0
3C03C0
3C03C0
3C03C0
3FFFC0
3C03C0
3C03C0
3C03C0
3C03C0
3C03C0
3C03C0
3C03C0
3C03C0
7E07E0
FF0FF0
ENDCHAR
STARTCHAR 0125
ENCODING 293
SWIDTH 593 0
DWIDTH 19 0
BBX 17 31 1 0
BITMAP
01C000
03E000
07E000
07F000
0E3800
180C00
000000
0C0000
FC0000
7C0000
3C0000
3C0000
3C0000
3C0000
3C0000
3C0000
3C7800
3DFC00
3FFE00
3F1E00
3E1E00
3C1E00
3C1E00
3C1E00
3C1E00
3C1E00
3C1E00
3C1E00
3C1E00
7E3F00
FF7F80
ENDCHAR
STARTCHAR 0128
ENCODING 296
SWIDTH 312 0
DWIDTH 10 0
BBX 12 26 -1 0
BITMAP
1E30
3FF0
7FE0
C3C0
8000
0000
3FC0
1F80
0F00
0F00
0F00
0F00
0F00
0F00
0F00
0F00
0F00
0F00
0F00
0F00
0F00
0F00
0F00
0F00
1F80
3FC0
ENDCHAR
STARTCHAR 0129
ENCODING 297
SWIDTH 312 0
DWIDTH 10 0
BBX 12 22 -1 0
BITMAP
3C10
7E30
7FE0
C7C0
8380
0000
0000
0700
3F00
1F00
0F00
0F00
0F00
0F00
0F00
0F00
0F00
0F00
0F00
0F00
1F80
3FC0
ENDCHAR
STARTCHAR 012A
ENCODING 298
SWIDTH 312 0
DWIDTH 10 0
BBX 10 26 0 0
BITMAP
7FC0
7FC0
FFC0
0000
0000
0000
7F80
3F00
1E00
1E00
1E00
1E00
1E00
1E00
1E00
1E00
1E00
1E00
1E00
1E00
1E00
1E00
1E00
1E00
3F00
7F80
ENDCHAR
STARTCHAR 012B
ENCODING 299
SWIDTH 312 0
DWIDTH 10 0
BBX 10 21 0 0
BITMAP
7FC0
FFC0
FF80
0000
0000
0000
0E00
7E00
3E00
1E00
1E00
1E00
1E00
1E00
1E00
1E00
1E00
1E00
1E00
3F00
7F80
ENDCHAR
STARTCHAR 012C
ENCODING 300
SWIDTH 312 0
DWIDTH 10 0
BBX 11 27 0 0
BITMAP
8040
E1E0
FFC0
7F80
1E00
0000
0000
7F80
3F00
1E00
1E00
1E00
1E00
1E00
1E00
1E00
1E00
1E00
1E00
1E00
1E00
1E00
1E00
1E00
1E00
3F00
7F80
ENDCHAR
STARTCHAR 012D
ENCODING 301
SWIDTH 312 0
DWIDTH 10 0
BBX 11 22 -1 0
BITMAP
4020
F0E0
7FE0
3FC0
0F00
0000
0000
0700
3F00
1F00
0F00
0F00
0F00
0F00
0F00
0F00
0F00
0F00
0F00
0F00
1F80
3FC0
ENDCHAR
STARTCHAR 0130
ENCODING 304
SWIDTH 312 0
DWIDTH 10 0
BBX 8 26 1 0
BITMAP
1C
3C
3C
3C
18
00
FF
7E
3C
3C
3C
3C
3C
3C
3C
3C
3C
3C
3C
3C
3C
3C
3C
3C
7E
FF
ENDCHAR
STARTCHAR 0131
ENCODING 305
SWIDTH 312 0
DWIDTH 10 0
BBX 8 15 1 0
BITMAP
1C
FC
7C
3C
3C
3C
3C
3C
3C
3C
3C
3C
3C
7E
FF
ENDCHAR
STARTCHAR 0132
ENCODING 306
SWIDTH 656 0
DWIDTH 21 0
BBX 20 27 1 -7
BITMAP
FF1FF0
7E0FE0
3C0780
3C0780
3C0780
3C0780
3C0780
3C0780
3C0780
3C0780
3C0780
3C0780
3C0780
3C0780
3C0780
3C0780
3C0780
3C0780
7E0780
FF0780
000780
000780
000700
01CF00
03FE00
03F800
01F000
ENDCHAR
STARTCHAR 0133
ENCODING 307
SWIDTH 593 0
DWIDTH 19 0
BBX 16 29 1 -8
BITMAP
1C0E
3E1F
3E1E
1C1E
0000
0000
1C0E
FC7E
7C3E
3C1E
3C1E
3C1E
3C1E
3C1E
3C1E
3C1E
3C1E
3C1E
3C1E
7E1E
FF1E
001C
003C
003C
003C
0638
0FF0
1FE0
0780
ENDCHAR
STARTCHAR 0139
ENCODING 313
SWIDTH 500 0
DWIDTH 16 0
BBX 15 28 1 0
BITMAP
0040
00F0
01F0
03E0
0780
0E00
0C00
0000
FF00
7E00
3C00
3C00
3C00
3C00
3C00
3C00
3C00
3C00
3C00
3C00
3C00
3C00
3C00
3C00
3C02
3C06
7C0E
FFFE
ENDCHAR
STARTCHAR 013A
ENCODING 314
SWIDTH 312 0
DWIDTH 10 0
BBX 9 33 1 0
BITMAP
0200
0780
0F80
1F00
3C00
7800
6000
0000
0000
0C00
FC00
7C00
3C00
3C00
3C00
3C00
3C00
3C00
3C00
3C00
3C00
3C00
3C00
3C00
3C00
3C00
3C00
3C00
3C00
3C00
3C00
7E00
FF00
ENDCHAR
STARTCHAR 0141
ENCODING 321
SWIDTH 500 0
DWIDTH 16 0
BBX 15 20 1 0
BITMAP
FF00
7E00
3C00
3C00
3C00
3C00
3C20
3CE0
3FC0
3F00
3C00
FC00
FC00
BC00
3C00
3C00
3C02
3C06
7C0E
FFFE
ENDCHAR
STARTCHAR 0142
ENCODING 322
SWIDTH 312 0
DWIDTH 10 0
BBX 10 24 0 0
BITMAP
0600
7E00
3E00
1E00
1E00
1E00
1E00
1E00
1EC0
1F80
1F80
1F00
3E00
7E00
7E00
DE00
1E00
1E00
1E00
1E00
1E00
1E00
3F00
7F80
ENDCHAR
STARTCHAR 0143
ENCODING 323
SWIDTH 656 0
DWIDTH 21 0
BBX 19 28 1 0
BITMAP
000800
001C00
003E00
007C00
00F000
01C000
030000
000000
F807E0
7C03C0
3C0180
3E0180
3F0180
3F8180
378180
33C180
33E180
31E180
30F180
30F980
307D80
303D80
301F80
301F80
300F80
300780
780780
FC0180
ENDCHAR
STARTCHAR 0144
ENCODING 324
SWIDTH 593 0
DWIDTH 19 0
BBX 17 24 1 0
BITMAP
007000
007800
00FC00
00F000
01E000
01C000
018000
030000
000000
0C3C00
FCFC00
7FFE00
3F1E00
3E1E00
3C1E00
3C1E00
3C1E00
3C1E00
3C1E00
3C1E00
3C1E00
3C1E00
7E3F00
FF7F80
ENDCHAR
STARTCHAR 0147
ENCODING 327
SWIDTH 656 0
DWIDTH 21 0
BBX 19 28 1 0
BITMAP
040600
0F0C00
03BC00
03F800
01F000
00E000
000000
000000
F807E0
7C03C0
3C0180
3E0180
3F0180
3F8180
378180
33C180
33E180
31E180
30F180
30F980
307D80
303D80
301F80
301F80
300F80
300780
780780
FC0180
ENDCHAR
STARTCHAR 0148
ENCODING 328
SWIDTH 593 0
DWIDTH 19 0
BBX 17 24 1 0
BITMAP
180800
1C1C00
0E3800
07F000
03E000
03E000
01C000
000000
000000
0C3C00
FCFC00
7FFE00
3F1E00
3E1E00
3C1E00
3C1E00
3C1E00
3C1E00
3C1E00
3C1E00
3C1E00
3C1E00
7E3F00
FF7F80
ENDCHAR
STARTCHAR 014A
ENCODING 330
SWIDTH 656 0
DWIDTH 21 0
BBX 18 27 1 -7
BITMAP
0C1F00
FC7F80
7CFFC0
3DC7C0
3F83C0
3E03C0
3C03C0
3C03C0
3C03C0
3C03C0
3C03C0
3C03C0
3C03C0
3C03C0
3C03C0
3C03C0
3C03C0
3C03C0
7E03C0
FF03C0
000380
000780
030700
078E00
0FFC00
0FF800
03E000
ENDCHAR
STARTCHAR 014B
ENCODING 331
SWIDTH 562 0
DWIDTH 18 0
BBX 15 23 1 -8
BITMAP
0C38
FCFC
7FFE
3F1E
3E1E
3C1E
3C1E
3C1E
3C1E
3C1E
3C1E
3C1E
3C1E
7E1E
FF1E
001E
001E
001C
0C3C
1E38
3FF0
3FE0
0F80
ENDCHAR
STARTCHAR 014C
ENCODING 332
SWIDTH 625 0
DWIDTH 20 0
BBX 18 25 1 0
BITMAP
1FFF00
1FFE00
3FFE00
000000
000000
03F000
0C1C00
1C0E00
380700
380780
700780
7003C0
F003C0
F003C0
F003C0
F003C0
F003C0
F003C0
F80380
780780
780700
3C0F00
1E1E00
0FF800
03E000
ENDCHAR
STARTCHAR 014D
ENCODING 333
SWIDTH 531 0
DWIDTH 17 0
BBX 15 21 1 0
BITMAP
3FFC
3FFE
7FFC
0000
0000
0000
07E0
1870
3838
703C
701E
F01E
F01E
F01E
F01E
F01E
F01C
781C
3838
1C30
0FC0
ENDCHAR
STARTCHAR 014E
ENCODING 334
SWIDTH 625 0
DWIDTH 20 0
BBX 18 27 1 0
BITMAP
080400
1E1E00
0FFC00
07F800
01E000
000000
000000
03F000
0C1C00
1C0E00
380700
380780
700780
7003C0
F003C0
F003C0
F003C0
F003C0
F003C0
F003C0
F80380
780780
780700
3C0F00
1E1E00
0FF800
03E000
ENDCHAR
STARTCHAR 014F
ENCODING 335
SWIDTH 531 0
DWIDTH 17 0
BBX 15 22 1 0
BITMAP
1008
3838
1FF0
0FF0
07C0
0000
0000
07E0
1870
3838
703C
701E
F01E
F01E
F01E
F01E
F01E
F01C
781C
3838
1C30
0FC0
ENDCHAR
STARTCHAR 0150
ENCODING 336
SWIDTH 625 0
DWIDTH 20 0
BBX 18 29 1 0
BITMAP
01CE00
01EF00
01CE00
039C00
039C00
031800
063000
063000
000000
03F000
0C1C00
1C0E00
380700
380780
700780
7003C0
F003C0
F003C0
F003C0
F003C0
F003C0
F003C0
F80380
780780
780700
3C0F00
1E1E00
0FF800
03E000
ENDCHAR
STARTCHAR 0151
ENCODING 337
SWIDTH 531 0
DWIDTH 17 0
BBX 15 24 1 0
BITMAP
039C
039C
07BC
0738
0630
0E70
0C60
0C60
0000
07E0
1870
3838
703C
701E
F01E
F01E
F01E
F01E
F01E
F01C
781C
3838
1C30
0FC0
ENDCHAR
STARTCHAR 0152
ENCODING 338
SWIDTH 843 0
DWIDTH 27 0
BBX 25 20 1 0
BITMAP
03FFFF00
0C1FFF00
180F0700
380F0200
380F0200
700F0000
700F0000
F00F0000
F00F0000
F00FFE00
F00F0400
F00F0000
F00F0000
F80F0000
780F0000
7C0F0080
3E0F0180
1FFF0380
0FFFFF80
03FFFF80
ENDCHAR
STARTCHAR 0153
ENCODING 339
SWIDTH 812 0
DWIDTH 26 0
BBX 24 15 1 0
BITMAP
07C0F8
1C731C
383F0E
703E0F
701E0F
F01E0F
F01FFE
F01E00
F01E00
F01E00
F01F01
781F87
383FFE
1C33FC
0FC1F0
ENDCHAR
STARTCHAR 0154
ENCODING 340
SWIDTH 593 0
DWIDTH 19 0
BBX 18 28 1 0
BITMAP
002000
007800
00F800
01F000
03C000
070000
060000
000000
3FE000
FC7800
3C3C00
3C1E00
3C1E00
3C1E00
3C1E00
3C3C00
3CFC00
3FF000
3FE000
3CF000
3C7000
3C7800
3C3C00
3C3E00
3C1E00
3C0F00
7E0FC0
FF0780
ENDCHAR
STARTCHAR 0155
ENCODING 341
SWIDTH 437 0
DWIDTH 14 0
BBX 13 24 1 0
BITMAP
00E0
01F0
01E0
03C0
0380
0700
0600
0400
0000
18F0
F9F8
7BF8
3E30
3C30
3C30
3C00
3C00
3C00
3C00
3C00
3C00
3C00
7E00
FF00
ENDCHAR
STARTCHAR 0158
ENCODING 344
SWIDTH 593 0
DWIDTH 19 0
BBX 18 28 1 0
BITMAP
101800
3C3800
0EF000
07E000
07C000
038000
000000
000000
3FE000
FC7800
3C3C00
3C1E00
3C1E00
3C1E00
3C1E00
3C3C00
3CFC00
3FF000
3FE000
3CF000
3C7000
3C7800
3C3C00
3C3E00
3C1E00
3C0F00
7E0FC0
FF0780
ENDCHAR
STARTCHAR 0159
ENCODING 345
SWIDTH 437 0
DWIDTH 14 0
BBX 13 24 1 0
BITMAP
2010
7070
1CE0
1FC0
0FC0
0780
0700
0000
0000
18F0
F9F8
7BF8
3E30
3C30
3C30
3C00
3C00
3C00
3C00
3C00
3C00
3C00
7E00
FF00
ENDCHAR
STARTCHAR 015A
ENCODING 346
SWIDTH 500 0
DWIDTH 16 0
BBX 13 28 2 0
BITMAP
00C0
01E0
03F0
07E0
0780
0E00
1800
0000
0FE0
30E0
6060
E000
E000
F000
FC00
7F00
7FC0
1FE0
0FF0
03F8
00F8
0078
8078
C078
C070
E0E0
FFC0
3F00
ENDCHAR
STARTCHAR 015B
ENCODING 347
SWIDTH 406 0
DWIDTH 13 0
BBX 11 24 1 0
BITMAP
03C0
03E0
03C0
0780
0700
0E00
0C00
1800
0000
1FC0
61C0
E180
E080
F800
FE00
7F80
7FC0
1FE0
07E0
81E0
C0E0
C0C0
E0C0
FF00
ENDCHAR
STARTCHAR 015C
ENCODING 348
SWIDTH 500 0
DWIDTH 16 0
BBX 13 27 2 0
BITMAP
0700
0F80
1F80
3FC0
38E0
6030
0000
0FE0
30E0
6060
E000
E000
F000
FC00
7F00
7FC0
1FE0
0FF0
03F8
00F8
0078
8078
C078
C070
E0E0
FFC0
3F00
ENDCHAR
STARTCHAR 015D
ENCODING 349
SWIDTH 406 0
DWIDTH 13 0
BBX 11 23 1 0
BITMAP
0E00
0F00
1F80
3F80
71C0
60E0
C060
0000
1FC0
61C0
E180
E080
F800
FE00
7F80
7FC0
1FE0
07E0
81E0
C0E0
C0C0
E0C0
FF00
ENDCHAR
STARTCHAR 0160
ENCODING 352
SWIDTH 500 0
DWIDTH 16 0
BBX 13 28 2 0
BITMAP
6020
3070
3DC0
1FC0
0F80
0700
0000
0000
0FE0
30E0
6060
E000
E000
F000
FC00
7F00
7FC0
1FE0
0FF0
03F8
00F8
0078
8078
C078
C070
E0E0
FFC0
3F00
ENDCHAR
STARTCHAR 0161
ENCODING 353
SWIDTH 406 0
DWIDTH 13 0
BBX 11 24 1 0
BITMAP
4060
E0E0
71C0
3F80
1F80
1F00
0E00
0000
0000
1FC0
61C0
E180
E080
F800
FE00
7F80
7FC0
1FE0
07E0
81E0
C0E0
C0C0
E0C0
FF00
ENDCHAR
STARTCHAR 0164
ENCODING 356
SWIDTH 593 0
DWIDTH 19 0
BBX 18 28 0 0
BITMAP
080400
0E1C00
073800
03F000
01E000
00E000
000000
000000
FFFFC0
C1E1C0
C1E0C0
C1E0C0
81E080
01E000
01E000
01E000
01E000
01E000
01E000
01E000
01E000
01E000
01E000
01E000
01E000
01E000
03F000
07F800
ENDCHAR
STARTCHAR 0168
ENCODING 360
SWIDTH 656 0
DWIDTH 21 0
BBX 19 26 1 0
BITMAP
03C300
07FE00
07FE00
0C7800
080000
000000
FF07E0
7E03C0
3C0180
3C0180
3C0180
3C0180
3C0180
3C0180
3C0180
3C0180
3C0180
3C0180
3C0180
3C0180
3C0180
3C0300
1E0300
0F0600
07FC00
03F000
ENDCHAR
STARTCHAR 0169
ENCODING 361
SWIDTH 562 0
DWIDTH 18 0
BBX 17 22 0 0
BITMAP
038200
07C600
0FFC00
18F800
103000
000000
000000
1C0E00
FC7E00
3C1E00
3C1E00
3C1E00
3C1E00
3C1E00
3C1E00
3C1E00
3C1E00
3C1E00
3C7E00
3FFF80
1FDF00
0F0C00
ENDCHAR
STARTCHAR 016A
ENCODING 362
SWIDTH 656 0
DWIDTH 21 0
BBX 19 25 1 0
BITMAP
0FFF80
0FFF00
1FFF00
000000
000000
FF07E0
7E03C0
3C0180
3C0180
3C0180
3C0180
3C0180
3C0180
3C0180
3C0180
3C0180
3C0180
3C0180
3C0180
3C0180
3C0300
1E0300
0F0600
07FC00
03F000
ENDCHAR
STARTCHAR 016B
ENCODING 363
SWIDTH 562 0
DWIDTH 18 0
BBX 17 21 0 0
BITMAP
1FFF00
1FFF00
1FFE00
000000
000000
000000
1C0E00
FC7E00
3C1E00
3C1E00
3C1E00
3C1E00
3C1E00
3C1E00
3C1E00
3C1E00
3C1E00
3C7E00
3FFF80
1FDF00
0F0C00
ENDCHAR
STARTCHAR 016C
ENCODING 364
SWIDTH 656 0
DWIDTH 21 0
BBX 19 27 1 0
BITMAP
040200
0E0E00
07FC00
03FC00
01F000
000000
000000
FF07E0
7E03C0
3C0180
3C0180
3C0180
3C0180
3C0180
3C0180
3C0180
3C0180
3C0180
3C0180
3C0180
3C0180
3C0180
3C0300
1E0300
0F0600
07FC00
03F000
ENDCHAR
STARTCHAR 016D
ENCODING 365
SWIDTH 562 0
DWIDTH 18 0
BBX 17 22 0 0
BITMAP
080400
1E1E00
0FFC00
07F800
01E000
000000
000000
1C0E00
FC7E00
3C1E00
3C1E00
3C1E00
3C1E00
3C1E00
3C1E00
3C1E00
3C1E00
3C1E00
3C7E00
3FFF80
1FDF00
0F0C00
ENDCHAR
STARTCHAR 016E
ENCODING 366
SWIDTH 656 0
DWIDTH 21 0
BBX 19 27 1 0
BITMAP
00F000
019800
019800
019000
00E000
000000
000000
FF07E0
7E03C0
3C0180
3C0180
3C0180
3C0180
3C0180
3C0180
3C0180
3C0180
3C0180
3C0180
3C0180
3C0180
3C0180
3C0300
1E0300
0F0600
07FC00
03F000
ENDCHAR
STARTCHAR 016F
ENCODING 367
SWIDTH 562 0
DWIDTH 18 0
BBX 17 22 0 0
BITMAP
00E000
013000
033000
033000
01E000
000000
000000
1C0E00
FC7E00
3C1E00
3C1E00
3C1E00
3C1E00
3C1E00
3C1E00
3C1E00
3C1E00
3C1E00
3C7E00
3FFF80
1FDF00
0F0C00
ENDCHAR
STARTCHAR 0170
ENCODING 368
SWIDTH 656 0
DWIDTH 21 0
BBX 19 29 1 0
BITMAP
00E700
00E700
01EF00
01CE00
01CE00
018C00
031800
031800
000000
FF07E0
7E03C0
3C0180
3C0180
3C0180
3C0180
3C0180
3C0180
3C0180
3C0180
3C0180
3C0180
3C0180
3C0180
3C0180
3C0300
1E0300
0F0600
07FC00
03F000
ENDCHAR
STARTCHAR 0171
ENCODING 369
SWIDTH 562 0
DWIDTH 18 0
BBX 17 24 0 0
BITMAP
01CE00
01EF00
01CE00
039C00
039C00
031800
063000
063000
000000
1C0E00
FC7E00
3C1E00
3C1E00
3C1E00
3C1E00
3C1E00
3C1E00
3C1E00
3C1E00
3C1E00
3C7E00
3FFF80
1FDF00
0F0C00
ENDCHAR
STARTCHAR 0174
ENCODING 372
SWIDTH 843 0
DWIDTH 27 0
BBX 27 27 0 0
BITMAP
000E0000
001F0000
001F8000
003FC000
0071C000
00C06000
00000000
FF060FE0
3C0603C0
1C0F0380
1C0F0300
1C0F0300
1E1F8300
1E1B8300
0E1BC700
0E3BC600
0F31C600
0F31E600
0770EE00
0760FC00
07E0FC00
07C07C00
03C07C00
03C03C00
03803800
03803800
03001000
ENDCHAR
STARTCHAR 0175
ENCODING 373
SWIDTH 718 0
DWIDTH 23 0
BBX 23 23 0 0
BITMAP
003800
003C00
007E00
00FE00
00E700
018380
030080
000000
FE183E
7C181C
3C1C18
3C3C18
1C3E30
1E7E30
1E6F30
0E6F70
0FC760
0FC7E0
07C3E0
0783C0
0783C0
0301C0
020180
ENDCHAR
STARTCHAR 0176
ENCODING 374
SWIDTH 625 0
DWIDTH 20 0
BBX 19 27 0 0
BITMAP
00E000
00F000
01F800
03FC00
070E00
0C0600
000000
FC07E0
3C03C0
1E0380
0F0300
0F0700
078600
038E00
03CC00
01DC00
01F800
00F800
00F000
00F000
00F000
00F000
00F000
00F000
00F000
01F800
03FC00
ENDCHAR
STARTCHAR 0177
ENCODING 375
SWIDTH 500 0
DWIDTH 16 0
BBX 17 31 -1 -8
BITMAP
00E000
01F000
01F000
03F800
071C00
0E0C00
040600
000000
7F0F80
3E0700
1E0600
1E0600
0F0E00
0F0C00
078C00
079800
079800
03F800
03F000
01F000
01F000
01E000
00E000
00C000
00C000
01C000
018000
278000
7F0000
FE0000
780000
ENDCHAR
STARTCHAR 0178
ENCODING 376
SWIDTH 625 0
DWIDTH 20 0
BBX 19 26 0 0
BITMAP
060C00
0F1E00
0F1E00
0F1E00
0E1C00
000000
FC07E0
3C03C0
1E0380
0F0300
0F0700
078600
038E00
03CC00
01DC00
01F800
00F800
00F000
00F000
00F000
00F000
00F000
00F000
00F000
01F800
03FC00
ENDCHAR
STARTCHAR 0179
ENCODING 377
SWIDTH 531 0
DWIDTH 17 0
BBX 15 28 1 0
BITMAP
0020
0078
00FC
01F0
03E0
0780
0600
0000
7FFE
603E
607C
407C
40F8
00F0
01F0
01E0
03E0
07C0
07C0
0F80
0F00
1F00
3E00
3E02
7C02
7C06
F806
FFFE
ENDCHAR
STARTCHAR 017A
ENCODING 378
SWIDTH 468 0
DWIDTH 15 0
BBX 13 24 1 0
BITMAP
00E0
01F0
01E0
03C0
0380
0700
0600
0400
0000
7FF8
60F8
41F0
41E0
03E0
07C0
0780
0F80
0F00
1F00
3E10
3C18
7C18
F818
FFF8
ENDCHAR
STARTCHAR 017B
ENCODING 379
SWIDTH 531 0
DWIDTH 17 0
BBX 15 26 1 0
BITMAP
01C0
03C0
03C0
03C0
0180
0000
7FFE
603E
607C
407C
40F8
00F0
01F0
01E0
03E0
07C0
07C0
0F80
0F00
1F00
3E00
3E02
7C02
7C06
F806
FFFE
ENDCHAR
STARTCHAR 017C
ENCODING 380
SWIDTH 468 0
DWIDTH 15 0
BBX 13 22 1 0
BITMAP
0380
0780
0780
0780
0700
0000
0000
7FF8
60F8
41F0
41E0
03E0
07C0
0780
0F80
0F00
1F00
3E10
3C18
7C18
F818
FFF8
ENDCHAR
STARTCHAR 017D
ENCODING 381
SWIDTH 531 0
DWIDTH 17 0
BBX 15 28 1 0
BITMAP
1008
1C38
0E70
07E0
03C0
01C0
0000
0000
7FFE
603E
607C
407C
40F8
00F0
01F0
01E0
03E0
07C0
07C0
0F80
0F00
1F00
3E00
3E02
7C02
7C06
F806
FFFE
ENDCHAR
STARTCHAR 017E
ENCODING 382
SWIDTH 468 0
DWIDTH 15 0
BBX 13 24 1 0
BITMAP
2010
3070
1CE0
1FE0
0FC0
0780
0700
0000
0000
7FF8
60F8
41F0
41E0
03E0
07C0
0780
0F80
0F00
1F00
3E10
3C18
7C18
F818
FFF8
ENDCHAR
STARTCHAR 0181
ENCODING 385
SWIDTH 750 0
DWIDTH 24 0
BBX 22 20 0 0
BITMAP
07FF00
3FE3C0
79E1E0
F1E0F0
F1E0F0
F1E0F0
F9E0F0
61E1E0
01E3C0
01FFC0
01E0F0
01E078
01E07C
01E03C
01E03C
01E03C
01E03C
01E078
03E0F0
07FFC0
ENDCHAR
STARTCHAR 0186
ENCODING 390
SWIDTH 562 0
DWIDTH 18 0
BBX 16 20 1 0
BITMAP
0FC0
3FF0
E07C
803C
001E
001E
000F
000F
000F
000F
000F
080F
780F
F00E
F01E
F01C
F01C
F838
7FF0
1FC0
ENDCHAR
STARTCHAR 0189
ENCODING 393
SWIDTH 625 0
DWIDTH 20 0
BBX 18 20 1 0
BITMAP
3FF000
FC3C00
3C0E00
3C0F00
3C0780
3C0780
3C03C0
3C03C0
3C03C0
FFC3C0
3C03C0
3C03C0
3C03C0
3C0380
3C0780
3C0780
3C0F00
3C0E00
7C1C00
FFF000
ENDCHAR
STARTCHAR 018A
ENCODING 394
SWIDTH 750 0
DWIDTH 24 0
BBX 23 20 0 0
BITMAP
07FF80
3FE1E0
79E0F0
F1E078
F1E03C
F1E03C
F9E01E
61E01E
01E01E
01E01E
01E01E
01E01E
01E01E
01E01C
01E03C
01E03C
01E078
01E070
03E0E0
07FF80
ENDCHAR
STARTCHAR 018E
ENCODING 398
SWIDTH 531 0
DWIDTH 17 0
BBX 15 20 1 0
BITMAP
3FFE
707C
6078
4078
0078
0078
0078
0078
1078
1FF8
2078
0078
0078
0078
0078
4078
4078
C078
C07C
FFFE
ENDCHAR
STARTCHAR 0190
ENCODING 400
SWIDTH 531 0
DWIDTH 17 0
BBX 15 20 1 0
BITMAP
07FC
1C3C
3818
3008
7000
7000
7000
7800
3E00
1FC0
3E00
7800
7000
F000
F000
F806
FC1C
7FF8
3FF0
0FC0
ENDCHAR
STARTCHAR 0192
ENCODING 402
SWIDTH 312 0
DWIDTH 10 0
BBX 18 32 -5 -8
BITMAP
000F80
003FC0
007380
00E100
00E000
01E000
01E000
01E000
01E000
07FE00
01E400
01E000
01E000
01E000
01E000
01E000
01E000
01E000
01E000
01E000
01E000
01E000
01E000
01E000
01E000
01E000
01C000
01C000
638000
FF0000
FE0000
780000
ENDCHAR
STARTCHAR 0197
ENCODING 407
SWIDTH 312 0
DWIDTH 10 0
BBX 10 20 0 0
BITMAP
7F80
3F00
1E00
1E00
1E00
1E00
1E00
1E00
1E00
7FC0
9E00
1E00
1E00
1E00
1E00
1E00
1E00
1E00
3F00
7F80
ENDCHAR
STARTCHAR 0198
ENCODING 408
SWIDTH 656 0
DWIDTH 21 0
BBX 19 20 1 0
BITMAP
FF03C0
7E0FC0
3C1FE0
3C3CE0
3C38E0
3C70E0
3CE1C0
3DE100
3DC000
3F8000
3FC000
3DE000
3CF000
3C7800
3C3C00
3C3E00
3C1F00
3C0F80
7E07E0
FF0780
ENDCHAR
STARTCHAR 0199
ENCODING 409
SWIDTH 562 0
DWIDTH 18 0
BBX 17 24 1 0
BITMAP
00F800
03FE00
071E00
0E0C00
1E0000
1C0000
3C0000
3C0000
3C0000
3C3F80
3C1E00
3C3C00
3C7000
3CE000
3DC000
3FC000
3DE000
3DE000
3CF000
3C7800
3C3C00
3C3E00
7E1F80
FF0F00
ENDCHAR
STARTCHAR 019A
ENCODING 410
SWIDTH 343 0
DWIDTH 11 0
BBX 10 24 0 0
BITMAP
0600
7E00
3E00
1E00
1E00
1E00
1E00
1E00
1E00
1E00
1E00
FFC0
1E00
1E00
1E00
1E00
1E00
1E00
1E00
1E00
1E00
1E00
3F00
7F80
ENDCHAR
STARTCHAR 019D
ENCODING 413
SWIDTH 656 0
DWIDTH 21 0
BBX 25 27 -5 -7
BITMAP
03E01F80
01F00F00
00F00600
00F80600
00FC0600
00FE0600
00DE0600
00DF0600
00CF8600
00C78600
00C7C600
00C3E600
00C1F600
00C0F600
00C0FE00
00C07E00
00C03E00
00C03E00
00C01E00
00C00E00
00C00200
00C00000
01C00000
31800000
7F800000
FF000000
3C000000
ENDCHAR
STARTCHAR 019F
ENCODING 415
SWIDTH 625 0
DWIDTH 20 0
BBX 18 20 1 0
BITMAP
03F000
0E1C00
1C0E00
380F00
380780
700780
7003C0
F003C0
F003C0
FFFFC0
F003C0
F003C0
F003C0
F80380
780780
780700
3C0F00
1E1E00
0FF800
03E000
ENDCHAR
STARTCHAR 01A0
ENCODING 416
SWIDTH 625 0
DWIDTH 20 0
BBX 19 24 1 0
BITMAP
000040
0001E0
0003E0
0001E0
03F1C0
0C1F80
1C0F00
380700
380780
700780
7003C0
F003C0
F003C0
F003C0
F003C0
F003C0
F003C0
F80380
780780
780700
3C0F00
1E1E00
0FF800
03E000
ENDCHAR
STARTCHAR 01A1
ENCODING 417
SWIDTH 625 0
DWIDTH 20 0
BBX 18 18 1 0
BITMAP
000080
0007C0
0003C0
07E3C0
187780
383E00
703C00
701C00
F01E00
F01E00
F01E00
F01E00
F01E00
F01C00
781C00
383800
1C3000
0FC000
ENDCHAR
STARTCHAR 01A9
ENCODING 425
SWIDTH 562 0
DWIDTH 18 0
BBX 15 20 1 0
BITMAP
FFFE
FFFE
780E
3C06
3E06
1E00
0F00
0F00
0780
03C0
0380
0700
0600
0E00
1C02
3802
3806
7FFE
FFFE
FFFE
ENDCHAR
STARTCHAR 01AA
ENCODING 426
SWIDTH 406 0
DWIDTH 13 0
BBX 18 32 0 -8
BITMAP
0F8000
31E000
61E000
E0F000
F1F000
FFF000
7FF000
3CF000
00F000
00F000
00F000
00F000
01E000
01E000
01E000
01E000
01E000
01E000
01E000
03C000
03C000
03C000
03C000
03C000
03C000
03C000
03C000
03C000
03C3C0
01C780
00E780
007E00
ENDCHAR
STARTCHAR 01AF
ENCODING 431
SWIDTH 718 0
DWIDTH 23 0
BBX 22 24 1 0
BITMAP
000008
00003C
00007C
00003C
FF07F8
7E03F0
3C01C0
3C0180
3C0180
3C0180
3C0180
3C0180
3C0180
3C0180
3C0180
3C0180
3C0180
3C0180
3C0180
3C0300
1E0300
0F0600
07FC00
03F000
ENDCHAR
STARTCHAR 01B0
ENCODING 432
SWIDTH 687 0
DWIDTH 22 0
BBX 22 18 0 0
BITMAP
000008
00007C
0C003C
FC033C
7C3F78
3C1FE0
3C0FC0
3C0F00
3C0F00
3C0F00
3C0F00
3C0F00
3C0F00
3C0F00
3E3F00
3FFFC0
1FCF80
0F8600
ENDCHAR
STARTCHAR 01B3
ENCODING 435
SWIDTH 718 0
DWIDTH 23 0
BBX 22 22 0 0
BITMAP
000070
0000F8
FC01FC
3C03BC
1E031C
0F071C
0F0638
078E20
078C00
03CC00
01D800
01F800
00F000
00F000
00F000
00F000
00F000
00F000
00F000
00F000
01F800
03FC00
ENDCHAR
STARTCHAR 01B4
ENCODING 436
SWIDTH 500 0
DWIDTH 16 0
BBX 24 29 -1 -8
BITMAP
00003E
00007F
0000FE
0001C4
000380
000300
7F0300
3E0600
1E0600
1E0600
0F0C00
0F0C00
079C00
079800
079800
03F800
03F000
01F000
01F000
01E000
00E000
00C000
00C000
01C000
018000
238000
7F0000
FE0000
780000
ENDCHAR
STARTCHAR 01B7
ENCODING 439
SWIDTH 531 0
DWIDTH 17 0
BBX 15 20 1 0
BITMAP
7FFC
607C
C0F8
C1F0
41E0
03E0
07C0
0780
0FF0
1FF8
187C
003E
001E
001E
001E
201C
603C
F078
FFE0
1F80
ENDCHAR
STARTCHAR 01CD
ENCODING 461
SWIDTH 625 0
DWIDTH 20 0
BBX 20 28 0 0
BITMAP
040200
070E00
039C00
01F800
00F000
00E000
000000
000000
002000
00F000
00F000
01F800
01F800
01F800
03BC00
033C00
033C00
071E00
061E00
0E1F00
0FFF00
0C0700
1C0780
180780
180380
3803C0
3803C0
FE0FF0
ENDCHAR
STARTCHAR 01CE
ENCODING 462
SWIDTH 500 0
DWIDTH 16 0
BBX 14 24 1 0
BITMAP
2010
3870
1CE0
1FE0
0FC0
0780
0300
0000
0000
1FC0
70E0
F0F0
C0F0
00F0
03F0
1FF0
3FF0
78F0
F0F0
F0F0
F0F0
FBFC
7EF8
3860
ENDCHAR
STARTCHAR 01CF
ENCODING 463
SWIDTH 312 0
DWIDTH 10 0
BBX 10 28 0 0
BITMAP
8040
E1C0
7380
3F00
1E00
0E00
0000
0000
7F80
3F00
1E00
1E00
1E00
1E00
1E00
1E00
1E00
1E00
1E00
1E00
1E00
1E00
1E00
1E00
1E00
1E00
3F00
7F80
ENDCHAR
STARTCHAR 01D0
ENCODING 464
SWIDTH 312 0
DWIDTH 10 0
BBX 10 24 0 0
BITMAP
8040
C1C0
7380
7F80
3F00
1E00
1C00
0000
0000
0E00
7E00
3E00
1E00
1E00
1E00
1E00
1E00
1E00
1E00
1E00
1E00
1E00
3F00
7F80
ENDCHAR
STARTCHAR 01D1
ENCODING 465
SWIDTH 625 0
DWIDTH 20 0
BBX 18 29 1 0
BITMAP
080400
0C1C00
073800
07F800
03F000
01E000
01C000
000000
000000
03F000
0C1C00
1C0E00
380700
380780
700780
7003C0
F003C0
F003C0
F003C0
F003C0
F003C0
F003C0
F80380
780780
780700
3C0F00
1E1E00
0FF800
03E000
ENDCHAR
STARTCHAR 01D2
ENCODING 466
SWIDTH 531 0
DWIDTH 17 0
BBX 15 24 1 0
BITMAP
1018
3838
1E70
0FE0
07E0
03C0
0380
0000
0000
07E0
1870
3838
703C
701E
F01E
F01E
F01E
F01E
F01E
F01C
781C
3838
1C30
0FC0
ENDCHAR
STARTCHAR 01D3
ENCODING 467
SWIDTH 656 0
DWIDTH 21 0
BBX 19 28 1 0
BITMAP
040600
0F0E00
03BC00
01F800
01F000
00E000
000000
000000
FF07E0
7E03C0
3C0180
3C0180
3C0180
3C0180
3C0180
3C0180
3C0180
3C0180
3C0180
3C0180
3C0180
3C0180
3C0180
3C0300
1E0300
0F0600
07FC00
03F000
ENDCHAR
STARTCHAR 01D4
ENCODING 468
SWIDTH 562 0
DWIDTH 18 0
BBX 17 24 0 0
BITMAP
080400
0C1C00
073800
07F800
03F000
01E000
00C000
000000
000000
1C0E00
FC7E00
3C1E00
3C1E00
3C1E00
3C1E00
3C1E00
3C1E00
3C1E00
3C1E00
3C1E00
3C7E00
3FFF80
1FDF00
0F0C00
ENDCHAR
STARTCHAR 01D5
ENCODING 469
SWIDTH 656 0
DWIDTH 21 0
BBX 19 30 1 0
BITMAP
0FFF80
0FFF00
1FFF00
000000
060C00
0F1E00
0F1E00
0F1E00
0E1C00
000000
FF07E0
7E03C0
3C0180
3C0180
3C0180
3C0180
3C0180
3C0180
3C0180
3C0180
3C0180
3C0180
3C0180
3C0180
3C0180
3C0300
1E0300
0F0600
07FC00
03F000
ENDCHAR
STARTCHAR 01D6
ENCODING 470
SWIDTH 562 0
DWIDTH 18 0
BBX 17 27 0 0
BITMAP
1FFF00
1FFF00
1FFE00
000000
000000
0E1C00
1E3C00
1E3C00
1E3C00
0C1800
000000
000000
1C0E00
FC7E00
3C1E00
3C1E00
3C1E00
3C1E00
3C1E00
3C1E00
3C1E00
3C1E00
3C1E00
3C7E00
3FFF80
1FDF00
0F0C00
ENDCHAR
STARTCHAR 01D7
ENCODING 471
SWIDTH 656 0
DWIDTH 21 0
BBX 19 33 1 0
BITMAP
000800
001E00
003E00
007C00
00F000
01C000
010000
060C00
0F1E00
0F1E00
0F1E00
0E1C00
000000
FF07E0
7E03C0
3C0180
3C0180
3C0180
3C0180
3C0180
3C0180
3C0180
3C0180
3C0180
3C0180
3C0180
3C0180
3C0180
3C0300
1E0300
0F0600
07FC00
03F000
ENDCHAR
STARTCHAR 01D8
ENCODING 472
SWIDTH 562 0
DWIDTH 18 0
BBX 17 30 0 0
BITMAP
003000
007C00
007800
007000
00F000
00E000
01C000
018000
0E1C00
1E3C00
1E3C00
1E3C00
0C1800
000000
000000
1C0E00
FC7E00
3C1E00
3C1E00
3C1E00
3C1E00
3C1E00
3C1E00
3C1E00
3C1E00
3C1E00
3C7E00
3FFF80
1FDF00
0F0C00
ENDCHAR
STARTCHAR 01D9
ENCODING 473
SWIDTH 656 0
DWIDTH 21 0
BBX 19 33 1 0
BITMAP
040600
0F0E00
03BC00
01F800
00F000
00E000
000000
060C00
0F1E00
0F1E00
0F1E00
0E1C00
000000
FF07E0
7E03C0
3C0180
3C0180
3C0180
3C0180
3C0180
3C0180
3C0180
3C0180
3C0180
3C0180
3C0180
3C0180
3C0180
3C0300
1E0300
0F0600
07FC00
03F000
ENDCHAR
STARTCHAR 01DA
ENCODING 474
SWIDTH 562 0
DWIDTH 18 0
BBX 17 30 0 0
BITMAP
080400
0C0C00
063C00
07F800
03F000
01E000
01E000
000000
0E1C00
1E3C00
1E3C00
1E3C00
0C1800
000000
000000
1C0E00
FC7E00
3C1E00
3C1E00
3C1E00
3C1E00
3C1E00
3C1E00
3C1E00
3C1E00
3C1E00
3C7E00
3FFF80
1FDF00
0F0C00
ENDCHAR
STARTCHAR 01DB
ENCODING 475
SWIDTH 656 0
DWIDTH 21 0
BBX 19 33 1 0
BITMAP
030000
078000
0FC000
03E000
01F000
007800
001000
060C00
0F1E00
0F1E00
0F1E00
0E1C00
000000
FF07E0
7E03C0
3C0180
3C0180
3C0180
3C0180
3C0180
3C0180
3C0180
3C0180
3C0180
3C0180
3C0180
3C0180
3C0180
3C0300
1E0300
0F0600
07FC00
03F000
ENDCHAR
STARTCHAR 01DC
ENCODING 476
SWIDTH 562 0
DWIDTH 18 0
BBX 17 30 0 0
BITMAP
010000
0F8000
078000
03C000
01C000
00E000
006000
007000
0E1C00
1E3C00
1E3C00
1E3C00
0C1800
000000
000000
1C0E00
FC7E00
3C1E00
3C1E00
3C1E00
3C1E00
3C1E00
3C1E00
3C1E00
3C1E00
3C1E00
3C7E00
3FFF80
1FDF00
0F0C00
ENDCHAR
STARTCHAR 01DD
ENCODING 477
SWIDTH 500 0
DWIDTH 16 0
BBX 14 15 1 0
BITMAP
0FC0
1FF0
7FF8
E0F8
807C
007C
003C
003C
3FFC
F03C
F038
F038
7070
7860
1F80
ENDCHAR
STARTCHAR 01DE
ENCODING 478
SWIDTH 625 0
DWIDTH 20 0
BBX 20 30 0 0
BITMAP
0FFF80
0FFF00
1FFF00
000000
060C00
0F1E00
0F1E00
0F1E00
0E1C00
000000
002000
00F000
00F000
01F800
01F800
01F800
03BC00
033C00
033C00
071E00
061E00
0E1F00
0FFF00
0C0700
1C0780
180780
180380
3803C0
3803C0
FE0FF0
ENDCHAR
STARTCHAR 01DF
ENCODING 479
SWIDTH 500 0
DWIDTH 16 0
BBX 14 27 1 0
BITMAP
7FFC
7FFC
7FF8
0000
0000
3870
78F0
78F0
78F0
3060
0000
0000
1FC0
70E0
F0F0
C0F0
00F0
03F0
1FF0
3FF0
78F0
F0F0
F0F0
F0F0
FBFC
7EF8
3860
ENDCHAR
STARTCHAR 01E0
ENCODING 480
SWIDTH 625 0
DWIDTH 20 0
BBX 20 30 0 0
BITMAP
0FFF80
0FFF00
1FFF00
000000
006000
00F000
00F000
00F000
00E000
000000
002000
00F000
00F000
01F800
01F800
01F800
03BC00
033C00
033C00
071E00
061E00
0E1F00
0FFF00
0C0700
1C0780
180780
180380
3803C0
3803C0
FE0FF0
ENDCHAR
STARTCHAR 01E1
ENCODING 481
SWIDTH 500 0
DWIDTH 16 0
BBX 14 27 1 0
BITMAP
7FF8
7FFC
7FF8
0000
0000
0380
0780
0780
0780
0300
0000
0000
1FC0
70E0
F0F0
C0F0
00F0
03F0
1FF0
3FF0
78F0
F0F0
F0F0
F0F0
FBFC
7EF8
3860
ENDCHAR
STARTCHAR 01E2
ENCODING 482
SWIDTH 812 0
DWIDTH 26 0
BBX 25 25 0 0
BITMAP
007FFC00
007FFC00
007FF800
00000000
00000000
03FFFF00
00FF0300
00FF0300
00EF0300
00EF0300
01CF0000
01CF0000
038F0000
038F0000
03FFFE00
070F0400
060F0000
0E0F0000
0E0F0000
0C0F0000
1C0F0000
180F0080
180F0180
381F0180
FE3FFF80
ENDCHAR
STARTCHAR 01E3
ENCODING 483
SWIDTH 718 0
DWIDTH 23 0
BBX 22 21 1 0
BITMAP
07FFC0
07FFC0
07FF80
000000
000000
000000
03E3E0
1FFC70
3CFC38
78783C
70783C
80783C
07FFF8
1C7800
787800
707800
F07C08
F9FE1C
FFBFF8
7F1FF0
3C07C0
ENDCHAR
STARTCHAR 01E6
ENCODING 486
SWIDTH 593 0
DWIDTH 19 0
BBX 18 28 1 0
BITMAP
0C0400
0E1E00
07B800
03F000
01F000
00E000
000000
000000
01FE00
060F00
1C0600
380400
380000
780000
700000
F00000
F00000
F00000
F07FC0
F07FC0
F00F00
F00F00
780F00
780F00
3C0F00
1E0F00
0FFE00
03F000
ENDCHAR
STARTCHAR 01E7
ENCODING 487
SWIDTH 531 0
DWIDTH 17 0
BBX 16 32 0 -8
BITMAP
1008
1C1C
0E78
07F0
07E0
03C0
01C0
0000
0000
07E3
1C7F
387E
783C
783C
783C
783C
3C38
3C70
0FC0
0E00
1C00
1FC0
3FFC
0FFE
1FFF
787F
F00F
F00E
F00E
781C
3FF8
0FC0
ENDCHAR
STARTCHAR 01E8
ENCODING 488
SWIDTH 625 0
DWIDTH 20 0
BBX 19 28 1 0
BITMAP
080C00
0E1C00
073800
03F000
01E000
01C000
000000
000000
FF1FC0
7E0F00
3C0E00
3C1C00
3C3800
3C7000
3CE000
3CE000
3DC000
3F8000
3FC000
3DE000
3CF000
3C7800
3C3C00
3C3E00
3C1F00
3C0F80
7E07E0
FF0380
ENDCHAR
STARTCHAR 01E9
ENCODING 489
SWIDTH 562 0
DWIDTH 18 0
BBX 17 32 1 0
BITMAP
100800
1C1C00
0E7000
07F000
03E000
01C000
000000
000000
0C0000
FC0000
7C0000
3C0000
3C0000
3C0000
3C0000
3C0000
3C0000
3C3F80
3C1E00
3C3C00
3C7000
3CE000
3DC000
3FC000
3FE000
3DE000
3CF000
3C7800
3C3C00
3C3E00
7E1F80
FF0F00
ENDCHAR
STARTCHAR 01EE
ENCODING 494
SWIDTH 531 0
DWIDTH 17 0
BBX 15 29 1 0
BITMAP
1018
3838
1C70
0FE0
07E0
07C0
0380
0000
0000
7FFC
607C
C0F8
C1F0
41E0
03E0
07C0
0780
0FF0
1FF8
187C
003E
001E
001E
001E
201C
603C
F078
FFE0
1F80
ENDCHAR
STARTCHAR 01EF
ENCODING 495
SWIDTH 468 0
DWIDTH 15 0
BBX 14 31 1 -8
BITMAP
6020
3070
3DC0
1FC0
0F80
0700
0000
0000
7FF8
60FC
40F0
41F0
03E0
03C0
07C0
0F80
0F00
1E00
3FC0
20F0
0078
007C
003C
003C
003C
003C
2038
F078
F870
7FE0
1F80
ENDCHAR
STARTCHAR 01F4
ENCODING 500
SWIDTH 593 0
DWIDTH 19 0
BBX 18 28 1 0
BITMAP
001800
003C00
007E00
00FC00
01F000
03C000
010000
000000
01FE00
060F00
1C0600
380400
380000
780000
700000
F00000
F00000
F00000
F07FC0
F07FC0
F00F00
F00F00
780F00
780F00
3C0F00
1E0F00
0FFE00
03F000
ENDCHAR
STARTCHAR 01F5
ENCODING 501
SWIDTH 531 0
DWIDTH 17 0
BBX 16 32 0 -8
BITMAP
0070
0078
00F0
00E0
01E0
01C0
0380
0300
0000
07E3
1C7F
387E
783C
783C
783C
783C
3C38
3C70
0FC0
0E00
1C00
1FC0
3FFC
0FFE
1FFF
787F
F00F
F00E
F00E
781C
3FF8
0FC0
ENDCHAR
STARTCHAR 01F8
ENCODING 504
SWIDTH 656 0
DWIDTH 21 0
BBX 19 28 1 0
BITMAP
020000
070000
0F8000
07C000
01E000
007000
001800
000000
F807E0
7C03C0
3C0180
3E0180
3F0180
3F8180
378180
33C180
33E180
31E180
30F180
30F980
307D80
303D80
301F80
301F80
300F80
300780
780780
FC0180
ENDCHAR
STARTCHAR 01F9
ENCODING 505
SWIDTH 593 0
DWIDTH 19 0
BBX 17 24 1 0
BITMAP
070000
0F0000
078000
078000
03C000
01C000
00E000
006000
000000
0C3C00
FCFC00
7FFE00
3F1E00
3E1E00
3C1E00
3C1E00
3C1E00
3C1E00
3C1E00
3C1E00
3C1E00
3C1E00
7E3F00
FF7F80
ENDCHAR
STARTCHAR 01FA
ENCODING 506
SWIDTH 625 0
DWIDTH 20 0
BBX 20 35 0 0
BITMAP
000800
001E00
003E00
007C00
00F800
01E000
018000
000000
007000
019800
019800
019000
00E000
000000
000000
002000
00F000
00F000
01F800
01F800
01F800
03BC00
033C00
033C00
071E00
061E00
0E1F00
0FFF00
0C0700
1C0780
180780
180380
3803C0
3803C0
FE0FF0
ENDCHAR
STARTCHAR 01FB
ENCODING 507
SWIDTH 500 0
DWIDTH 16 0
BBX 14 31 1 0
BITMAP
00C0
01F0
01E0
01C0
0380
0380
0700
0600
0000
0380
04C0
0CC0
0CC0
0780
0000
0000
1FC0
70E0
F0F0
C0F0
00F0
03F0
1FF0
3FF0
78F0
F0F0
F0F0
F0F0
FBFC
7EF8
3860
ENDCHAR
STARTCHAR 01FC
ENCODING 508
SWIDTH 812 0
DWIDTH 26 0
BBX 25 28 0 0
BITMAP
00006000
0000F000
0001F800
0003E000
0007C000
000F0000
000C0000
00000000
03FFFF00
00FF0300
00FF0300
00EF0300
00EF0300
01CF0000
01CF0000
038F0000
038F0000
03FFFE00
070F0400
060F0000
0E0F0000
0E0F0000
0C0F0000
1C0F0000
180F0080
180F0180
381F0180
FE3FFF80
ENDCHAR
STARTCHAR 01FD
ENCODING 509
SWIDTH 718 0
DWIDTH 23 0
BBX 22 24 1 0
BITMAP
000E00
000F00
001E00
001C00
003C00
003800
007000
006000
000000
03E3E0
1FFC70
3CFC38
78783C
70783C
80783C
07FFF8
1C7800
787800
707800
F07C08
F9FE1C
FFBFF8
7F1FF0
3C07C0
ENDCHAR
STARTCHAR 01FE
ENCODING 510
SWIDTH 625 0
DWIDTH 20 0
BBX 18 29 1 -1
BITMAP
001000
003C00
007C00
00F800
01E000
038000
030000
000000
03F1C0
0C1F80
1C0F00
380F00
381F80
703F80
703FC0
F07BC0
F0F3C0
F0E3C0
F1C3C0
F1C3C0
F383C0
F70380
7E0780
7E0700
3C0700
3E0E00
7FF800
E3E000
800000
ENDCHAR
STARTCHAR 01FF
ENCODING 511
SWIDTH 531 0
DWIDTH 17 0
BBX 15 25 1 -1
BITMAP
00F0
00F8
01F0
01E0
01C0
0380
0300
0600
0000
07EE
187C
383C
707C
70FE
F0FE
F1DE
F39E
F39E
F71E
FE1C
7C1C
7C38
7C30
6FC0
8000
ENDCHAR
STARTCHAR 021E
ENCODING 542
SWIDTH 687 0
DWIDTH 22 0
BBX 20 28 1 0
BITMAP
040600
0F0E00
03BC00
01F800
01F000
00E000
000000
000000
FF0FF0
7E07E0
3C03C0
3C03C0
3C03C0
3C03C0
3C03C0
3C03C0
3C03C0
3FFFC0
3C03C0
3C03C0
3C03C0
3C03C0
3C03C0
3C03C0
3C03C0
3C03C0
7E07E0
FF0FF0
ENDCHAR
STARTCHAR 021F
ENCODING 543
SWIDTH 593 0
DWIDTH 19 0
BBX 17 32 1 0
BITMAP
080800
1C1C00
0F7800
07F000
03E000
01C000
000000
000000
0C0000
FC0000
7C0000
3C0000
3C0000
3C0000
3C0000
3C0000
3C0000
3C7800
3DFC00
3FFE00
3F1E00
3E1E00
3C1E00
3C1E00
3C1E00
3C1E00
3C1E00
3C1E00
3C1E00
3C1E00
7E3F00
FF7F80
ENDCHAR
STARTCHAR 0226
ENCODING 550
SWIDTH 625 0
DWIDTH 20 0
BBX 20 26 0 0
BITMAP
006000
00F000
00F000
00F000
00E000
000000
002000
00F000
00F000
01F800
01F800
01F800
03BC00
033C00
033C00
071E00
061E00
0E1F00
0FFF00
0C0700
1C0780
180780
180380
3803C0
3803C0
FE0FF0
ENDCHAR
STARTCHAR 0227
ENCODING 551
SWIDTH 500 0
DWIDTH 16 0
BBX 14 22 1 0
BITMAP
0380
0780
0780
0780
0300
0000
0000
1FC0
70E0
F0F0
C0F0
00F0
03F0
1FF0
3FF0
78F0
F0F0
F0F0
F0F0
FBFC
7EF8
3860
ENDCHAR
STARTCHAR 0228
ENCODING 552
SWIDTH 531 0
DWIDTH 17 0
BBX 15 27 1 -7
BITMAP
FFFC
7C0C
3C0C
3C0C
3C0C
3C00
3C00
3C00
3C00
3FF0
3C20
3C00
3C00
3C00
3C00
3C00
3C02
3C06
7C0E
FFFE
0300
0300
03C0
07C0
01C0
0380
0E00
ENDCHAR
STARTCHAR 0229
ENCODING 553
SWIDTH 468 0
DWIDTH 15 0
BBX 13 22 1 -7
BITMAP
07C0
18F0
3070
7078
7078
FFF0
F000
F000
F800
F818
FE78
7FF0
7FE0
3FC0
0F80
0300
0380
07C0
03C0
03C0
0780
0E00
ENDCHAR
STARTCHAR 022A
ENCODING 554
SWIDTH 625 0
DWIDTH 20 0
BBX 18 30 1 0
BITMAP
1FFF00
1FFE00
3FFE00
000000
0E1C00
1E3C00
1E3C00
1E3C00
1C3800
000000
03F000
0C1C00
1C0E00
380700
380780
700780
7003C0
F003C0
F003C0
F003C0
F003C0
F003C0
F003C0
F80380
780780
780700
3C0F00
1E1E00
0FF800
03E000
ENDCHAR
STARTCHAR 022B
ENCODING 555
SWIDTH 531 0
DWIDTH 17 0
BBX 15 27 1 0
BITMAP
3FFC
3FFE
7FFC
0000
0000
1830
3C78
3C78
3870
3870
0000
0000
07E0
1870
3838
703C
701E
F01E
F01E
F01E
F01E
F01E
F01C
781C
3838
1C30
0FC0
ENDCHAR
STARTCHAR 022C
ENCODING 556
SWIDTH 625 0
DWIDTH 20 0
BBX 18 31 1 0
BITMAP
1FFE00
1FFF00
1FFE00
200000
000000
03C600
0FFC00
0FFC00
187800
100000
000000
03F000
0C1C00
1C0E00
380700
380780
700780
7003C0
F003C0
F003C0
F003C0
F003C0
F003C0
F003C0
F80380
780780
780700
3C0F00
1E1E00
0FF800
03E000
ENDCHAR
STARTCHAR 022D
ENCODING 557
SWIDTH 531 0
DWIDTH 17 0
BBX 15 27 1 0
BITMAP
3FFE
3FFC
7FFC
0000
0000
0E0C
1F88
1FF8
31F0
20E0
0000
0000
07E0
1870
3838
703C
701E
F01E
F01E
F01E
F01E
F01E
F01C
781C
3838
1C30
0FC0
ENDCHAR
STARTCHAR 022E
ENCODING 558
SWIDTH 625 0
DWIDTH 20 0
BBX 18 26 1 0
BITMAP
00E000
01E000
01E000
01E000
01C000
000000
03F000
0C1C00
1C0E00
380700
380780
700780
7003C0
F003C0
F003C0
F003C0
F003C0
F003C0
F003C0
F80380
780780
780700
3C0F00
1E1E00
0FF800
03E000
ENDCHAR
STARTCHAR 022F
ENCODING 559
SWIDTH 531 0
DWIDTH 17 0
BBX 15 22 1 0
BITMAP
0180
03C0
03C0
0380
0380
0000
0000
07E0
1870
3838
703C
701E
F01E
F01E
F01E
F01E
F01E
F01C
781C
3838
1C30
0FC0
ENDCHAR
STARTCHAR 0230
ENCODING 560
SWIDTH 625 0
DWIDTH 20 0
BBX 18 30 1 0
BITMAP
1FFF00
1FFE00
3FFE00
000000
00E000
01E000
01E000
01E000
01C000
000000
03F000
0C1C00
1C0E00
380700
380780
700780
7003C0
F003C0
F003C0
F003C0
F003C0
F003C0
F003C0
F80380
780780
780700
3C0F00
1E1E00
0FF800
03E000
ENDCHAR
STARTCHAR 0231
ENCODING 561
SWIDTH 531 0
DWIDTH 17 0
BBX 15 27 1 0
BITMAP
3FFC
3FFE
7FFC
0000
0000
0180
03C0
03C0
0380
0380
0000
0000
07E0
1870
3838
703C
701E
F01E
F01E
F01E
F01E
F01E
F01C
781C
3838
1C30
0FC0
ENDCHAR
STARTCHAR 0232
ENCODING 562
SWIDTH 625 0
DWIDTH 20 0
BBX 19 25 0 0
BITMAP
0FFF80
0FFF00
1FFF00
000000
000000
FC07E0
3C03C0
1E0380
0F0300
0F0700
078600
038E00
03CC00
01DC00
01F800
00F800
00F000
00F000
00F000
00F000
00F000
00F000
00F000
01F800
03FC00
ENDCHAR
STARTCHAR 0233
ENCODING 563
SWIDTH 500 0
DWIDTH 16 0
BBX 17 29 -1 -8
BITMAP
0FFF00
1FFF00
1FFF00
000000
000000
000000
7F0F80
3E0700
1E0600
1E0600
0F0E00
0F0C00
078C00
079800
079800
03F800
03F000
01F000
01F000
01E000
00E000
00C000
00C000
01C000
018000
278000
7F0000
FE0000
780000
ENDCHAR
STARTCHAR 0237
ENCODING 567
SWIDTH 281 0
DWIDTH 9 0
BBX 11 23 -4 -8
BITMAP
00E0
07E0
03E0
01E0
01E0
01E0
01E0
01E0
01E0
01E0
01E0
01E0
01E0
01E0
01E0
01E0
01E0
01C0
01C0
6380
FF00
FE00
7800
ENDCHAR
STARTCHAR 023D
ENCODING 573
SWIDTH 500 0
DWIDTH 16 0
BBX 15 20 1 0
BITMAP
FF00
7E00
3C00
3C00
3C00
3C00
3C00
3C00
3C00
3C00
FFE0
3C00
3C00
3C00
3C00
3C00
3C02
3C06
7C0E
FFFE
ENDCHAR
STARTCHAR 0241
ENCODING 577
SWIDTH 500 0
DWIDTH 16 0
BBX 14 20 1 0
BITMAP
1FE0
7878
F038
F03C
F03C
E03C
003C
0078
00F0
01E0
03C0
0780
0780
0780
0780
0780
0780
0780
0FC0
1FE0
ENDCHAR
STARTCHAR 0242
ENCODING 578
SWIDTH 437 0
DWIDTH 14 0
BBX 12 15 1 0
BITMAP
3FC0
71E0
F0F0
F0F0
C0F0
01F0
03E0
0780
0700
0F00
0F00
0F00
0F00
1F80
7FE0
ENDCHAR
STARTCHAR 0244
ENCODING 580
SWIDTH 687 0
DWIDTH 22 0
BBX 20 20 1 0
BITMAP
FF03F0
7E01E0
3C00C0
3C00C0
3C00C0
3C00C0
3C00C0
3C00C0
3C00C0
FFFFF0
3C00C0
3C00C0
3C00C0
3C00C0
3C00C0
3E0180
1E0180
0F0300
07FE00
01F800
ENDCHAR
STARTCHAR 0245
ENCODING 581
SWIDTH 656 0
DWIDTH 21 0
BBX 21 20 0 0
BITMAP
003000
007000
00F800
00F800
01F800
01BC00
01BC00
039E00
031E00
031E00
070F00
060F00
060780
0E0780
0C0780
1C03C0
1803C0
1801E0
3803E0
FE07F8
ENDCHAR
STARTCHAR 024A
ENCODING 586
SWIDTH 656 0
DWIDTH 21 0
BBX 24 28 1 -8
BITMAP
01F080
07FDC0
0E1F80
1C0780
380780
780780
700780
F00780
F00780
F00780
F00780
F00780
F00780
F80780
780780
7C0F80
7E3F80
3FFF80
1FE780
078780
000780
000780
000780
000780
00078F
00078F
00038E
0001F8
ENDCHAR
STARTCHAR 024B
ENCODING 587
SWIDTH 562 0
DWIDTH 18 0
BBX 22 23 1 -8
BITMAP
03C200
0C3600
381E00
701E00
701E00
F01E00
F01E00
F01E00
F01E00
F81E00
F81E00
7C7E00
7FFE00
3FDE00
0F1E00
001E00
001E00
001E00
001E00
001E3C
001E3C
000F38
0007F0
ENDCHAR
STARTCHAR 0251
ENCODING 593
SWIDTH 531 0
DWIDTH 17 0
BBX 15 15 1 0
BITMAP
0788
18D8
3878
7078
7078
F078
F078
F078
F078
F078
F878
7CF8
7FFE
3F7C
1E30
ENDCHAR
STARTCHAR 0253
ENCODING 595
SWIDTH 531 0
DWIDTH 17 0
BBX 14 24 2 0
BITMAP
03C0
0FF0
3CF8
3860
7800
7000
F000
F000
F000
F1E0
F7F0
FFF8
F8F8
F07C
F03C
F03C
F03C
F03C
F038
F078
F870
FFE0
7FC0
1F00
ENDCHAR
STARTCHAR 0254
ENCODING 596
SWIDTH 468 0
DWIDTH 15 0
BBX 13 15 1 0
BITMAP
0F80
3FC0
7FE0
E1F0
80F8
00F8
0078
0078
0878
7878
F070
F070
F0E0
F8C0
3F00
ENDCHAR
STARTCHAR 0256
ENCODING 598
SWIDTH 562 0
DWIDTH 18 0
BBX 22 32 1 -8
BITMAP
000E00
007E00
001E00
001E00
001E00
001E00
001E00
001E00
001E00
07FE00
1C3E00
381E00
701E00
701E00
F01E00
F01E00
F01E00
F01E00
F81E00
F81E00
7C7E00
7FFE00
3FDE00
0F1E00
001E00
001E00
001E00
001E00
001E3C
001E3C
000E38
0007F0
ENDCHAR
STARTCHAR 0257
ENCODING 599
SWIDTH 562 0
DWIDTH 18 0
BBX 21 24 1 0
BITMAP
0001E0
0007F0
000E78
001C60
003C00
003C00
003C00
003C00
003C00
07FC00
187C00
383C00
703C00
703C00
F03C00
F03C00
F03C00
F03C00
F83C00
F83C00
7C7C00
7FFF00
3FBE00
1E1800
ENDCHAR
STARTCHAR 0259
ENCODING 601
SWIDTH 500 0
DWIDTH 16 0
BBX 14 15 1 0
BITMAP
0FC0
1FF0
7FF8
E0F8
807C
007C
003C
003C
3FFC
F03C
F038
F038
7070
7860
1F80
ENDCHAR
STARTCHAR 025B
ENCODING 603
SWIDTH 437 0
DWIDTH 14 0
BBX 13 15 1 0
BITMAP
0FF0
38F0
3060
7020
7800
7E00
3F00
1C00
3000
7000
F010
F878
FFE0
7FC0
1F00
ENDCHAR
STARTCHAR 0263
ENCODING 611
SWIDTH 500 0
DWIDTH 16 0
BBX 16 23 0 -8
BITMAP
FE1F
7C0E
3C0C
3C0C
1E18
1E38
0F30
0F70
07E0
07E0
03C0
03C0
01E0
03E0
03F0
07F0
06F8
0E78
0C78
0C78
0C70
07F0
03C0
ENDCHAR
STARTCHAR 0268
ENCODING 616
SWIDTH 312 0
DWIDTH 10 0
BBX 10 21 0 0
BITMAP
0E00
1F00
1F00
0E00
0000
0000
0E00
7E00
3E00
1E00
1E00
1E00
1E00
7FC0
9E00
1E00
1E00
1E00
1E00
3F00
7F80
ENDCHAR
STARTCHAR 0269
ENCODING 617
SWIDTH 312 0
DWIDTH 10 0
BBX 10 15 1 0
BITMAP
1C00
FC00
7C00
3C00
3C00
3C00
3C00
3C00
3C00
3C00
3C00
3C40
3FC0
3F00
1E00
ENDCHAR
STARTCHAR 026B
ENCODING 619
SWIDTH 375 0
DWIDTH 12 0
BBX 12 24 0 0
BITMAP
0300
3F00
1F00
0F00
0F00
0F00
0F00
0F00
0F00
3F10
7F30
7FE0
CFE0
8F80
0F00
0F00
0F00
0F00
0F00
0F00
0F00
0F00
1F80
3FC0
ENDCHAR
STARTCHAR 0272
ENCODING 626
SWIDTH 593 0
DWIDTH 19 0
BBX 23 23 -4 -8
BITMAP
00E1E0
07E7F0
03EFF8
01F8F8
01F078
01E078
01E078
01E078
01E078
01E078
01E078
01E078
01E078
01E0FC
01E1FE
01E000
01E000
01C000
01C000
638000
FF0000
FE0000
780000
ENDCHAR
STARTCHAR 0275
ENCODING 629
SWIDTH 531 0
DWIDTH 17 0
BBX 15 15 1 0
BITMAP
07E0
1C70
3838
703C
701E
F01E
F01E
FFFE
F01E
F01E
F01C
781C
3838
1C30
0FC0
ENDCHAR
STARTCHAR 0283
ENCODING 643
SWIDTH 312 0
DWIDTH 10 0
BBX 17 32 -4 -8
BITMAP
001F00
007F80
00E700
01C200
01C000
03C000
03C000
03C000
03C000
03C000
03C000
03C000
03E000
01E000
01E000
01E000
01E000
01E000
01F000
00F000
00F000
00F000
00F000
00F000
00F000
00F000
00E000
20E000
31C000
7F8000
FF0000
3C0000
ENDCHAR
STARTCHAR 0289
ENCODING 649
SWIDTH 562 0
DWIDTH 18 0
BBX 17 15 0 0
BITMAP
1C0E00
FC7E00
3C1E00
3C1E00
3C1E00
3C1E00
3C1E00
FFFF80
3C1E00
3C1E00
3C1E00
3E7E00
3FFF80
1FDF00
0F0C00
ENDCHAR
STARTCHAR 028A
ENCODING 650
SWIDTH 500 0
DWIDTH 16 0
BBX 14 15 1 0
BITMAP
FCFC
7CF8
1DE0
3870
7878
7038
F03C
F03C
F03C
F03C
F03C
7038
7870
3C60
0FC0
ENDCHAR
STARTCHAR 028C
ENCODING 652
SWIDTH 500 0
DWIDTH 16 0
BBX 16 15 0 0
BITMAP
0080
03C0
03C0
03E0
07E0
06E0
0EF0
0CF0
0C78
1878
183C
383C
303C
701E
F87F
ENDCHAR
STARTCHAR 0292
ENCODING 658
SWIDTH 468 0
DWIDTH 15 0
BBX 14 23 1 -8
BITMAP
7FF8
60FC
40F0
41F0
03E0
03C0
07C0
0F80
0F00
1E00
3FC0
20F0
0078
007C
003C
003C
003C
003C
2038
F078
F870
7FE0
1F80
ENDCHAR
STARTCHAR 0294
ENCODING 660
SWIDTH 500 0
DWIDTH 16 0
BBX 14 23 1 0
BITMAP
0FE0
38F8
7078
F03C
F03C
E03C
003C
0078
0078
00F0
01E0
03C0
0380
0780
0780
0780
0780
0780
0780
0780
0780
0FC0
3FF0
ENDCHAR
STARTCHAR 02A0
ENCODING 672
SWIDTH 562 0
DWIDTH 18 0
BBX 22 32 1 -8
BITMAP
0000F0
0003F8
00073C
000E30
001E20
001E00
001E00
001E00
001E00
03FE00
0C3E00
381E00
701E00
701E00
F01E00
F01E00
F01E00
F01E00
F81E00
F81E00
7C7E00
7FFE00
3FDE00
0F1E00
001E00
001E00
001E00
001E00
001E00
001E00
003F00
00FF80
ENDCHAR
STARTCHAR 02BC
ENCODING 700
SWIDTH 250 0
DWIDTH 8 0
BBX 6 9 1 15
BITMAP
08
78
FC
3C
1C
1C
18
30
20
ENDCHAR
STARTCHAR 02C0
ENCODING 704
SWIDTH 312 0
DWIDTH 10 0
BBX 8 11 1 13
BITMAP
3E
67
C3
C3
03
06
0C
18
18
18
18
ENDCHAR
STARTCHAR 02C6
ENCODING 710
SWIDTH 343 0
DWIDTH 11 0
BBX 11 7 0 16
BITMAP
0E00
0F00
1F80
3F80
71C0
60E0
C060
ENDCHAR
STARTCHAR 02C7
ENCODING 711
SWIDTH 343 0
DWIDTH 11 0
BBX 11 7 0 17
BITMAP
4060
E0E0
79C0
3F80
1F80
0F00
0E00
ENDCHAR
STARTCHAR 02C9
ENCODING 713
SWIDTH 500 0
DWIDTH 16 0
BBX 14 3 1 18
BITMAP
7FF8
7FFC
FFF8
ENDCHAR
STARTCHAR 02CA
ENCODING 714
SWIDTH 218 0
DWIDTH 7 0
BBX 7 8 0 16
BITMAP
1C
1E
3C
3C
78
70
E0
C0
ENDCHAR
STARTCHAR 02CB
ENCODING 715
SWIDTH 218 0
DWIDTH 7 0
BBX 7 8 0 16
BITMAP
70
F8
78
3C
1C
0C
06
06
ENDCHAR
STARTCHAR 02CD
ENCODING 717
SWIDTH 500 0
DWIDTH 16 0
BBX 14 3 1 -3
BITMAP
7FF8
7FFC
FFF8
ENDCHAR
STARTCHAR 02D7
ENCODING 727
SWIDTH 343 0
DWIDTH 11 0
BBX 10 2 1 7
BITMAP
FFC0
FF80
ENDCHAR
STARTCHAR 02D8
ENCODING 728
SWIDTH 343 0
DWIDTH 11 0
BBX 11 5 0 17
BITMAP
4020
E0E0
7FC0
3F80
1F00
ENDCHAR
STARTCHAR 02D9
ENCODING 729
SWIDTH 187 0
DWIDTH 6 0
BBX 4 5 1 17
BITMAP
70
F0
F0
F0
E0
ENDCHAR
STARTCHAR 02DA
ENCODING 730
SWIDTH 250 0
DWIDTH 8 0
BBX 6 5 1 17
BITMAP
38
CC
CC
CC
70
ENDCHAR
STARTCHAR 02DB
ENCODING 731
SWIDTH 250 0
DWIDTH 8 0
BBX 8 8 1 -7
BITMAP
0E
1C
38
70
F0
F1
FE
78
ENDCHAR
STARTCHAR 02DC
ENCODING 732
SWIDTH 406 0
DWIDTH 13 0
BBX 13 5 0 17
BITMAP
1C18
3F30
7FF0
47E0
C1C0
ENDCHAR
STARTCHAR 02DD
ENCODING 733
SWIDTH 375 0
DWIDTH 12 0
BBX 10 8 1 16
BITMAP
39C0
39C0
7BC0
7380
6300
E700
C600
8400
ENDCHAR
STARTCHAR 0300
ENCODING 768
SWIDTH 0 0
DWIDTH 0 0
BBX 8 8 -12 16
BITMAP
38
F8
78
3C
1C
0E
06
03
ENDCHAR
STARTCHAR 0301
ENCODING 769
SWIDTH 0 0
DWIDTH 0 0
BBX 8 8 -11 16
BITMAP
1C
1F
3E
3C
78
70
60
C0
ENDCHAR
STARTCHAR 0302
ENCODING 770
SWIDTH 0 0
DWIDTH 0 0
BBX 10 7 -13 16
BITMAP
0C00
1E00
3F00
7F80
7380
C1C0
8040
ENDCHAR
STARTCHAR 0303
ENCODING 771
SWIDTH 0 0
DWIDTH 0 0
BBX 13 5 -15 17
BITMAP
1C18
3F30
7FF0
63E0
C1C0
ENDCHAR
STARTCHAR 0304
ENCODING 772
SWIDTH 0 0
DWIDTH 0 0
BBX 14 3 -15 18
BITMAP
7FFC
7FF8
FFF8
ENDCHAR
STARTCHAR 0306
ENCODING 774
SWIDTH 0 0
DWIDTH 0 0
BBX 12 5 -14 17
BITMAP
4020
F0F0
7FE0
3FC0
0F00
ENDCHAR
STARTCHAR 0307
ENCODING 775
SWIDTH 0 0
DWIDTH 0 0
BBX 4 5 -10 17
BITMAP
70
F0
F0
F0
E0
ENDCHAR
STARTCHAR 0308
ENCODING 776
SWIDTH 0 0
DWIDTH 0 0
BBX 11 5 -14 17
BITMAP
70E0
F1E0
F1E0
F1E0
E1C0
ENDCHAR
STARTCHAR 0309
ENCODING 777
SWIDTH 0 0
DWIDTH 0 0
BBX 6 6 -11 17
BITMAP
38
6C
CC
18
30
38
ENDCHAR
STARTCHAR 030A
ENCODING 778
SWIDTH 0 0
DWIDTH 0 0
BBX 6 5 -11 17
BITMAP
38
CC
CC
CC
70
ENDCHAR
STARTCHAR 030B
ENCODING 779
SWIDTH 0 0
DWIDTH 0 0
BBX 11 8 -12 16
BITMAP
18C0
3DE0
39C0
39C0
7380
6300
6300
C600
ENDCHAR
STARTCHAR 030C
ENCODING 780
SWIDTH 0 0
DWIDTH 0 0
BBX 10 7 -13 17
BITMAP
8040
E1C0
7380
7F80
3F00
1E00
0C00
ENDCHAR
STARTCHAR 031B
ENCODING 795
SWIDTH 62 0
DWIDTH 2 0
BBX 7 7 -5 11
BITMAP
04
3E
1E
1C
38
70
C0
ENDCHAR
STARTCHAR 0323
ENCODING 803
SWIDTH 0 0
DWIDTH 0 0
BBX 4 5 -10 -7
BITMAP
70
F0
F0
F0
E0
ENDCHAR
STARTCHAR 0327
ENCODING 807
SWIDTH 0 0
DWIDTH 0 0
BBX 7 7 -12 -7
BITMAP
18
30
3C
3E
1E
3C
F0
ENDCHAR
STARTCHAR 0328
ENCODING 808
SWIDTH 0 0
DWIDTH 0 0
BBX 8 8 -12 -7
BITMAP
0E
1C
38
70
F0
F1
FE
78
ENDCHAR
STARTCHAR 0331
ENCODING 817
SWIDTH 0 0
DWIDTH 0 0
BBX 14 3 -15 -5
BITMAP
7FFC
7FF8
FFF8
ENDCHAR
STARTCHAR 033F
ENCODING 831
SWIDTH 0 0
DWIDTH 0 0
BBX 17 6 -16 19
BITMAP
FFFF80
FFFF80
000000
000000
FFFF80
FFFF80
ENDCHAR
STARTCHAR 035E
ENCODING 862
SWIDTH 0 0
DWIDTH 0 0
BBX 22 3 -11 25
BITMAP
FFFFFC
FFFFFC
FFFFFC
ENDCHAR
STARTCHAR 035F
ENCODING 863
SWIDTH 0 0
DWIDTH 0 0
BBX 22 3 -11 -12
BITMAP
FFFFFC
FFFFFC
FFFFFC
ENDCHAR
STARTCHAR 03A0
ENCODING 928
SWIDTH 656 0
DWIDTH 21 0
BBX 19 20 1 0
BITMAP
FFFFE0
7C07C0
3C0780
3C0780
3C0780
3C0780
3C0780
3C0780
3C0780
3C0780
3C0780
3C0780
3C0780
3C0780
3C0780
3C0780
3C0780
3C0780
7E0FC0
FF1FE0
ENDCHAR
STARTCHAR 03A9
ENCODING 937
SWIDTH 687 0
DWIDTH 22 0
BBX 20 20 1 0
BITMAP
01FC00
070F00
0E0780
1C03C0
3C01C0
3801E0
7801E0
7801E0
7801E0
7801E0
7801C0
3C03C0
3C0380
1E0780
4E0720
470E30
639C60
7F9FE0
FF9FE0
7F9FE0
ENDCHAR
STARTCHAR 03C0
ENCODING 960
SWIDTH 531 0
DWIDTH 17 0
BBX 17 15 0 0
BITMAP
3FFF00
7FFF80
7FFE00
FFFC00
8C1000
0C3000
0C3000
0C3000
1C3000
1C3000
1C3000
1C3900
3C3F00
3C3E00
601C00
ENDCHAR
STARTCHAR 1E02
ENCODING 7682
SWIDTH 593 0
DWIDTH 19 0
BBX 17 26 1 0
BITMAP
01C000
03C000
03C000
03C000
018000
000000
3FE000
FC7800
3C3C00
3C1E00
3C1E00
3C1E00
3C1E00
3C3C00
3C7800
3FF800
3C1E00
3C0F00
3C0F00
3C0780
3C0780
3C0780
3C0780
3C0F00
7C1E00
FFF800
ENDCHAR
STARTCHAR 1E03
ENCODING 7683
SWIDTH 531 0
DWIDTH 17 0
BBX 16 24 0 0
BITMAP
1C00
FC00
3C38
3C78
3C78
3C78
3C70
3C00
3C00
3C78
3DFC
3FFE
3F1E
3C0F
3C07
3C07
3C07
3C07
3C06
3C0E
3E1C
3FF8
1FF0
07C0
ENDCHAR
STARTCHAR 1E04
ENCODING 7684
SWIDTH 593 0
DWIDTH 19 0
BBX 17 27 1 -7
BITMAP
3FE000
FC7800
3C3C00
3C1E00
3C1E00
3C1E00
3C1E00
3C3C00
3C7800
3FF800
3C1E00
3C0F00
3C0F00
3C0780
3C0780
3C0780
3C0780
3C0F00
7C1E00
FFF800
000000
000000
01C000
03C000
03C000
03C000
018000
ENDCHAR
STARTCHAR 1E05
ENCODING 7685
SWIDTH 531 0
DWIDTH 17 0
BBX 16 31 0 -7
BITMAP
0C00
FC00
7C00
3C00
3C00
3C00
3C00
3C00
3C00
3C78
3DFC
3FFE
3F1E
3C0F
3C07
3C07
3C07
3C07
3C06
3C0E
3E1C
3FF8
1FF0
07C0
0000
0000
01C0
03C0
03C0
03C0
0180
ENDCHAR
STARTCHAR 1E06
ENCODING 7686
SWIDTH 593 0
DWIDTH 19 0
BBX 17 25 1 -5
BITMAP
3FE000
FC7800
3C3C00
3C1E00
3C1E00
3C1E00
3C1E00
3C3C00
3C7800
3FF800
3C1E00
3C0F00
3C0F00
3C0780
3C0780
3C0780
3C0780
3C0F00
7C1E00
FFF800
000000
000000
3FFE00
3FFC00
7FFC00
ENDCHAR
STARTCHAR 1E07
ENCODING 7687
SWIDTH 531 0
DWIDTH 17 0
BBX 16 29 0 -5
BITMAP
0C00
FC00
7C00
3C00
3C00
3C00
3C00
3C00
3C00
3C78
3DFC
3FFE
3F1E
3C0F
3C07
3C07
3C07
3C07
3C06
3C0E
3E1C
3FF8
1FF0
07C0
0000
0000
3FFE
3FFC
7FFC
ENDCHAR
STARTCHAR 1E08
ENCODING 7688
SWIDTH 562 0
DWIDTH 18 0
BBX 16 35 1 -7
BITMAP
0018
003C
007E
00F8
01E0
0380
0000
0000
01FE
061F
1C0E
3804
3800
7000
7000
F000
F000
F000
F000
F000
F000
F800
7800
7C01
7E07
3FFE
1FFC
0FF0
00C0
01C0
01F0
00F0
00F0
01E0
0380
ENDCHAR
STARTCHAR 1E09
ENCODING 7689
SWIDTH 468 0
DWIDTH 15 0
BBX 14 31 1 -7
BITMAP
00E0
01F0
01E0
03C0
0380
0700
0600
0000
0000
03F8
0C78
3830
7010
7000
F000
F000
F000
F000
F000
F808
7C1C
3FF8
1FF0
0FC0
0300
03C0
03E0
05E0
01E0
03C0
0E00
ENDCHAR
STARTCHAR 1E0A
ENCODING 7690
SWIDTH 625 0
DWIDTH 20 0
BBX 18 26 1 0
BITMAP
01C000
01C000
03C000
03C000
018000
000000
3FF000
FC3C00
3C0E00
3C0F00
3C0780
3C0780
3C03C0
3C03C0
3C03C0
3C03C0
3C03C0
3C03C0
3C03C0
3C0380
3C0780
3C0780
3C0F00
3C0E00
7C1C00
FFF000
ENDCHAR
STARTCHAR 1E0B
ENCODING 7691
SWIDTH 562 0
DWIDTH 18 0
BBX 16 24 1 0
BITMAP
001C
00FC
1C3C
1C3C
3C3C
3C3C
183C
003C
003C
07FC
187C
383C
703C
703C
F03C
F03C
F03C
F03C
F83C
F83C
7C7C
7FFF
3FBE
1E18
ENDCHAR
STARTCHAR 1E0C
ENCODING 7692
SWIDTH 625 0
DWIDTH 20 0
BBX 18 27 1 -7
BITMAP
3FF000
FC3C00
3C0E00
3C0F00
3C0780
3C0780
3C03C0
3C03C0
3C03C0
3C03C0
3C03C0
3C03C0
3C03C0
3C0380
3C0780
3C0780
3C0F00
3C0E00
7C1C00
FFF000
000000
000000
01C000
01C000
03C000
03C000
018000
ENDCHAR
STARTCHAR 1E0D
ENCODING 7693
SWIDTH 562 0
DWIDTH 18 0
BBX 16 31 1 -7
BITMAP
001C
00FC
003C
003C
003C
003C
003C
003C
003C
07FC
187C
383C
703C
703C
F03C
F03C
F03C
F03C
F83C
F83C
7C7C
7FFF
3FBE
1E18
0000
0000
0180
03C0
03C0
0380
0380
ENDCHAR
STARTCHAR 1E0E
ENCODING 7694
SWIDTH 625 0
DWIDTH 20 0
BBX 18 25 1 -5
BITMAP
3FF000
FC3C00
3C0E00
3C0F00
3C0780
3C0780
3C03C0
3C03C0
3C03C0
3C03C0
3C03C0
3C03C0
3C03C0
3C0380
3C0780
3C0780
3C0F00
3C0E00
7C1C00
FFF000
000000
000000
3FFE00
3FFE00
3FFC00
ENDCHAR
STARTCHAR 1E0F
ENCODING 7695
SWIDTH 562 0
DWIDTH 18 0
BBX 16 29 1 -5
BITMAP
001C
00FC
003C
003C
003C
003C
003C
003C
003C
07FC
187C
383C
703C
703C
F03C
F03C
F03C
F03C
F83C
F83C
7C7C
7FFF
3FBE
1E18
0000
0000
3FFC
7FFC
7FFC
ENDCHAR
STARTCHAR 1E14
ENCODING 7700
SWIDTH 531 0
DWIDTH 17 0
BBX 15 33 1 0
BITMAP
0800
1C00
3E00
1F00
0780
01C0
0040
0000
3FFC
7FFC
7FFC
0000
0000
FFFC
7C0C
3C0C
3C0C
3C0C
3C00
3C00
3C00
3C00
3FF0
3C20
3C00
3C00
3C00
3C00
3C00
3C02
3C06
7C0E
FFFE
ENDCHAR
STARTCHAR 1E15
ENCODING 7701
SWIDTH 468 0
DWIDTH 15 0
BBX 14 30 1 0
BITMAP
0200
1E00
1E00
0F00
0700
0380
0180
00C0
0000
3FFC
7FFC
7FFC
0000
0000
0000
07C0
18E0
3870
7078
7078
F078
FFF0
F000
F000
F000
F808
7C38
7FF0
3FE0
0F80
ENDCHAR
STARTCHAR 1E16
ENCODING 7702
SWIDTH 531 0
DWIDTH 17 0
BBX 15 33 1 0
BITMAP
0060
00F0
01F8
01F0
03C0
0700
0C00
0000
3FFC
7FFC
7FFC
0000
0000
FFFC
7C0C
3C0C
3C0C
3C0C
3C00
3C00
3C00
3C00
3FF0
3C20
3C00
3C00
3C00
3C00
3C00
3C02
3C06
7C0E
FFFE
ENDCHAR
STARTCHAR 1E17
ENCODING 7703
SWIDTH 468 0
DWIDTH 15 0
BBX 14 30 1 0
BITMAP
0080
00F0
01F0
01E0
03C0
0380
0300
0600
0000
3FFC
7FFC
7FFC
0000
0000
0000
07C0
18E0
3870
7078
7078
F078
FFF0
F000
F000
F000
F808
7C38
7FF0
3FE0
0F80
ENDCHAR
STARTCHAR 1E1C
ENCODING 7708
SWIDTH 531 0
DWIDTH 17 0
BBX 15 34 1 -7
BITMAP
2010
3838
1FF0
0FE0
07C0
0000
0000
FFFC
7C0C
3C0C
3C0C
3C0C
3C00
3C00
3C00
3C00
3FF0
3C20
3C00
3C00
3C00
3C00
3C00
3C02
3C06
7C0E
FFFE
0300
0300
03C0
07C0
01C0
0380
0E00
ENDCHAR
STARTCHAR 1E1D
ENCODING 7709
SWIDTH 468 0
DWIDTH 15 0
BBX 13 29 1 -7
BITMAP
2010
3838
1FF0
0FE0
07C0
0000
0000
07C0
18E0
3070
7070
7078
FFF8
FFF8
FFF0
F000
F000
F000
7808
7C38
3FE0
0FC0
0300
0380
07C0
03C0
03C0
0780
0E00
ENDCHAR
STARTCHAR 1E1E
ENCODING 7710
SWIDTH 500 0
DWIDTH 16 0
BBX 14 26 1 0
BITMAP
0380
0780
0780
0780
0700
0000
FFFC
7C0C
3C0C
3C0C
3C0C
3C00
3C00
3C00
3C00
3FF0
3C20
3C00
3C00
3C00
3C00
3C00
3C00
3C00
7E00
FF00
ENDCHAR
STARTCHAR 1E1F
ENCODING 7711
SWIDTH 343 0
DWIDTH 11 0
BBX 13 30 1 0
BITMAP
0300
0700
0780
0700
0700
0000
01F0
07F8
0E70
1C20
1C00
3C00
3C00
3C00
3C00
FFC0
3C80
3C00
3C00
3C00
3C00
3C00
3C00
3C00
3C00
3C00
3C00
3C00
7F00
FF80
ENDCHAR
STARTCHAR 1E20
ENCODING 7712
SWIDTH 593 0
DWIDTH 19 0
BBX 18 25 1 0
BITMAP
1FFF00
1FFF00
1FFE00
000000
000000
01FE00
060F00
1C0600
380400
380000
780000
700000
F00000
F00000
F00000
F07FC0
F07FC0
F00F00
F00F00
780F00
780F00
3C0F00
1E0F00
0FFE00
03F000
ENDCHAR
STARTCHAR 1E21
ENCODING 7713
SWIDTH 531 0
DWIDTH 17 0
BBX 16 29 0 -8
BITMAP
3FFE
3FFE
3FFC
0000
0000
0000
07E3
1C7F
387E
783C
783C
783C
783C
3C38
3C70
0FC0
0E00
1C00
1FC0
3FFC
0FFE
1FFF
787F
F00F
F00E
F00E
781C
3FF8
0FC0
ENDCHAR
STARTCHAR 1E22
ENCODING 7714
SWIDTH 687 0
DWIDTH 22 0
BBX 20 26 1 0
BITMAP
006000
00F000
00F000
00F000
00E000
000000
FF0FF0
7E07E0
3C03C0
3C03C0
3C03C0
3C03C0
3C03C0
3C03C0
3C03C0
3FFFC0
3C03C0
3C03C0
3C03C0
3C03C0
3C03C0
3C03C0
3C03C0
3C03C0
7E07E0
FF0FF0
ENDCHAR
STARTCHAR 1E23
ENCODING 7715
SWIDTH 593 0
DWIDTH 19 0
BBX 17 30 1 0
BITMAP
00C000
01C000
01E000
01C000
01C000
000000
0C0000
FC0000
7C0000
3C0000
3C0000
3C0000
3C0000
3C0000
3C0000
3C7800
3DFC00
3FFE00
3F1E00
3E1E00
3C1E00
3C1E00
3C1E00
3C1E00
3C1E00
3C1E00
3C1E00
3C1E00
7E3F00
FF7F80
ENDCHAR
STARTCHAR 1E24
ENCODING 7716
SWIDTH 687 0
DWIDTH 22 0
BBX 20 27 1 -7
BITMAP
FF0FF0
7E07E0
3C03C0
3C03C0
3C03C0
3C03C0
3C03C0
3C03C0
3C03C0
3FFFC0
3C03C0
3C03C0
3C03C0
3C03C0
3C03C0
3C03C0
3C03C0
3C03C0
7E07E0
FF0FF0
000000
000000
006000
00F000
00F000
00F000
00E000
ENDCHAR
STARTCHAR 1E25
ENCODING 7717
SWIDTH 593 0
DWIDTH 19 0
BBX 17 31 1 -7
BITMAP
0C0000
FC0000
7C0000
3C0000
3C0000
3C0000
3C0000
3C0000
3C0000
3C7800
3DFC00
3FFE00
3F1E00
3E1E00
3C1E00
3C1E00
3C1E00
3C1E00
3C1E00
3C1E00
3C1E00
3C1E00
7E3F00
FF7F80
000000
000000
00C000
01C000
01E000
01C000
01C000
ENDCHAR
STARTCHAR 1E26
ENCODING 7718
SWIDTH 687 0
DWIDTH 22 0
BBX 20 26 1 0
BITMAP
060C00
0F1E00
0F1E00
0F1E00
0E1C00
000000
FF0FF0
7E07E0
3C03C0
3C03C0
3C03C0
3C03C0
3C03C0
3C03C0
3C03C0
3FFFC0
3C03C0
3C03C0
3C03C0
3C03C0
3C03C0
3C03C0
3C03C0
3C03C0
7E07E0
FF0FF0
ENDCHAR
STARTCHAR 1E27
ENCODING 7719
SWIDTH 593 0
DWIDTH 19 0
BBX 17 30 1 0
BITMAP
0C1800
1C3800
1E3C00
1C3800
1C3800
000000
0C0000
FC0000
7C0000
3C0000
3C0000
3C0000
3C0000
3C0000
3C0000
3C7800
3DFC00
3FFE00
3F1E00
3E1E00
3C1E00
3C1E00
3C1E00
3C1E00
3C1E00
3C1E00
3C1E00
3C1E00
7E3F00
FF7F80
ENDCHAR
STARTCHAR 1E2E
ENCODING 7726
SWIDTH 312 0
DWIDTH 10 0
BBX 12 33 -1 0
BITMAP
00C0
01E0
03F0
07C0
0F00
1E00
0800
70E0
F1E0
F1E0
F1E0
60C0
0000
3FC0
1F80
0F00
0F00
0F00
0F00
0F00
0F00
0F00
0F00
0F00
0F00
0F00
0F00
0F00
0F00
0F00
0F00
1F80
3FC0
ENDCHAR
STARTCHAR 1E2F
ENCODING 7727
SWIDTH 312 0
DWIDTH 10 0
BBX 11 30 -1 0
BITMAP
0180
03E0
03C0
0780
0700
0700
0E00
0C00
70E0
F1E0
F1E0
F1E0
E1C0
0000
0000
0700
3F00
1F00
0F00
0F00
0F00
0F00
0F00
0F00
0F00
0F00
0F00
0F00
1F80
3FC0
ENDCHAR
STARTCHAR 1E30
ENCODING 7728
SWIDTH 625 0
DWIDTH 20 0
BBX 19 28 1 0
BITMAP
001000
003C00
007C00
00F800
01E000
038000
030000
000000
FF1FC0
7E0F00
3C0E00
3C1C00
3C3800
3C7000
3CE000
3CE000
3DC000
3F8000
3FC000
3DE000
3CF000
3C7800
3C3C00
3C3E00
3C1F00
3C0F80
7E07E0
FF0380
ENDCHAR
STARTCHAR 1E31
ENCODING 7729
SWIDTH 562 0
DWIDTH 18 0
BBX 17 32 1 0
BITMAP
002000
007800
00FC00
01F800
01E000
038000
060000
000000
0C0000
FC0000
7C0000
3C0000
3C0000
3C0000
3C0000
3C0000
3C0000
3C3F80
3C1E00
3C3C00
3C7000
3CE000
3DC000
3FC000
3FE000
3DE000
3CF000
3C7800
3C3C00
3C3E00
7E1F80
FF0F00
ENDCHAR
STARTCHAR 1E32
ENCODING 7730
SWIDTH 625 0
DWIDTH 20 0
BBX 19 27 1 -7
BITMAP
FF1FC0
7E0F00
3C0E00
3C1C00
3C3800
3C7000
3CE000
3CE000
3DC000
3F8000
3FC000
3DE000
3CF000
3C7800
3C3C00
3C3E00
3C1F00
3C0F80
7E07E0
FF0380
000000
000000
00E000
00E000
01E000
01E000
00C000
ENDCHAR
STARTCHAR 1E33
ENCODING 7731
SWIDTH 562 0
DWIDTH 18 0
BBX 17 31 1 -7
BITMAP
0C0000
FC0000
7C0000
3C0000
3C0000
3C0000
3C0000
3C0000
3C0000
3C3F80
3C1E00
3C3C00
3C7000
3CE000
3DC000
3FC000
3FE000
3DE000
3CF000
3C7800
3C3C00
3C3E00
7E1F80
FF0F00
000000
000000
01C000
01C000
03C000
03C000
018000
ENDCHAR
STARTCHAR 1E34
ENCODING 7732
SWIDTH 625 0
DWIDTH 20 0
BBX 19 25 1 -5
BITMAP
FF1FC0
7E0F00
3C0E00
3C1C00
3C3800
3C7000
3CE000
3CE000
3DC000
3F8000
3FC000
3DE000
3CF000
3C7800
3C3C00
3C3E00
3C1F00
3C0F80
7E07E0
FF0380
000000
000000
1FFF00
1FFF00
1FFE00
ENDCHAR
STARTCHAR 1E35
ENCODING 7733
SWIDTH 562 0
DWIDTH 18 0
BBX 17 29 1 -5
BITMAP
0C0000
FC0000
7C0000
3C0000
3C0000
3C0000
3C0000
3C0000
3C0000
3C3F80
3C1E00
3C3C00
3C7000
3CE000
3DC000
3FC000
3FE000
3DE000
3CF000
3C7800
3C3C00
3C3E00
7E1F80
FF0F00
000000
000000
3FFE00
3FFE00
3FFC00
ENDCHAR
STARTCHAR 1E36
ENCODING 7734
SWIDTH 500 0
DWIDTH 16 0
BBX 15 27 1 -7
BITMAP
FF00
7E00
3C00
3C00
3C00
3C00
3C00
3C00
3C00
3C00
3C00
3C00
3C00
3C00
3C00
3C00
3C02
3C06
7C0E
FFFE
0000
0000
0380
0380
0780
0780
0300
ENDCHAR
STARTCHAR 1E37
ENCODING 7735
SWIDTH 312 0
DWIDTH 10 0
BBX 8 31 1 -7
BITMAP
0C
FC
7C
3C
3C
3C
3C
3C
3C
3C
3C
3C
3C
3C
3C
3C
3C
3C
3C
3C
3C
3C
7E
FF
00
00
18
3C
3C
3C
38
ENDCHAR
STARTCHAR 1E38
ENCODING 7736
SWIDTH 500 0
DWIDTH 16 0
BBX 15 32 1 -7
BITMAP
7FFC
7FF8
FFF8
0000
0000
FF00
7E00
3C00
3C00
3C00
3C00
3C00
3C00
3C00
3C00
3C00
3C00
3C00
3C00
3C00
3C00
3C02
3C06
7C0E
FFFE
0000
0000
0380
0380
0780
0780
0300
ENDCHAR
STARTCHAR 1E39
ENCODING 7737
SWIDTH 312 0
DWIDTH 10 0
BBX 14 37 -2 -7
BITMAP
7FFC
7FF8
FFF8
0000
0000
0000
0180
1F80
0F80
0780
0780
0780
0780
0780
0780
0780
0780
0780
0780
0780
0780
0780
0780
0780
0780
0780
0780
0780
0FC0
1FE0
0000
0000
0300
0780
0780
0780
0700
ENDCHAR
STARTCHAR 1E3A
ENCODING 7738
SWIDTH 500 0
DWIDTH 16 0
BBX 15 25 1 -5
BITMAP
FF00
7E00
3C00
3C00
3C00
3C00
3C00
3C00
3C00
3C00
3C00
3C00
3C00
3C00
3C00
3C00
3C02
3C06
7C0E
FFFE
0000
0000
7FFC
7FFC
7FF8
ENDCHAR
STARTCHAR 1E3B
ENCODING 7739
SWIDTH 312 0
DWIDTH 10 0
BBX 14 29 -2 -5
BITMAP
0180
1F80
0F80
0780
0780
0780
0780
0780
0780
0780
0780
0780
0780
0780
0780
0780
0780
0780
0780
0780
0780
0780
0FC0
1FE0
0000
0000
7FFC
7FF8
FFF8
ENDCHAR
STARTCHAR 1E3E
ENCODING 7742
SWIDTH 843 0
DWIDTH 27 0
BBX 25 28 1 0
BITMAP
00030000
00078000
000FC000
000F8000
001E0000
00380000
00600000
00000000
FC001F80
3E003E00
3E003E00
3E007E00
3F007E00
3700FE00
3780DE00
3781DE00
33C19E00
33C39E00
31C39E00
31E31E00
30E71E00
30F61E00
30FE1E00
307C1E00
307C1E00
30381E00
78383F00
FC187F80
ENDCHAR
STARTCHAR 1E3F
ENCODING 7743
SWIDTH 843 0
DWIDTH 27 0
BBX 26 24 1 0
BITMAP
00078000
0007C000
00078000
000F0000
000E0000
001C0000
00180000
00300000
00000000
1C783C00
FCFCFE00
7FFFFF00
3F1F8F00
3C1E0F00
3C1E0F00
3C1E0F00
3C1E0F00
3C1E0F00
3C1E0F00
3C1E0F00
3C1E0F00
3C1E0F00
7E3F1F80
FF7FBFC0
ENDCHAR
STARTCHAR 1E40
ENCODING 7744
SWIDTH 843 0
DWIDTH 27 0
BBX 25 26 1 0
BITMAP
001C0000
001C0000
003C0000
003C0000
00180000
00000000
FC001F80
3E003E00
3E003E00
3E007E00
3F007E00
3700FE00
3780DE00
3781DE00
33C19E00
33C39E00
31C39E00
31E31E00
30E71E00
30F61E00
30FE1E00
307C1E00
307C1E00
30381E00
78383F00
FC187F80
ENDCHAR
STARTCHAR 1E41
ENCODING 7745
SWIDTH 843 0
DWIDTH 27 0
BBX 26 22 1 0
BITMAP
000C0000
001E0000
001E0000
001C0000
001C0000
00000000
00000000
1C783C00
FCFCFE00
7FFFFF00
3F1F8F00
3C1E0F00
3C1E0F00
3C1E0F00
3C1E0F00
3C1E0F00
3C1E0F00
3C1E0F00
3C1E0F00
3C1E0F00
7E3F1F80
FF7FBFC0
ENDCHAR
STARTCHAR 1E42
ENCODING 7746
SWIDTH 843 0
DWIDTH 27 0
BBX 25 27 1 -7
BITMAP
FC001F80
3E003E00
3E003E00
3E007E00
3F007E00
3700FE00
3780DE00
3781DE00
33C19E00
33C39E00
31C39E00
31E31E00
30E71E00
30F61E00
30FE1E00
307C1E00
307C1E00
30381E00
78383F00
FC187F80
00000000
00000000
001C0000
001C0000
003C0000
003C0000
00180000
ENDCHAR
STARTCHAR 1E43
ENCODING 7747
SWIDTH 843 0
DWIDTH 27 0
BBX 26 22 1 -7
BITMAP
1C783C00
FCFCFE00
7FFFFF00
3F1F8F00
3C1E0F00
3C1E0F00
3C1E0F00
3C1E0F00
3C1E0F00
3C1E0F00
3C1E0F00
3C1E0F00
3C1E0F00
7E3F1F80
FF7FBFC0
00000000
00000000
000C0000
001E0000
001E0000
001C0000
001C0000
ENDCHAR
STARTCHAR 1E44
ENCODING 7748
SWIDTH 656 0
DWIDTH 21 0
BBX 19 26 1 0
BITMAP
006000
00F000
00F000
00E000
00E000
000000
F807E0
7C03C0
3C0180
3E0180
3F0180
3F8180
378180
33C180
33E180
31E180
30F180
30F980
307D80
303D80
301F80
301F80
300F80
300780
780780
FC0180
ENDCHAR
STARTCHAR 1E45
ENCODING 7749
SWIDTH 593 0
DWIDTH 19 0
BBX 17 22 1 0
BITMAP
00C000
01C000
01E000
01C000
01C000
000000
000000
0C3C00
FCFC00
7FFE00
3F1E00
3E1E00
3C1E00
3C1E00
3C1E00
3C1E00
3C1E00
3C1E00
3C1E00
3C1E00
7E3F00
FF7F80
ENDCHAR
STARTCHAR 1E46
ENCODING 7750
SWIDTH 656 0
DWIDTH 21 0
BBX 19 27 1 -7
BITMAP
F807E0
7C03C0
3C0180
3E0180
3F0180
3F8180
378180
33C180
33E180
31E180
30F180
30F980
307D80
303D80
301F80
301F80
300F80
300780
780780
FC0180
000000
000000
006000
00F000
00F000
00E000
00E000
ENDCHAR
STARTCHAR 1E47
ENCODING 7751
SWIDTH 593 0
DWIDTH 19 0
BBX 17 22 1 -7
BITMAP
0C3C00
FCFC00
7FFE00
3F1E00
3E1E00
3C1E00
3C1E00
3C1E00
3C1E00
3C1E00
3C1E00
3C1E00
3C1E00
7E3F00
FF7F80
000000
000000
00C000
01C000
01E000
01C000
01C000
ENDCHAR
STARTCHAR 1E48
ENCODING 7752
SWIDTH 656 0
DWIDTH 21 0
BBX 19 25 1 -5
BITMAP
F807E0
7C03C0
3C0180
3E0180
3F0180
3F8180
378180
33C180
33E180
31E180
30F180
30F980
307D80
303D80
301F80
301F80
300F80
300780
780780
FC0180
000000
000000
0FFF00
1FFF00
1FFF00
ENDCHAR
STARTCHAR 1E49
ENCODING 7753
SWIDTH 593 0
DWIDTH 19 0
BBX 17 20 1 -5
BITMAP
0C3C00
FCFC00
7FFE00
3F1E00
3E1E00
3C1E00
3C1E00
3C1E00
3C1E00
3C1E00
3C1E00
3C1E00
3C1E00
7E3F00
FF7F80
000000
000000
3FFE00
3FFE00
3FFC00
ENDCHAR
STARTCHAR 1E4C
ENCODING 7756
SWIDTH 625 0
DWIDTH 20 0
BBX 18 34 1 0
BITMAP
001000
003800
007C00
007C00
00F000
01C000
038000
000000
03C600
0FFC00
0FFC00
187800
100000
000000
03F000
0C1C00
1C0E00
380700
380780
700780
7003C0
F003C0
F003C0
F003C0
F003C0
F003C0
F003C0
F80380
780780
780700
3C0F00
1E1E00
0FF800
03E000
ENDCHAR
STARTCHAR 1E4D
ENCODING 7757
SWIDTH 531 0
DWIDTH 17 0
BBX 15 30 1 0
BITMAP
0070
00F8
00F0
01E0
01C0
0380
0300
0200
0E0C
1F88
1FF8
31F0
20E0
0000
0000
07E0
1870
3838
703C
701E
F01E
F01E
F01E
F01E
F01E
F01C
781C
3838
1C30
0FC0
ENDCHAR
STARTCHAR 1E4E
ENCODING 7758
SWIDTH 625 0
DWIDTH 20 0
BBX 18 32 1 0
BITMAP
040800
0E1C00
1E3C00
1E3C00
1C3800
000000
03C600
0FFC00
0FFC00
187800
100000
000000
03F000
0C1C00
1C0E00
380700
380780
700780
7003C0
F003C0
F003C0
F003C0
F003C0
F003C0
F003C0
F80380
780780
780700
3C0F00
1E1E00
0FF800
03E000
ENDCHAR
STARTCHAR 1E4F
ENCODING 7759
SWIDTH 531 0
DWIDTH 17 0
BBX 15 28 1 0
BITMAP
1C38
3C78
3C78
3C78
1830
0000
0E0C
1F88
1FF8
31F0
20E0
0000
0000
07E0
1870
3838
703C
701E
F01E
F01E
F01E
F01E
F01E
F01C
781C
3838
1C30
0FC0
ENDCHAR
STARTCHAR 1E50
ENCODING 7760
SWIDTH 625 0
DWIDTH 20 0
BBX 18 33 1 0
BITMAP
020000
0F0000
0F8000
07C000
03E000
00F000
003000
000000
1FFF00
1FFE00
3FFE00
000000
000000
03F000
0C1C00
1C0E00
380700
380780
700780
7003C0
F003C0
F003C0
F003C0
F003C0
F003C0
F003C0
F80380
780780
780700
3C0F00
1E1E00
0FF800
03E000
ENDCHAR
STARTCHAR 1E51
ENCODING 7761
SWIDTH 531 0
DWIDTH 17 0
BBX 15 30 1 0
BITMAP
0200
1E00
1F00
0F00
0780
0380
01C0
00C0
0000
3FFC
3FFE
7FFC
0000
0000
0000
07E0
1870
3838
703C
701E
F01E
F01E
F01E
F01E
F01E
F01C
781C
3838
1C30
0FC0
ENDCHAR
STARTCHAR 1E52
ENCODING 7762
SWIDTH 625 0
DWIDTH 20 0
BBX 18 33 1 0
BITMAP
001000
003C00
007C00
00F800
01E000
03C000
030000
000000
1FFF00
1FFE00
3FFE00
000000
000000
03F000
0C1C00
1C0E00
380700
380780
700780
7003C0
F003C0
F003C0
F003C0
F003C0
F003C0
F003C0
F80380
780780
780700
3C0F00
1E1E00
0FF800
03E000
ENDCHAR
STARTCHAR 1E53
ENCODING 7763
SWIDTH 531 0
DWIDTH 17 0
BBX 15 30 1 0
BITMAP
0040
00F8
00F0
01E0
01C0
0380
0380
0700
0000
3FFC
3FFE
7FFC
0000
0000
0000
07E0
1870
3838
703C
701E
F01E
F01E
F01E
F01E
F01E
F01C
781C
3838
1C30
0FC0
ENDCHAR
STARTCHAR 1E54
ENCODING 7764
SWIDTH 562 0
DWIDTH 18 0
BBX 16 28 1 0
BITMAP
0020
0078
00F8
01F0
03C0
0700
0600
0000
3FF0
FC3C
3C1E
3C0F
3C0F
3C0F
3C0F
3C0F
3C0E
3C1E
3E3C
3DF0
3C00
3C00
3C00
3C00
3C00
3C00
7E00
FF80
ENDCHAR
STARTCHAR 1E55
ENCODING 7765
SWIDTH 562 0
DWIDTH 18 0
BBX 16 32 1 -8
BITMAP
0070
00F8
00F0
01E0
01C0
0380
0300
0600
0000
0C78
FCFC
7FFE
3E3E
3C1F
3C0F
3C0F
3C0F
3C0F
3C0F
3C0E
3E1E
3FFC
3DF8
3CF0
3C00
3C00
3C00
3C00
3C00
3C00
7F00
FF80
ENDCHAR
STARTCHAR 1E56
ENCODING 7766
SWIDTH 562 0
DWIDTH 18 0
BBX 16 26 1 0
BITMAP
0180
03C0
03C0
0380
0380
0000
3FF0
FC3C
3C1E
3C0F
3C0F
3C0F
3C0F
3C0F
3C0E
3C1E
3E3C
3DF0
3C00
3C00
3C00
3C00
3C00
3C00
7E00
FF80
ENDCHAR
STARTCHAR 1E57
ENCODING 7767
SWIDTH 562 0
DWIDTH 18 0
BBX 16 30 1 -8
BITMAP
0180
03C0
03C0
03C0
0380
0000
0000
0C78
FCFC
7FFE
3E3E
3C1F
3C0F
3C0F
3C0F
3C0F
3C0F
3C0E
3E1E
3FFC
3DF8
3CF0
3C00
3C00
3C00
3C00
3C00
3C00
7F00
FF80
ENDCHAR
STARTCHAR 1E58
ENCODING 7768
SWIDTH 593 0
DWIDTH 19 0
BBX 18 26 1 0
BITMAP
018000
03C000
03C000
038000
038000
000000
3FE000
FC7800
3C3C00
3C1E00
3C1E00
3C1E00
3C1E00
3C3C00
3CFC00
3FF000
3FE000
3CF000
3C7000
3C7800
3C3C00
3C3E00
3C1E00
3C0F00
7E0FC0
FF0780
ENDCHAR
STARTCHAR 1E59
ENCODING 7769
SWIDTH 437 0
DWIDTH 14 0
BBX 13 22 1 0
BITMAP
0300
0780
0780
0780
0700
0000
0000
18F0
F9F8
7BF8
3E30
3C30
3C30
3C00
3C00
3C00
3C00
3C00
3C00
3C00
7E00
FF00
ENDCHAR
STARTCHAR 1E5A
ENCODING 7770
SWIDTH 593 0
DWIDTH 19 0
BBX 18 27 1 -7
BITMAP
3FE000
FC7800
3C3C00
3C1E00
3C1E00
3C1E00
3C1E00
3C3C00
3CFC00
3FF000
3FE000
3CF000
3C7000
3C7800
3C3C00
3C3E00
3C1E00
3C0F00
7E0FC0
FF0780
000000
000000
018000
03C000
03C000
038000
038000
ENDCHAR
STARTCHAR 1E5B
ENCODING 7771
SWIDTH 437 0
DWIDTH 14 0
BBX 13 22 1 -7
BITMAP
18F0
F9F8
7BF8
3E30
3C30
3C30
3C00
3C00
3C00
3C00
3C00
3C00
3C00
7E00
FF00
0000
0000
1800
3C00
3C00
3800
3800
ENDCHAR
STARTCHAR 1E5C
ENCODING 7772
SWIDTH 593 0
DWIDTH 19 0
BBX 18 32 1 -7
BITMAP
3FFC00
3FFE00
7FFC00
000000
000000
3FE000
FC7800
3C3C00
3C1E00
3C1E00
3C1E00
3C1E00
3C3C00
3CFC00
3FF000
3FE000
3CF000
3C7000
3C7800
3C3C00
3C3E00
3C1E00
3C0F00
7E0FC0
FF0780
000000
000000
018000
03C000
03C000
038000
038000
ENDCHAR
STARTCHAR 1E5D
ENCODING 7773
SWIDTH 437 0
DWIDTH 14 0
BBX 14 28 1 -7
BITMAP
7FFC
7FF8
FFF8
0000
0000
0000
18F0
F9F8
7BF8
3E30
3C30
3C30
3C00
3C00
3C00
3C00
3C00
3C00
3C00
7E00
FF00
0000
0000
1800
3C00
3C00
3800
3800
ENDCHAR
STARTCHAR 1E5E
ENCODING 7774
SWIDTH 593 0
DWIDTH 19 0
BBX 18 25 1 -5
BITMAP
3FE000
FC7800
3C3C00
3C1E00
3C1E00
3C1E00
3C1E00
3C3C00
3CFC00
3FF000
3FE000
3CF000
3C7000
3C7800
3C3C00
3C3E00
3C1E00
3C0F00
7E0FC0
FF0780
000000
000000
3FFC00
7FFC00
7FFC00
ENDCHAR
STARTCHAR 1E5F
ENCODING 7775
SWIDTH 437 0
DWIDTH 14 0
BBX 16 20 -2 -5
BITMAP
031E
1F3F
0F7F
07C6
0786
0786
0780
0780
0780
0780
0780
0780
0780
0FC0
1FE0
0000
0000
7FF8
FFF8
FFF8
ENDCHAR
STARTCHAR 1E60
ENCODING 7776
SWIDTH 500 0
DWIDTH 16 0
BBX 13 26 2 0
BITMAP
0700
0700
0F00
0F00
0600
0000
0FE0
30E0
6060
E000
E000
F000
FC00
7F00
7FC0
1FE0
0FF0
03F8
00F8
0078
8078
C078
C070
E0E0
FFC0
3F00
ENDCHAR
STARTCHAR 1E61
ENCODING 7777
SWIDTH 406 0
DWIDTH 13 0
BBX 11 22 1 0
BITMAP
0600
0F00
0F00
0E00
0E00
0000
0000
1FC0
61C0
E180
E080
F800
FE00
7F80
7FC0
1FE0
07E0
81E0
C0E0
C0C0
E0C0
FF00
ENDCHAR
STARTCHAR 1E62
ENCODING 7778
SWIDTH 500 0
DWIDTH 16 0
BBX 13 27 2 -7
BITMAP
0FE0
30E0
6060
E000
E000
F000
FC00
7F00
7FC0
1FE0
0FF0
03F8
00F8
0078
8078
C078
C070
E0E0
FFC0
3F00
0000
0000
0700
0700
0F00
0F00
0600
ENDCHAR
STARTCHAR 1E63
ENCODING 7779
SWIDTH 406 0
DWIDTH 13 0
BBX 11 22 1 -7
BITMAP
1FC0
61C0
E180
E080
F800
FE00
7F80
7FC0
1FE0
07E0
81E0
C0E0
C0C0
E0C0
FF00
0000
0000
0600
0F00
0F00
0E00
0E00
ENDCHAR
STARTCHAR 1E64
ENCODING 7780
SWIDTH 500 0
DWIDTH 16 0
BBX 13 31 2 0
BITMAP
0700
0F00
0F00
0FC0
05E0
03F0
07E0
0780
0E00
1800
0000
0FE0
30E0
6060
E000
E000
F000
FC00
7F00
7FC0
1FE0
0FF0
03F8
00F8
0078
8078
C078
C070
E0E0
FFC0
3F00
ENDCHAR
STARTCHAR 1E65
ENCODING 7781
SWIDTH 406 0
DWIDTH 13 0
BBX 11 28 1 0
BITMAP
0C00
1E00
1E00
1C00
1FC0
03E0
03C0
0780
0700
0E00
0C00
1800
0000
1FC0
61C0
E180
E080
F800
FE00
7F80
7FC0
1FE0
07E0
81E0
C0E0
C0C0
E0C0
FF00
ENDCHAR
STARTCHAR 1E66
ENCODING 7782
SWIDTH 500 0
DWIDTH 16 0
BBX 13 31 2 0
BITMAP
0700
0700
0F00
6720
3670
3DC0
1FC0
0F80
0700
0000
0000
0FE0
30E0
6060
E000
E000
F000
FC00
7F00
7FC0
1FE0
0FF0
03F8
00F8
0078
8078
C078
C070
E0E0
FFC0
3F00
ENDCHAR
STARTCHAR 1E67
ENCODING 7783
SWIDTH 406 0
DWIDTH 13 0
BBX 11 28 1 0
BITMAP
0E00
0F00
0F00
0E00
4460
E0E0
71C0
3F80
1F80
1F00
0E00
0000
0000
1FC0
61C0
E180
E080
F800
FE00
7F80
7FC0
1FE0
07E0
81E0
C0E0
C0C0
E0C0
FF00
ENDCHAR
STARTCHAR 1E68
ENCODING 7784
SWIDTH 500 0
DWIDTH 16 0
BBX 13 33 2 -7
BITMAP
0700
0700
0F00
0F00
0600
0000
0FE0
30E0
6060
E000
E000
F000
FC00
7F00
7FC0
1FE0
0FF0
03F8
00F8
0078
8078
C078
C070
E0E0
FFC0
3F00
0000
0000
0700
0700
0F00
0F00
0600
ENDCHAR
STARTCHAR 1E69
ENCODING 7785
SWIDTH 406 0
DWIDTH 13 0
BBX 11 29 1 -7
BITMAP
0600
0F00
0F00
0E00
0E00
0000
0000
1FC0
61C0
E180
E080
F800
FE00
7F80
7FC0
1FE0
07E0
81E0
C0E0
C0C0
E0C0
FF00
0000
0000
0600
0F00
0F00
0E00
0E00
ENDCHAR
STARTCHAR 1E6A
ENCODING 7786
SWIDTH 593 0
DWIDTH 19 0
BBX 18 26 0 0
BITMAP
00E000
01E000
01E000
01E000
00C000
000000
FFFFC0
C1E1C0
C1E0C0
C1E0C0
81E080
01E000
01E000
01E000
01E000
01E000
01E000
01E000
01E000
01E000
01E000
01E000
01E000
01E000
03F000
07F800
ENDCHAR
STARTCHAR 1E6B
ENCODING 7787
SWIDTH 375 0
DWIDTH 12 0
BBX 11 26 0 0
BITMAP
0700
0F00
0F00
0E00
0600
0000
0400
1C00
3C00
3C00
3C00
FFE0
3C40
3C00
3C00
3C00
3C00
3C00
3C00
3C00
3C00
3C00
3C60
3FE0
1F80
0E00
ENDCHAR
STARTCHAR 1E6C
ENCODING 7788
SWIDTH 593 0
DWIDTH 19 0
BBX 18 27 0 -7
BITMAP
FFFFC0
C1E1C0
C1E0C0
C1E0C0
81E080
01E000
01E000
01E000
01E000
01E000
01E000
01E000
01E000
01E000
01E000
01E000
01E000
01E000
03F000
07F800
000000
000000
00E000
01E000
01E000
01E000
00C000
ENDCHAR
STARTCHAR 1E6D
ENCODING 7789
SWIDTH 375 0
DWIDTH 12 0
BBX 11 27 0 -7
BITMAP
0400
1C00
3C00
3C00
3C00
FFE0
3C40
3C00
3C00
3C00
3C00
3C00
3C00
3C00
3C00
3C00
3C60
3FE0
1F80
0E00
0000
0000
0600
0F00
0F00
0F00
0E00
ENDCHAR
STARTCHAR 1E6E
ENCODING 7790
SWIDTH 593 0
DWIDTH 19 0
BBX 18 25 0 -5
BITMAP
FFFFC0
C1E1C0
C1E0C0
C1E0C0
81E080
01E000
01E000
01E000
01E000
01E000
01E000
01E000
01E000
01E000
01E000
01E000
01E000
01E000
03F000
07F800
000000
000000
1FFF00
1FFE00
3FFE00
ENDCHAR
STARTCHAR 1E6F
ENCODING 7791
SWIDTH 375 0
DWIDTH 12 0
BBX 13 25 -1 -5
BITMAP
0200
0E00
1E00
1E00
1E00
7FF0
1E20
1E00
1E00
1E00
1E00
1E00
1E00
1E00
1E00
1E00
1E30
1FF0
0FC0
0700
0000
0000
7FF8
FFF8
FFF8
ENDCHAR
STARTCHAR 1E78
ENCODING 7800
SWIDTH 656 0
DWIDTH 21 0
BBX 19 34 1 0
BITMAP
000800
001C00
003E00
007E00
00F800
01E000
018000
000000
03C300
07FE00
07FE00
0C7800
080000
000000
FF07E0
7E03C0
3C0180
3C0180
3C0180
3C0180
3C0180
3C0180
3C0180
3C0180
3C0180
3C0180
3C0180
3C0180
3C0180
3C0300
1E0300
0F0600
07FC00
03F000
ENDCHAR
STARTCHAR 1E79
ENCODING 7801
SWIDTH 562 0
DWIDTH 18 0
BBX 17 30 0 0
BITMAP
003C00
007C00
007800
007000
00E000
00C000
01C000
018000
038200
07C600
0FFC00
18F800
103000
000000
000000
1C0E00
FC7E00
3C1E00
3C1E00
3C1E00
3C1E00
3C1E00
3C1E00
3C1E00
3C1E00
3C1E00
3C7E00
3FFF80
1FDF00
0F0C00
ENDCHAR
STARTCHAR 1E7A
ENCODING 7802
SWIDTH 656 0
DWIDTH 21 0
BBX 19 31 1 0
BITMAP
060C00
0F1E00
0F1E00
0F1E00
0E1C00
000000
0FFF80
0FFF00
1FFF00
000000
000000
FF07E0
7E03C0
3C0180
3C0180
3C0180
3C0180
3C0180
3C0180
3C0180
3C0180
3C0180
3C0180
3C0180
3C0180
3C0180
3C0300
1E0300
0F0600
07FC00
03F000
ENDCHAR
STARTCHAR 1E7B
ENCODING 7803
SWIDTH 562 0
DWIDTH 18 0
BBX 17 28 0 0
BITMAP
040800
0E1C00
1E3C00
1E3C00
1C3800
000000
000000
1FFF00
1FFF00
1FFE00
000000
000000
000000
1C0E00
FC7E00
3C1E00
3C1E00
3C1E00
3C1E00
3C1E00
3C1E00
3C1E00
3C1E00
3C1E00
3C7E00
3FFF80
1FDF00
0F0C00
ENDCHAR
STARTCHAR 1E7C
ENCODING 7804
SWIDTH 656 0
DWIDTH 21 0
BBX 21 26 0 0
BITMAP
01E180
03FF00
07FE00
063C00
0C0000
000000
FF03F8
3C00E0
3C00C0
1E00C0
1E0180
0F0180
0F0380
0F0300
078300
078700
03C600
03C600
03CE00
01EC00
01EC00
00F800
00F800
00F800
007000
006000
ENDCHAR
STARTCHAR 1E7D
ENCODING 7805
SWIDTH 500 0
DWIDTH 16 0
BBX 16 22 0 0
BITMAP
0706
0FC4
1FFC
18F8
3070
0000
0000
FE1F
7C0E
3C0C
3C0C
1E1C
1E18
0F18
0F30
0730
07F0
07E0
03E0
03C0
01C0
0180
ENDCHAR
STARTCHAR 1E7E
ENCODING 7806
SWIDTH 656 0
DWIDTH 21 0
BBX 21 27 0 -7
BITMAP
FF03F8
3C00E0
3C00C0
1E00C0
1E0180
0F0180
0F0380
0F0300
078300
078700
03C600
03C600
03CE00
01EC00
01EC00
00F800
00F800
00F800
007000
006000
000000
000000
003000
007000
007800
007000
006000
ENDCHAR
STARTCHAR 1E7F
ENCODING 7807
SWIDTH 500 0
DWIDTH 16 0
BBX 16 22 0 -7
BITMAP
FE1F
7C0E
3C0C
3C0C
1E1C
1E18
0F18
0F30
0730
07F0
07E0
03E0
03C0
01C0
0180
0000
0000
01C0
01C0
03C0
03C0
0180
ENDCHAR
STARTCHAR 1E80
ENCODING 7808
SWIDTH 843 0
DWIDTH 27 0
BBX 27 28 0 0
BITMAP
00200000
00700000
00F80000
007C0000
001E0000
00070000
00018000
00000000
FF060FE0
3C0603C0
1C0F0380
1C0F0300
1C0F0300
1E1F8300
1E1B8300
0E1BC700
0E3BC600
0F31C600
0F31E600
0770EE00
0760FC00
07E0FC00
07C07C00
03C07C00
03C03C00
03803800
03803800
03001000
ENDCHAR
STARTCHAR 1E81
ENCODING 7809
SWIDTH 718 0
DWIDTH 23 0
BBX 23 24 0 0
BITMAP
00E000
01F000
00F000
007800
003800
001C00
000C00
000400
000000
FE183E
7C181C
3C1C18
3C3C18
1C3E30
1E7E30
1E6F30
0E6F70
0FC760
0FC7E0
07C3E0
0783C0
0783C0
0301C0
020180
ENDCHAR
STARTCHAR 1E82
ENCODING 7810
SWIDTH 843 0
DWIDTH 27 0
BBX 27 28 0 0
BITMAP
00008000
0001E000
0003E000
0007C000
000F0000
001C0000
00180000
00000000
FF060FE0
3C0603C0
1C0F0380
1C0F0300
1C0F0300
1E1F8300
1E1B8300
0E1BC700
0E3BC600
0F31C600
0F31E600
0770EE00
0760FC00
07E0FC00
07C07C00
03C07C00
03C03C00
03803800
03803800
03001000
ENDCHAR
STARTCHAR 1E83
ENCODING 7811
SWIDTH 718 0
DWIDTH 23 0
BBX 23 24 0 0
BITMAP
000700
000F80
000F00
001E00
001C00
003800
003000
002000
000000
FE183E
7C181C
3C1C18
3C3C18
1C3E30
1E7E30
1E6F30
0E6F70
0FC760
0FC7E0
07C3E0
0783C0
0783C0
0301C0
020180
ENDCHAR
STARTCHAR 1E84
ENCODING 7812
SWIDTH 843 0
DWIDTH 27 0
BBX 27 26 0 0
BITMAP
0060C000
00F1E000
00F1E000
00E1C000
00E1C000
00000000
FF060FE0
3C0603C0
1C0F0380
1C0F0300
1C0F0300
1E1F8300
1E1B8300
0E1BC700
0E3BC600
0F31C600
0F31E600
0770EE00
0760FC00
07E0FC00
07C07C00
03C07C00
03C03C00
03803800
03803800
03001000
ENDCHAR
STARTCHAR 1E85
ENCODING 7813
SWIDTH 718 0
DWIDTH 23 0
BBX 23 22 0 0
BITMAP
018300
03C780
03C780
03C780
038700
000000
000000
FE183E
7C181C
3C1C18
3C3C18
1C3E30
1E7E30
1E6F30
0E6F70
0FC760
0FC7E0
07C3E0
0783C0
0783C0
0301C0
020180
ENDCHAR
STARTCHAR 1E86
ENCODING 7814
SWIDTH 843 0
DWIDTH 27 0
BBX 27 26 0 0
BITMAP
00060000
000F0000
000F0000
000E0000
000E0000
00000000
FF060FE0
3C0603C0
1C0F0380
1C0F0300
1C0F0300
1E1F8300
1E1B8300
0E1BC700
0E3BC600
0F31C600
0F31E600
0770EE00
0760FC00
07E0FC00
07C07C00
03C07C00
03C03C00
03803800
03803800
03001000
ENDCHAR
STARTCHAR 1E87
ENCODING 7815
SWIDTH 718 0
DWIDTH 23 0
BBX 23 22 0 0
BITMAP
001800
003C00
003C00
003C00
003800
000000
000000
FE183E
7C181C
3C1C18
3C3C18
1C3E30
1E7E30
1E6F30
0E6F70
0FC760
0FC7E0
07C3E0
0783C0
0783C0
0301C0
020180
ENDCHAR
STARTCHAR 1E88
ENCODING 7816
SWIDTH 843 0
DWIDTH 27 0
BBX 27 27 0 -7
BITMAP
FF060FE0
3C0603C0
1C0F0380
1C0F0300
1C0F0300
1E1F8300
1E1B8300
0E1BC700
0E3BC600
0F31C600
0F31E600
0770EE00
0760FC00
07E0FC00
07C07C00
03C07C00
03C03C00
03803800
03803800
03001000
00000000
00000000
00060000
000F0000
000F0000
000E0000
000E0000
ENDCHAR
STARTCHAR 1E89
ENCODING 7817
SWIDTH 718 0
DWIDTH 23 0
BBX 23 22 0 -7
BITMAP
FE183E
7C181C
3C1C18
3C3C18
1C3E30
1E7E30
1E6F30
0E6F70
0FC760
0FC7E0
07C3E0
0783C0
0783C0
0301C0
020180
000000
000000
001800
003C00
003C00
003800
003800
ENDCHAR
STARTCHAR 1E8A
ENCODING 7818
SWIDTH 625 0
DWIDTH 20 0
BBX 20 26 0 0
BITMAP
007000
00F000
00F000
00F000
006000
000000
7F8FE0
3E0380
1E0700
0F0600
0F8E00
078C00
03DC00
03F800
01F000
00F000
00F800
01F800
03BC00
03BE00
071E00
060F00
0E0F80
1C0780
3C07C0
FE1FF0
ENDCHAR
STARTCHAR 1E8B
ENCODING 7819
SWIDTH 531 0
DWIDTH 17 0
BBX 16 22 0 0
BITMAP
01C0
01C0
03C0
03C0
0180
0000
0000
FF3F
3E1C
1E18
0F30
0FF0
07E0
03C0
03E0
03E0
06F0
0EF8
1C78
183C
783E
FC7F
ENDCHAR
STARTCHAR 1E8C
ENCODING 7820
SWIDTH 625 0
DWIDTH 20 0
BBX 20 26 0 0
BITMAP
070E00
0F1E00
0F1E00
0F1E00
060C00
000000
7F8FE0
3E0380
1E0700
0F0600
0F8E00
078C00
03DC00
03F800
01F000
00F000
00F800
01F800
03BC00
03BE00
071E00
060F00
0E0F80
1C0780
3C07C0
FE1FF0
ENDCHAR
STARTCHAR 1E8D
ENCODING 7821
SWIDTH 531 0
DWIDTH 17 0
BBX 16 22 0 0
BITMAP
1C38
1C38
3C78
3C78
1830
0000
0000
FF3F
3E1C
1E18
0F30
0FF0
07E0
03C0
03E0
03E0
06F0
0EF8
1C78
183C
783E
FC7F
ENDCHAR
STARTCHAR 1E8E
ENCODING 7822
SWIDTH 625 0
DWIDTH 20 0
BBX 19 26 0 0
BITMAP
006000
00F000
00F000
00F000
00E000
000000
FC07E0
3C03C0
1E0380
0F0300
0F0700
078600
038E00
03CC00
01DC00
01F800
00F800
00F000
00F000
00F000
00F000
00F000
00F000
00F000
01F800
03FC00
ENDCHAR
STARTCHAR 1E8F
ENCODING 7823
SWIDTH 500 0
DWIDTH 16 0
BBX 17 30 -1 -8
BITMAP
006000
00F000
00F000
00E000
00E000
000000
000000
7F0F80
3E0700
1E0600
1E0600
0F0E00
0F0C00
078C00
079800
079800
03F800
03F000
01F000
01F000
01E000
00E000
00C000
00C000
01C000
018000
278000
7F0000
FE0000
780000
ENDCHAR
STARTCHAR 1E90
ENCODING 7824
SWIDTH 531 0
DWIDTH 17 0
BBX 15 27 1 0
BITMAP
0180
03C0
07E0
0FF0
1C38
1808
0000
7FFE
603E
607C
407C
40F8
00F0
01F0
01E0
03E0
07C0
07C0
0F80
0F00
1F00
3E00
3E02
7C02
7C06
F806
FFFE
ENDCHAR
STARTCHAR 1E91
ENCODING 7825
SWIDTH 468 0
DWIDTH 15 0
BBX 13 23 1 0
BITMAP
0300
0780
0FC0
1FE0
1CE0
3070
2010
0000
7FF8
60F8
41F0
41E0
03E0
07C0
0780
0F80
0F00
1F00
3E10
3C18
7C18
F818
FFF8
ENDCHAR
STARTCHAR 1E92
ENCODING 7826
SWIDTH 531 0
DWIDTH 17 0
BBX 15 27 1 -7
BITMAP
7FFE
603E
607C
407C
40F8
00F0
01F0
01E0
03E0
07C0
07C0
0F80
0F00
1F00
3E00
3E02
7C02
7C06
F806
FFFE
0000
0000
0180
03C0
03C0
0380
0380
ENDCHAR
STARTCHAR 1E93
ENCODING 7827
SWIDTH 468 0
DWIDTH 15 0
BBX 13 22 1 -7
BITMAP
7FF8
60F8
41F0
41E0
03E0
07C0
0780
0F80
0F00
1F00
3E10
3C18
7C18
F818
FFF8
0000
0000
0300
0700
0780
0700
0600
ENDCHAR
STARTCHAR 1E94
ENCODING 7828
SWIDTH 531 0
DWIDTH 17 0
BBX 15 25 1 -5
BITMAP
7FFE
603E
607C
407C
40F8
00F0
01F0
01E0
03E0
07C0
07C0
0F80
0F00
1F00
3E00
3E02
7C02
7C06
F806
FFFE
0000
0000
3FFC
7FFC
7FFC
ENDCHAR
STARTCHAR 1E95
ENCODING 7829
SWIDTH 468 0
DWIDTH 15 0
BBX 13 20 1 -5
BITMAP
7FF8
60F8
41F0
41E0
03E0
07C0
0780
0F80
0F00
1F00
3E10
3C18
7C18
F818
FFF8
0000
0000
FFF8
FFF8
FFF0
ENDCHAR
STARTCHAR 1E96
ENCODING 7830
SWIDTH 593 0
DWIDTH 19 0
BBX 17 29 1 -5
BITMAP
0C0000
FC0000
7C0000
3C0000
3C0000
3C0000
3C0000
3C0000
3C0000
3C7800
3DFC00
3FFE00
3F1E00
3E1E00
3C1E00
3C1E00
3C1E00
3C1E00
3C1E00
3C1E00
3C1E00
3C1E00
7E3F00
FF7F80
000000
000000
3FFE00
3FFE00
3FFC00
ENDCHAR
STARTCHAR 1E97
ENCODING 7831
SWIDTH 375 0
DWIDTH 12 0
BBX 11 26 0 0
BITMAP
70E0
F1E0
F1E0
E1C0
60C0
0000
0400
1C00
3C00
3C00
3C00
FFE0
3C40
3C00
3C00
3C00
3C00
3C00
3C00
3C00
3C00
3C00
3C60
3FE0
1F80
0E00
ENDCHAR
STARTCHAR 1E98
ENCODING 7832
SWIDTH 718 0
DWIDTH 23 0
BBX 23 22 0 0
BITMAP
001C00
006600
006600
006400
003800
000000
000000
FE183E
7C181C
3C1C18
3C3C18
1C3E30
1E7E30
1E6F30
0E6F70
0FC760
0FC7E0
07C3E0
0783C0
0783C0
0301C0
020180
ENDCHAR
STARTCHAR 1E99
ENCODING 7833
SWIDTH 500 0
DWIDTH 16 0
BBX 17 30 -1 -8
BITMAP
00F000
01B000
019800
01B000
01E000
000000
000000
7F0F80
3E0700
1E0600
1E0600
0F0E00
0F0C00
078C00
079800
079800
03F800
03F000
01F000
01F000
01E000
00E000
00C000
00C000
01C000
018000
278000
7F0000
FE0000
780000
ENDCHAR
STARTCHAR 1EA0
ENCODING 7840
SWIDTH 625 0
DWIDTH 20 0
BBX 20 27 0 -7
BITMAP
002000
00F000
00F000
01F800
01F800
01F800
03BC00
033C00
033C00
071E00
061E00
0E1F00
0FFF00
0C0700
1C0780
180780
180380
3803C0
3803C0
FE0FF0
000000
000000
006000
00F000
00F000
00F000
00E000
ENDCHAR
STARTCHAR 1EA1
ENCODING 7841
SWIDTH 500 0
DWIDTH 16 0
BBX 14 22 1 -7
BITMAP
1FC0
70E0
F0F0
C0F0
00F0
03F0
1FF0
3FF0
78F0
F0F0
F0F0
F0F0
FBFC
7EF8
3860
0000
0000
0300
0780
0780
0700
0700
ENDCHAR
STARTCHAR 1EA2
ENCODING 7842
SWIDTH 625 0
DWIDTH 20 0
BBX 20 28 0 0
BITMAP
007000
01D800
019800
003000
006000
006000
001000
000000
002000
00F000
00F000
01F800
01F800
01F800
03BC00
033C00
033C00
071E00
061E00
0E1F00
0FFF00
0C0700
1C0780
180780
180380
3803C0
3803C0
FE0FF0
ENDCHAR
STARTCHAR 1EA3
ENCODING 7843
SWIDTH 500 0
DWIDTH 16 0
BBX 14 23 1 0
BITMAP
03C0
06C0
0CC0
0180
0300
0380
0000
0000
1FC0
70E0
F0F0
C0F0
00F0
03F0
1FF0
3FF0
78F0
F0F0
F0F0
F0F0
FBFC
7EF8
3860
ENDCHAR
STARTCHAR 1EA4
ENCODING 7844
SWIDTH 625 0
DWIDTH 20 0
BBX 20 34 0 0
BITMAP
000C00
001E00
003E00
007C00
00F000
01C000
010000
00E000
00F000
01F800
03FC00
070E00
040600
000000
002000
00F000
00F000
01F800
01F800
01F800
03BC00
033C00
033C00
071E00
061E00
0E1F00
0FFF00
0C0700
1C0780
180780
180380
3803C0
3803C0
FE0FF0
ENDCHAR
STARTCHAR 1EA5
ENCODING 7845
SWIDTH 500 0
DWIDTH 16 0
BBX 14 31 1 0
BITMAP
00F0
01F0
01E0
03C0
0380
0700
0600
0400
0380
0780
0FC0
1FE0
1CE0
3830
2010
0000
1FC0
70E0
F0F0
C0F0
00F0
03F0
1FF0
3FF0
78F0
F0F0
F0F0
F0F0
FBFC
7EF8
3860
ENDCHAR
STARTCHAR 1EA6
ENCODING 7846
SWIDTH 625 0
DWIDTH 20 0
BBX 20 34 0 0
BITMAP
030000
078000
0FC000
03E000
00F000
003800
001000
00E000
00F000
01F800
03FC00
070E00
040600
000000
002000
00F000
00F000
01F800
01F800
01F800
03BC00
033C00
033C00
071E00
061E00
0E1F00
0FFF00
0C0700
1C0780
180780
180380
3803C0
3803C0
FE0FF0
ENDCHAR
STARTCHAR 1EA7
ENCODING 7847
SWIDTH 500 0
DWIDTH 16 0
BBX 14 31 1 0
BITMAP
1E00
3E00
1F00
0F00
0700
0380
0180
00C0
0380
0780
0FC0
1FE0
1CE0
3830
2010
0000
1FC0
70E0
F0F0
C0F0
00F0
03F0
1FF0
3FF0
78F0
F0F0
F0F0
F0F0
FBFC
7EF8
3860
ENDCHAR
STARTCHAR 1EA8
ENCODING 7848
SWIDTH 625 0
DWIDTH 20 0
BBX 20 34 0 0
BITMAP
00F800
01D800
011800
007000
006000
003000
000000
00E000
00F000
01F800
03FC00
070E00
040600
000000
002000
00F000
00F000
01F800
01F800
01F800
03BC00
033C00
033C00
071E00
061E00
0E1F00
0FFF00
0C0700
1C0780
180780
180380
3803C0
3803C0
FE0FF0
ENDCHAR
STARTCHAR 1EA9
ENCODING 7849
SWIDTH 500 0
DWIDTH 16 0
BBX 14 30 1 0
BITMAP
07C0
0EC0
08C0
0380
0300
0180
0000
0380
0780
0FC0
1FE0
1CE0
3830
2010
0000
1FC0
70E0
F0F0
C0F0
00F0
03F0
1FF0
3FF0
78F0
F0F0
F0F0
F0F0
FBFC
7EF8
3860
ENDCHAR
STARTCHAR 1EAA
ENCODING 7850
SWIDTH 625 0
DWIDTH 20 0
BBX 20 32 0 0
BITMAP
03E300
07FE00
07FC00
0C3800
080000
00E000
00F000
01F800
03FC00
070E00
040600
000000
002000
00F000
00F000
01F800
01F800
01F800
03BC00
033C00
033C00
071E00
061E00
0E1F00
0FFF00
0C0700
1C0780
180780
180380
3803C0
3803C0
FE0FF0
ENDCHAR
STARTCHAR 1EAB
ENCODING 7851
SWIDTH 500 0
DWIDTH 16 0
BBX 14 29 1 0
BITMAP
1E18
3FB8
37F0
61E0
4080
0000
0380
0780
0FC0
1FE0
1CE0
3830
2010
0000
1FC0
70E0
F0F0
C0F0
00F0
03F0
1FF0
3FF0
78F0
F0F0
F0F0
F0F0
FBFC
7EF8
3860
ENDCHAR
STARTCHAR 1EAC
ENCODING 7852
SWIDTH 625 0
DWIDTH 20 0
BBX 20 34 0 -7
BITMAP
00E000
00F000
01F800
03FC00
070E00
040600
000000
002000
00F000
00F000
01F800
01F800
01F800
03BC00
033C00
033C00
071E00
061E00
0E1F00
0FFF00
0C0700
1C0780
180780
180380
3803C0
3803C0
FE0FF0
000000
000000
006000
00F000
00F000
00F000
00E000
ENDCHAR
STARTCHAR 1EAD
ENCODING 7853
SWIDTH 500 0
DWIDTH 16 0
BBX 14 30 1 -7
BITMAP
0380
0780
0FC0
1FE0
1CE0
3830
2010
0000
1FC0
70E0
F0F0
C0F0
00F0
03F0
1FF0
3FF0
78F0
F0F0
F0F0
F0F0
FBFC
7EF8
3860
0000
0000
0300
0780
0780
0700
0700
ENDCHAR
STARTCHAR 1EAE
ENCODING 7854
SWIDTH 625 0
DWIDTH 20 0
BBX 20 33 0 0
BITMAP
000C00
001E00
003E00
007C00
00F000
01C000
050200
0F0E00
07FE00
03FC00
00F000
000000
000000
002000
00F000
00F000
01F800
01F800
01F800
03BC00
033C00
033C00
071E00
061E00
0E1F00
0FFF00
0C0700
1C0780
180780
180380
3803C0
3803C0
FE0FF0
ENDCHAR
STARTCHAR 1EAF
ENCODING 7855
SWIDTH 500 0
DWIDTH 16 0
BBX 14 29 1 0
BITMAP
00F0
01F0
01E0
03C0
0380
0700
0600
2410
7878
3FF0
1FE0
0780
0000
0000
1FC0
70E0
F0F0
C0F0
00F0
03F0
1FF0
3FF0
78F0
F0F0
F0F0
F0F0
FBFC
7EF8
3860
ENDCHAR
STARTCHAR 1EB0
ENCODING 7856
SWIDTH 625 0
DWIDTH 20 0
BBX 20 33 0 0
BITMAP
030000
078000
0FC000
03E000
00F000
003800
041200
0F0E00
07FE00
03FC00
00F000
000000
000000
002000
00F000
00F000
01F800
01F800
01F800
03BC00
033C00
033C00
071E00
061E00
0E1F00
0FFF00
0C0700
1C0780
180780
180380
3803C0
3803C0
FE0FF0
ENDCHAR
STARTCHAR 1EB1
ENCODING 7857
SWIDTH 500 0
DWIDTH 16 0
BBX 14 29 1 0
BITMAP
1E00
3E00
1F00
0F00
0700
0380
0180
20D0
7878
3FF0
1FE0
0780
0000
0000
1FC0
70E0
F0F0
C0F0
00F0
03F0
1FF0
3FF0
78F0
F0F0
F0F0
F0F0
FBFC
7EF8
3860
ENDCHAR
STARTCHAR 1EB2
ENCODING 7858
SWIDTH 625 0
DWIDTH 20 0
BBX 20 33 0 0
BITMAP
00F800
01D800
011800
006000
006000
003000
040200
0F0E00
07FE00
03FC00
00F000
000000
000000
002000
00F000
00F000
01F800
01F800
01F800
03BC00
033C00
033C00
071E00
061E00
0E1F00
0FFF00
0C0700
1C0780
180780
180380
3803C0
3803C0
FE0FF0
ENDCHAR
STARTCHAR 1EB3
ENCODING 7859
SWIDTH 500 0
DWIDTH 16 0
BBX 14 28 1 0
BITMAP
07C0
0EC0
08C0
0380
0300
0180
2010
7878
3FF0
1FE0
0780
0000
0000
1FC0
70E0
F0F0
C0F0
00F0
03F0
1FF0
3FF0
78F0
F0F0
F0F0
F0F0
FBFC
7EF8
3860
ENDCHAR
STARTCHAR 1EB4
ENCODING 7860
SWIDTH 625 0
DWIDTH 20 0
BBX 20 33 0 0
BITMAP
03C100
07E300
07FE00
0C7C00
083800
040200
0E0600
070E00
07FC00
03F800
00F000
000000
000000
002000
00F000
00F000
01F800
01F800
01F800
03BC00
033C00
033C00
071E00
061E00
0E1F00
0FFF00
0C0700
1C0780
180780
180380
3803C0
3803C0
FE0FF0
ENDCHAR
STARTCHAR 1EB5
ENCODING 7861
SWIDTH 500 0
DWIDTH 16 0
BBX 14 27 1 0
BITMAP
1E18
3FB8
37F0
61E0
4040
2010
7878
3FF0
1FE0
0780
0000
0000
1FC0
70E0
F0F0
C0F0
00F0
03F0
1FF0
3FF0
78F0
F0F0
F0F0
F0F0
FBFC
7EF8
3860
ENDCHAR
STARTCHAR 1EB6
ENCODING 7862
SWIDTH 625 0
DWIDTH 20 0
BBX 20 34 0 -7
BITMAP
040200
0F0E00
07FE00
03FC00
00F000
000000
000000
002000
00F000
00F000
01F800
01F800
01F800
03BC00
033C00
033C00
071E00
061E00
0E1F00
0FFF00
0C0700
1C0780
180780
180380
3803C0
3803C0
FE0FF0
000000
000000
006000
00F000
00F000
00F000
00E000
ENDCHAR
STARTCHAR 1EB7
ENCODING 7863
SWIDTH 500 0
DWIDTH 16 0
BBX 14 29 1 -7
BITMAP
2010
7878
3FF0
1FE0
0780
0000
0000
1FC0
70E0
F0F0
C0F0
00F0
03F0
1FF0
3FF0
78F0
F0F0
F0F0
F0F0
FBFC
7EF8
3860
0000
0000
0300
0780
0780
0700
0700
ENDCHAR
STARTCHAR 1EB8
ENCODING 7864
SWIDTH 531 0
DWIDTH 17 0
BBX 15 27 1 -7
BITMAP
FFFC
7C0C
3C0C
3C0C
3C0C
3C00
3C00
3C00
3C00
3FF0
3C20
3C00
3C00
3C00
3C00
3C00
3C02
3C06
7C0E
FFFE
0000
0000
0380
0380
0780
0780
0300
ENDCHAR
STARTCHAR 1EB9
ENCODING 7865
SWIDTH 468 0
DWIDTH 15 0
BBX 13 22 1 -7
BITMAP
07C0
18E0
3870
7078
7078
F078
FFF0
F000
F000
F000
F808
7C38
7FF0
3FE0
0F80
0000
0000
0380
0380
0780
0780
0300
ENDCHAR
STARTCHAR 1EBA
ENCODING 7866
SWIDTH 531 0
DWIDTH 17 0
BBX 15 28 1 0
BITMAP
03C0
06C0
06C0
0180
0300
0180
0000
0000
FFFC
7C0C
3C0C
3C0C
3C0C
3C00
3C00
3C00
3C00
3FF0
3C20
3C00
3C00
3C00
3C00
3C00
3C02
3C06
7C0E
FFFE
ENDCHAR
STARTCHAR 1EBB
ENCODING 7867
SWIDTH 468 0
DWIDTH 15 0
BBX 13 23 1 0
BITMAP
03C0
06C0
06C0
0180
0300
0180
0000
0000
07C0
18E0
3870
7078
7078
F078
FFF0
F000
F000
F000
F808
7C38
7FF0
3FE0
0F80
ENDCHAR
STARTCHAR 1EBC
ENCODING 7868
SWIDTH 531 0
DWIDTH 17 0
BBX 15 26 1 0
BITMAP
0F0C
1FF8
3FF0
21E0
6000
0000
FFFC
7C0C
3C0C
3C0C
3C0C
3C00
3C00
3C00
3C00
3FF0
3C20
3C00
3C00
3C00
3C00
3C00
3C02
3C06
7C0E
FFFE
ENDCHAR
STARTCHAR 1EBD
ENCODING 7869
SWIDTH 468 0
DWIDTH 15 0
BBX 14 22 1 0
BITMAP
0E0C
1F98
3FF8
23F0
60E0
0000
0000
07C0
18E0
3870
7078
7078
F078
FFF0
F000
F000
F000
F808
7C38
7FF0
3FE0
0F80
ENDCHAR
STARTCHAR 1EBE
ENCODING 7870
SWIDTH 531 0
DWIDTH 17 0
BBX 15 34 1 0
BITMAP
0060
00F8
01F8
03E0
0780
0F00
0400
0380
07C0
0FC0
1FE0
1C70
3018
0000
FFFC
7C0C
3C0C
3C0C
3C0C
3C00
3C00
3C00
3C00
3FF0
3C20
3C00
3C00
3C00
3C00
3C00
3C02
3C06
7C0E
FFFE
ENDCHAR
STARTCHAR 1EBF
ENCODING 7871
SWIDTH 468 0
DWIDTH 15 0
BBX 13 31 1 0
BITMAP
00F0
00F0
01E0
01C0
0380
0300
0600
0200
0380
07C0
0FC0
0FE0
1C70
3830
3018
0000
07C0
18E0
3870
7078
7078
F078
FFF0
F000
F000
F000
F808
7C38
7FF0
3FE0
0F80
ENDCHAR
STARTCHAR 1EC0
ENCODING 7872
SWIDTH 531 0
DWIDTH 17 0
BBX 15 34 1 0
BITMAP
0800
3C00
3E00
1F00
0780
01C0
0040
0380
07C0
0FC0
1FE0
1C70
3018
0000
FFFC
7C0C
3C0C
3C0C
3C0C
3C00
3C00
3C00
3C00
3FF0
3C20
3C00
3C00
3C00
3C00
3C00
3C02
3C06
7C0E
FFFE
ENDCHAR
STARTCHAR 1EC1
ENCODING 7873
SWIDTH 468 0
DWIDTH 15 0
BBX 13 31 1 0
BITMAP
1E00
1E00
0F00
0700
0380
0180
00C0
0080
0380
07C0
0FC0
0FE0
1C70
3830
3018
0000
07C0
18E0
3870
7078
7078
F078
FFF0
F000
F000
F000
F808
7C38
7FF0
3FE0
0F80
ENDCHAR
STARTCHAR 1EC2
ENCODING 7874
SWIDTH 531 0
DWIDTH 17 0
BBX 15 34 1 0
BITMAP
03C0
06C0
04C0
0180
0300
0180
0000
0380
07C0
0FC0
1FE0
1C70
3018
0000
FFFC
7C0C
3C0C
3C0C
3C0C
3C00
3C00
3C00
3C00
3FF0
3C20
3C00
3C00
3C00
3C00
3C00
3C02
3C06
7C0E
FFFE
ENDCHAR
STARTCHAR 1EC3
ENCODING 7875
SWIDTH 468 0
DWIDTH 15 0
BBX 13 30 1 0
BITMAP
03C0
06C0
08C0
0180
0300
0180
0000
0380
07C0
0FC0
0FE0
1C70
3830
3018
0000
07C0
18E0
3870
7078
7078
F078
FFF0
F000
F000
F000
F808
7C38
7FF0
3FE0
0F80
ENDCHAR
STARTCHAR 1EC4
ENCODING 7876
SWIDTH 531 0
DWIDTH 17 0
BBX 15 32 1 0
BITMAP
0F9C
1FF8
3FF0
20C0
6000
0380
07C0
0FC0
1FE0
1C70
3018
0000
FFFC
7C0C
3C0C
3C0C
3C0C
3C00
3C00
3C00
3C00
3FF0
3C20
3C00
3C00
3C00
3C00
3C00
3C02
3C06
7C0E
FFFE
ENDCHAR
STARTCHAR 1EC5
ENCODING 7877
SWIDTH 468 0
DWIDTH 15 0
BBX 14 29 1 0
BITMAP
1F0C
1FF8
37F0
21F0
4040
0000
0380
07C0
0FC0
0FE0
1C70
3830
3018
0000
07C0
18E0
3870
7078
7078
F078
FFF0
F000
F000
F000
F808
7C38
7FF0
3FE0
0F80
ENDCHAR
STARTCHAR 1EC6
ENCODING 7878
SWIDTH 531 0
DWIDTH 17 0
BBX 15 34 1 -7
BITMAP
0380
07C0
0FC0
1FE0
1C70
3018
0000
FFFC
7C0C
3C0C
3C0C
3C0C
3C00
3C00
3C00
3C00
3FF0
3C20
3C00
3C00
3C00
3C00
3C00
3C02
3C06
7C0E
FFFE
0000
0000
0380
0380
0780
0780
0300
ENDCHAR
STARTCHAR 1EC7
ENCODING 7879
SWIDTH 468 0
DWIDTH 15 0
BBX 13 30 1 -7
BITMAP
0380
07C0
0FC0
0FE0
1C70
3830
3018
0000
07C0
18E0
3870
7078
7078
F078
FFF0
F000
F000
F000
F808
7C38
7FF0
3FE0
0F80
0000
0000
0380
0380
0780
0780
0300
ENDCHAR
STARTCHAR 1EC8
ENCODING 7880
SWIDTH 312 0
DWIDTH 10 0
BBX 8 28 1 0
BITMAP
1E
36
66
0C
18
1C
00
00
FF
7E
3C
3C
3C
3C
3C
3C
3C
3C
3C
3C
3C
3C
3C
3C
3C
3C
7E
FF
ENDCHAR
STARTCHAR 1EC9
ENCODING 7881
SWIDTH 312 0
DWIDTH 10 0
BBX 8 23 1 0
BITMAP
1C
76
66
0C
18
1C
00
00
1C
FC
7C
3C
3C
3C
3C
3C
3C
3C
3C
3C
3C
7E
FF
ENDCHAR
STARTCHAR 1ECA
ENCODING 7882
SWIDTH 312 0
DWIDTH 10 0
BBX 8 27 1 -7
BITMAP
FF
7E
3C
3C
3C
3C
3C
3C
3C
3C
3C
3C
3C
3C
3C
3C
3C
3C
7E
FF
00
00
1C
3C
3C
3C
18
ENDCHAR
STARTCHAR 1ECB
ENCODING 7883
SWIDTH 312 0
DWIDTH 10 0
BBX 8 28 1 -7
BITMAP
1C
3E
3E
1C
00
00
1C
FC
7C
3C
3C
3C
3C
3C
3C
3C
3C
3C
3C
7E
FF
00
00
18
3C
3C
3C
38
ENDCHAR
STARTCHAR 1ECC
ENCODING 7884
SWIDTH 625 0
DWIDTH 20 0
BBX 18 27 1 -7
BITMAP
03F000
0C1C00
1C0E00
380700
380780
700780
7003C0
F003C0
F003C0
F003C0
F003C0
F003C0
F003C0
F80380
780780
780700
3C0F00
1E1E00
0FF800
03E000
000000
000000
00E000
01E000
01E000
01E000
01C000
ENDCHAR
STARTCHAR 1ECD
ENCODING 7885
SWIDTH 531 0
DWIDTH 17 0
BBX 15 22 1 -7
BITMAP
07E0
1870
3838
703C
701E
F01E
F01E
F01E
F01E
F01E
F01C
781C
3838
1C30
0FC0
0000
0000
0180
03C0
03C0
0380
0380
ENDCHAR
STARTCHAR 1ECE
ENCODING 7886
SWIDTH 625 0
DWIDTH 20 0
BBX 18 28 1 0
BITMAP
00E000
01B000
033000
006000
00C000
00E000
000000
000000
03F000
0C1C00
1C0E00
380700
380780
700780
7003C0
F003C0
F003C0
F003C0
F003C0
F003C0
F003C0
F80380
780780
780700
3C0F00
1E1E00
0FF800
03E000
ENDCHAR
STARTCHAR 1ECF
ENCODING 7887
SWIDTH 531 0
DWIDTH 17 0
BBX 15 23 1 0
BITMAP
01C0
0760
0660
01C0
0380
0180
0000
0000
07E0
1870
3838
703C
701E
F01E
F01E
F01E
F01E
F01E
F01C
781C
3838
1C30
0FC0
ENDCHAR
STARTCHAR 1ED0
ENCODING 7888
SWIDTH 625 0
DWIDTH 20 0
BBX 18 34 1 0
BITMAP
001800
003C00
007C00
00F800
01E000
038000
020000
00C000
01E000
03F000
07F800
0E1C00
080C00
000000
03F000
0C1C00
1C0E00
380700
380780
700780
7003C0
F003C0
F003C0
F003C0
F003C0
F003C0
F003C0
F80380
780780
780700
3C0F00
1E1E00
0FF800
03E000
ENDCHAR
STARTCHAR 1ED1
ENCODING 7889
SWIDTH 531 0
DWIDTH 17 0
BBX 15 31 1 0
BITMAP
00F0
00F8
01F0
01E0
01C0
0380
0300
0600
0380
03C0
07E0
0FE0
1E70
1838
3018
0000
07E0
1870
3838
703C
701E
F01E
F01E
F01E
F01E
F01E
F01C
781C
3838
1C30
0FC0
ENDCHAR
STARTCHAR 1ED2
ENCODING 7890
SWIDTH 625 0
DWIDTH 20 0
BBX 18 34 1 0
BITMAP
060000
0F0000
0F8000
07C000
01E000
007000
002000
00C000
01E000
03F000
07F800
0E1C00
080C00
000000
03F000
0C1C00
1C0E00
380700
380780
700780
7003C0
F003C0
F003C0
F003C0
F003C0
F003C0
F003C0
F80380
780780
780700
3C0F00
1E1E00
0FF800
03E000
ENDCHAR
STARTCHAR 1ED3
ENCODING 7891
SWIDTH 531 0
DWIDTH 17 0
BBX 15 31 1 0
BITMAP
1E00
1F00
0F00
0780
0380
01C0
00C0
0080
0380
03C0
07E0
0FE0
1E70
1838
3018
0000
07E0
1870
3838
703C
701E
F01E
F01E
F01E
F01E
F01E
F01C
781C
3838
1C30
0FC0
ENDCHAR
STARTCHAR 1ED4
ENCODING 7892
SWIDTH 625 0
DWIDTH 20 0
BBX 18 34 1 0
BITMAP
01F000
03B000
023000
00E000
00C000
006000
000000
00C000
01E000
03F000
07F800
0E1C00
080C00
000000
03F000
0C1C00
1C0E00
380700
380780
700780
7003C0
F003C0
F003C0
F003C0
F003C0
F003C0
F003C0
F80380
780780
780700
3C0F00
1E1E00
0FF800
03E000
ENDCHAR
STARTCHAR 1ED5
ENCODING 7893
SWIDTH 531 0
DWIDTH 17 0
BBX 15 30 1 0
BITMAP
03E0
0660
09C0
0180
0380
0080
0000
0380
03C0
07E0
0FE0
1E70
1838
3018
0000
07E0
1870
3838
703C
701E
F01E
F01E
F01E
F01E
F01E
F01C
781C
3838
1C30
0FC0
ENDCHAR
STARTCHAR 1ED6
ENCODING 7894
SWIDTH 625 0
DWIDTH 20 0
BBX 18 32 1 0
BITMAP
07C600
0FFC00
0FF800
187000
100000
00C000
01E000
03F000
07F800
0E1C00
080C00
000000
03F000
0C1C00
1C0E00
380700
380780
700780
7003C0
F003C0
F003C0
F003C0
F003C0
F003C0
F003C0
F80380
780780
780700
3C0F00
1E1E00
0FF800
03E000
ENDCHAR
STARTCHAR 1ED7
ENCODING 7895
SWIDTH 531 0
DWIDTH 17 0
BBX 15 29 1 0
BITMAP
0F0C
1FD8
37F8
21F0
2040
0000
0380
03C0
07E0
0FE0
1E70
1838
3018
0000
07E0
1870
3838
703C
701E
F01E
F01E
F01E
F01E
F01E
F01C
781C
3838
1C30
0FC0
ENDCHAR
STARTCHAR 1ED8
ENCODING 7896
SWIDTH 625 0
DWIDTH 20 0
BBX 18 34 1 -7
BITMAP
00C000
01E000
03F000
07F800
0E1C00
080C00
000000
03F000
0C1C00
1C0E00
380700
380780
700780
7003C0
F003C0
F003C0
F003C0
F003C0
F003C0
F003C0
F80380
780780
780700
3C0F00
1E1E00
0FF800
03E000
000000
000000
00E000
01E000
01E000
01E000
01C000
ENDCHAR
STARTCHAR 1ED9
ENCODING 7897
SWIDTH 531 0
DWIDTH 17 0
BBX 15 30 1 -7
BITMAP
0380
03C0
07E0
0FE0
1E70
1838
3018
0000
07E0
1870
3838
703C
701E
F01E
F01E
F01E
F01E
F01E
F01C
781C
3838
1C30
0FC0
0000
0000
0180
03C0
03C0
0380
0380
ENDCHAR
STARTCHAR 1EDA
ENCODING 7898
SWIDTH 625 0
DWIDTH 20 0
BBX 19 28 1 0
BITMAP
001000
003C00
007C00
00F800
01E040
0381E0
0303E0
0001E0
03F1C0
0C1F80
1C0F00
380700
380780
700780
7003C0
F003C0
F003C0
F003C0
F003C0
F003C0
F003C0
F80380
780780
780700
3C0F00
1E1E00
0FF800
03E000
ENDCHAR
STARTCHAR 1EDB
ENCODING 7899
SWIDTH 593 0
DWIDTH 19 0
BBX 18 24 1 0
BITMAP
007000
00F800
00F000
01E000
01C000
038000
030080
0207C0
0003C0
07E3C0
187780
383E00
703C00
701C00
F01E00
F01E00
F01E00
F01E00
F01E00
F01C00
781C00
383800
1C3000
0FC000
ENDCHAR
STARTCHAR 1EDC
ENCODING 7900
SWIDTH 625 0
DWIDTH 20 0
BBX 19 28 1 0
BITMAP
060000
0F0000
1F8000
0F8000
03C040
00E1E0
0033E0
0001E0
03F1C0
0C1F80
1C0F00
380700
380780
700780
7003C0
F003C0
F003C0
F003C0
F003C0
F003C0
F003C0
F80380
780780
780700
3C0F00
1E1E00
0FF800
03E000
ENDCHAR
STARTCHAR 1EDD
ENCODING 7901
SWIDTH 593 0
DWIDTH 19 0
BBX 18 24 1 0
BITMAP
0E0000
1F0000
0F0000
078000
038000
01C000
00C080
0047C0
0003C0
07E3C0
187780
383E00
703C00
701C00
F01E00
F01E00
F01E00
F01E00
F01E00
F01C00
781C00
383800
1C3000
0FC000
ENDCHAR
STARTCHAR 1EDE
ENCODING 7902
SWIDTH 625 0
DWIDTH 20 0
BBX 19 28 1 0
BITMAP
00E000
03B000
033000
006000
01C040
00C1E0
0003E0
0001E0
03F1C0
0C1F80
1C0F00
380700
380780
700780
7003C0
F003C0
F003C0
F003C0
F003C0
F003C0
F003C0
F80380
780780
780700
3C0F00
1E1E00
0FF800
03E000
ENDCHAR
STARTCHAR 1EDF
ENCODING 7903
SWIDTH 593 0
DWIDTH 19 0
BBX 18 23 1 0
BITMAP
01C000
036000
066000
00C000
018000
01C080
0007C0
0003C0
07E3C0
187780
383E00
703C00
701C00
F01E00
F01E00
F01E00
F01E00
F01E00
F01C00
781C00
383800
1C3000
0FC000
ENDCHAR
STARTCHAR 1EE0
ENCODING 7904
SWIDTH 625 0
DWIDTH 20 0
BBX 19 26 1 0
BITMAP
078600
0FFC00
0FFC40
18F1E0
1003E0
0001E0
03F1C0
0C1F80
1C0F00
380700
380780
700780
7003C0
F003C0
F003C0
F003C0
F003C0
F003C0
F003C0
F80380
780780
780700
3C0F00
1E1E00
0FF800
03E000
ENDCHAR
STARTCHAR 1EE1
ENCODING 7905
SWIDTH 593 0
DWIDTH 19 0
BBX 18 22 1 0
BITMAP
0F0400
1F8C00
1FF800
31F000
20E080
0007C0
0003C0
07E3C0
187780
383E00
703C00
701C00
F01E00
F01E00
F01E00
F01E00
F01E00
F01C00
781C00
383800
1C3000
0FC000
ENDCHAR
STARTCHAR 1EE2
ENCODING 7906
SWIDTH 625 0
DWIDTH 20 0
BBX 19 31 1 -7
BITMAP
000040
0001E0
0003E0
0001E0
03F1C0
0C1F80
1C0F00
380700
380780
700780
7003C0
F003C0
F003C0
F003C0
F003C0
F003C0
F003C0
F80380
780780
780700
3C0F00
1E1E00
0FF800
03E000
000000
000000
00C000
01E000
01E000
01E000
01C000
ENDCHAR
STARTCHAR 1EE3
ENCODING 7907
SWIDTH 593 0
DWIDTH 19 0
BBX 18 25 1 -7
BITMAP
000080
0007C0
0003C0
07E3C0
187780
383E00
703C00
701C00
F01E00
F01E00
F01E00
F01E00
F01E00
F01C00
781C00
383800
1C3000
0FC000
000000
000000
01C000
03C000
03C000
03C000
038000
ENDCHAR
STARTCHAR 1EE4
ENCODING 7908
SWIDTH 656 0
DWIDTH 21 0
BBX 19 27 1 -7
BITMAP
FF07E0
7E03C0
3C0180
3C0180
3C0180
3C0180
3C0180
3C0180
3C0180
3C0180
3C0180
3C0180
3C0180
3C0180
3C0180
3C0300
1E0300
0F0600
07FC00
03F000
000000
000000
006000
00F000
00F000
00F000
00E000
ENDCHAR
STARTCHAR 1EE5
ENCODING 7909
SWIDTH 562 0
DWIDTH 18 0
BBX 17 22 0 -7
BITMAP
1C0E00
FC7E00
3C1E00
3C1E00
3C1E00
3C1E00
3C1E00
3C1E00
3C1E00
3C1E00
3C1E00
3C7E00
3FFF80
1FDF00
0F0C00
000000
000000
00E000
01E000
01E000
01E000
00C000
ENDCHAR
STARTCHAR 1EE6
ENCODING 7910
SWIDTH 656 0
DWIDTH 21 0
BBX 19 28 1 0
BITMAP
007000
01D800
019800
003000
00E000
006000
000000
000000
FF07E0
7E03C0
3C0180
3C0180
3C0180
3C0180
3C0180
3C0180
3C0180
3C0180
3C0180
3C0180
3C0180
3C0180
3C0180
3C0300
1E0300
0F0600
07FC00
03F000
ENDCHAR
STARTCHAR 1EE7
ENCODING 7911
SWIDTH 562 0
DWIDTH 18 0
BBX 17 23 0 0
BITMAP
00E000
01B000
033000
006000
00C000
00E000
000000
000000
1C0E00
FC7E00
3C1E00
3C1E00
3C1E00
3C1E00
3C1E00
3C1E00
3C1E00
3C1E00
3C1E00
3C7E00
3FFF80
1FDF00
0F0C00
ENDCHAR
STARTCHAR 1EE8
ENCODING 7912
SWIDTH 718 0
DWIDTH 23 0
BBX 22 28 1 0
BITMAP
000C00
001E00
003F00
007E00
00F808
01E03C
00807C
00003C
FF07F8
7E03F0
3C01C0
3C0180
3C0180
3C0180
3C0180
3C0180
3C0180
3C0180
3C0180
3C0180
3C0180
3C0180
3C0180
3C0300
1E0300
0F0600
07FC00
03F000
ENDCHAR
STARTCHAR 1EE9
ENCODING 7913
SWIDTH 687 0
DWIDTH 22 0
BBX 22 24 0 0
BITMAP
003800
007C00
007800
00F000
00E000
00C000
018008
01807C
0C003C
FC033C
7C3F78
3C1FE0
3C0FC0
3C0F00
3C0F00
3C0F00
3C0F00
3C0F00
3C0F00
3C0F00
3E3F00
3FFFC0
1FCF80
0F8600
ENDCHAR
STARTCHAR 1EEA
ENCODING 7914
SWIDTH 718 0
DWIDTH 23 0
BBX 22 28 1 0
BITMAP
010000
078000
07C000
03E000
00F008
00383C
00187C
00003C
FF07F8
7E03F0
3C01C0
3C0180
3C0180
3C0180
3C0180
3C0180
3C0180
3C0180
3C0180
3C0180
3C0180
3C0180
3C0180
3C0300
1E0300
0F0600
07FC00
03F000
ENDCHAR
STARTCHAR 1EEB
ENCODING 7915
SWIDTH 687 0
DWIDTH 22 0
BBX 22 24 0 0
BITMAP
070000
0F8000
078000
03C000
01C000
00E000
006008
00307C
0C003C
FC033C
7C3F78
3C1FE0
3C0FC0
3C0F00
3C0F00
3C0F00
3C0F00
3C0F00
3C0F00
3C0F00
3E3F00
3FFFC0
1FCF80
0F8600
ENDCHAR
STARTCHAR 1EEC
ENCODING 7916
SWIDTH 718 0
DWIDTH 23 0
BBX 22 28 1 0
BITMAP
007800
00D800
01D800
003000
006008
00303C
00007C
00003C
FF07F8
7E03F0
3C01C0
3C0180
3C0180
3C0180
3C0180
3C0180
3C0180
3C0180
3C0180
3C0180
3C0180
3C0180
3C0180
3C0300
1E0300
0F0600
07FC00
03F000
ENDCHAR
STARTCHAR 1EED
ENCODING 7917
SWIDTH 687 0
DWIDTH 22 0
BBX 22 23 0 0
BITMAP
00E000
01B000
033000
006000
00C000
00E008
00007C
0C003C
FC033C
7C3F78
3C1FE0
3C0FC0
3C0F00
3C0F00
3C0F00
3C0F00
3C0F00
3C0F00
3C0F00
3E3F00
3FFFC0
1FCF80
0F8600
ENDCHAR
STARTCHAR 1EEE
ENCODING 7918
SWIDTH 718 0
DWIDTH 23 0
BBX 22 26 1 0
BITMAP
01E100
03FF00
07FE08
043C3C
0C007C
00003C
FF07F8
7E03F0
3C01C0
3C0180
3C0180
3C0180
3C0180
3C0180
3C0180
3C0180
3C0180
3C0180
3C0180
3C0180
3C0180
3C0300
1E0300
0F0600
07FC00
03F000
ENDCHAR
STARTCHAR 1EEF
ENCODING 7919
SWIDTH 687 0
DWIDTH 22 0
BBX 22 22 0 0
BITMAP
038200
07C600
0FFC00
18F800
103008
00007C
0C003C
FC033C
7C3F78
3C1FE0
3C0FC0
3C0F00
3C0F00
3C0F00
3C0F00
3C0F00
3C0F00
3C0F00
3E3F00
3FFFC0
1FCF80
0F8600
ENDCHAR
STARTCHAR 1EF0
ENCODING 7920
SWIDTH 718 0
DWIDTH 23 0
BBX 22 31 1 -7
BITMAP
000008
00003C
00007C
00003C
FF07F8
7E03F0
3C01C0
3C0180
3C0180
3C0180
3C0180
3C0180
3C0180
3C0180
3C0180
3C0180
3C0180
3C0180
3C0180
3C0300
1E0300
0F0600
07FC00
03F000
000000
000000
007000
007000
00F000
00F000
006000
ENDCHAR
STARTCHAR 1EF1
ENCODING 7921
SWIDTH 687 0
DWIDTH 22 0
BBX 22 25 0 -7
BITMAP
000008
00007C
0C003C
FC033C
7C3F78
3C1FE0
3C0FC0
3C0F00
3C0F00
3C0F00
3C0F00
3C0F00
3C0F00
3C0F00
3E3F00
3FFFC0
1FCF80
0F8600
000000
000000
00E000
01E000
01E000
01E000
00C000
ENDCHAR
STARTCHAR 1EF2
ENCODING 7922
SWIDTH 625 0
DWIDTH 20 0
BBX 19 28 0 0
BITMAP
030000
078000
0F8000
07C000
01E000
007000
001800
000000
FC07E0
3C03C0
1E0380
0F0300
0F0700
078600
038E00
03CC00
01DC00
01F800
00F800
00F000
00F000
00F000
00F000
00F000
00F000
00F000
01F800
03FC00
ENDCHAR
STARTCHAR 1EF3
ENCODING 7923
SWIDTH 500 0
DWIDTH 16 0
BBX 17 32 -1 -8
BITMAP
038000
078000
03C000
03C000
01E000
00E000
007000
003000
000000
7F0F80
3E0700
1E0600
1E0600
0F0E00
0F0C00
078C00
079800
079800
03F800
03F000
01F000
01F000
01E000
00E000
00C000
00C000
01C000
018000
278000
7F0000
FE0000
780000
ENDCHAR
STARTCHAR 1EF4
ENCODING 7924
SWIDTH 625 0
DWIDTH 20 0
BBX 19 27 0 -7
BITMAP
FC07E0
3C03C0
1E0380
0F0300
0F0700
078600
038E00
03CC00
01DC00
01F800
00F800
00F000
00F000
00F000
00F000
00F000
00F000
00F000
01F800
03FC00
000000
000000
006000
00F000
00F000
00F000
00E000
ENDCHAR
STARTCHAR 1EF5
ENCODING 7925
SWIDTH 500 0
DWIDTH 16 0
BBX 17 23 -1 -8
BITMAP
7F0F80
3E0700
1E0600
1E0600
0F0E00
0F0C00
078C00
079800
079800
03F800
03F000
01F000
01F000
01E000
00E000
00C000
00C000
01C600
018F00
278F00
7F0E00
FE0E00
780000
ENDCHAR
STARTCHAR 1EF6
ENCODING 7926
SWIDTH 625 0
DWIDTH 20 0
BBX 19 28 0 0
BITMAP
007000
01D800
019800
003000
00E000
006000
000000
000000
FC07E0
3C03C0
1E0380
0F0300
0F0700
078600
038E00
03CC00
01DC00
01F800
00F800
00F000
00F000
00F000
00F000
00F000
00F000
00F000
01F800
03FC00
ENDCHAR
STARTCHAR 1EF7
ENCODING 7927
SWIDTH 500 0
DWIDTH 16 0
BBX 17 31 -1 -8
BITMAP
00F000
01B800
01B000
007000
00E000
006000
000000
000000
7F0F80
3E0700
1E0600
1E0600
0F0E00
0F0C00
078C00
079800
079800
03F800
03F000
01F000
01F000
01E000
00E000
00C000
00C000
01C000
018000
278000
7F0000
FE0000
780000
ENDCHAR
STARTCHAR 1EF8
ENCODING 7928
SWIDTH 625 0
DWIDTH 20 0
BBX 19 26 0 0
BITMAP
03C300
07FE00
07FE00
0C7800
080000
000000
FC07E0
3C03C0
1E0380
0F0300
0F0700
078600
038E00
03CC00
01DC00
01F800
00F800
00F000
00F000
00F000
00F000
00F000
00F000
00F000
01F800
03FC00
ENDCHAR
STARTCHAR 1EF9
ENCODING 7929
SWIDTH 500 0
DWIDTH 16 0
BBX 17 30 -1 -8
BITMAP
038300
07E600
0FFE00
087C00
183800
000000
000000
7F0F80
3E0700
1E0600
1E0600
0F0E00
0F0C00
078C00
079800
079800
03F800
03F000
01F000
01F000
01E000
00E000
00C000
00C000
01C000
018000
278000
7F0000
FE0000
780000
ENDCHAR
STARTCHAR 2011
ENCODING 8209
SWIDTH 343 0
DWIDTH 11 0
BBX 10 2 1 7
BITMAP
FFC0
FF80
ENDCHAR
STARTCHAR 2013
ENCODING 8211
SWIDTH 468 0
DWIDTH 15 0
BBX 14 2 1 7
BITMAP
FFFC
FFF8
ENDCHAR
STARTCHAR 2014
ENCODING 8212
SWIDTH 812 0
DWIDTH 26 0
BBX 24 2 1 7
BITMAP
FFFFFF
FFFFFE
ENDCHAR
STARTCHAR 2018
ENCODING 8216
SWIDTH 250 0
DWIDTH 8 0
BBX 5 9 1 14
BITMAP
10
30
60
60
E0
E0
F8
F8
70
ENDCHAR
STARTCHAR 2019
ENCODING 8217
SWIDTH 250 0
DWIDTH 8 0
BBX 5 9 2 13
BITMAP
70
F8
F8
38
38
30
30
60
40
ENDCHAR
STARTCHAR 201A
ENCODING 8218
SWIDTH 250 0
DWIDTH 8 0
BBX 5 9 2 -6
BITMAP
70
F8
F8
38
38
30
30
60
40
ENDCHAR
STARTCHAR 201C
ENCODING 8220
SWIDTH 500 0
DWIDTH 16 0
BBX 13 9 1 14
BITMAP
1010
3030
6060
6060
E0E0
E0E0
F8F8
F8F8
7070
ENDCHAR
STARTCHAR 201D
ENCODING 8221
SWIDTH 500 0
DWIDTH 16 0
BBX 13 9 2 13
BITMAP
7070
F8F8
F8F8
3838
3838
3030
3030
6060
4040
ENDCHAR
STARTCHAR 201E
ENCODING 8222
SWIDTH 500 0
DWIDTH 16 0
BBX 13 9 2 -6
BITMAP
7070
F8F8
F8F8
3838
3838
3030
3030
6060
4040
ENDCHAR
STARTCHAR 2020
ENCODING 8224
SWIDTH 500 0
DWIDTH 16 0
BBX 14 24 1 -1
BITMAP
0180
0780
0780
0700
0300
230C
7FFC
7FF8
F338
8310
0300
0780
0780
0780
0780
0300
0300
0300
0300
0300
0300
0300
0780
0600
ENDCHAR
STARTCHAR 2021
ENCODING 8225
SWIDTH 500 0
DWIDTH 16 0
BBX 14 24 1 -1
BITMAP
0180
0780
0780
0700
0300
230C
7FFC
7FF8
F378
8310
0700
0780
0780
0780
4304
7B3C
7FF8
FFF8
C310
0300
0380
0780
0780
0600
ENDCHAR
STARTCHAR 2022
ENCODING 8226
SWIDTH 281 0
DWIDTH 9 0
BBX 7 8 1 6
BITMAP
38
7C
FE
FE
FE
FC
7C
78
ENDCHAR
STARTCHAR 2026
ENCODING 8230
SWIDTH 812 0
DWIDTH 26 0
BBX 23 5 2 -1
BITMAP
70381C
F87C3E
F87C3E
F87C3E
70381C
ENDCHAR
STARTCHAR 2030
ENCODING 8240
SWIDTH 1062 0
DWIDTH 34 0
BBX 32 20 1 0
BITMAP
00006000
1E00C000
7381C000
61838000
E1C30000
E1C60000
E1CE0000
E1DC0000
61980000
73B00000
1E71E03C
00E770EE
01C630C6
018E39C7
038E39C7
070E39C7
0E0E39C7
0C0630C6
1C0730E6
3803C078
ENDCHAR
STARTCHAR 2039
ENCODING 8249
SWIDTH 312 0
DWIDTH 10 0
BBX 7 15 1 0
BITMAP
02
06
0C
1C
38
78
F0
F0
F0
78
38
1C
0C
06
02
ENDCHAR
STARTCHAR 203A
ENCODING 8250
SWIDTH 312 0
DWIDTH 10 0
BBX 7 15 2 0
BITMAP
80
C0
60
70
38
3C
1E
1E
1E
3C
38
70
60
C0
80
ENDCHAR
STARTCHAR 2044
ENCODING 8260
SWIDTH 625 0
DWIDTH 20 0
BBX 17 19 2 0
BITMAP
000380
000700
000600
000C00
001C00
003800
003000
006000
00C000
01C000
018000
030000
060000
0E0000
1C0000
180000
300000
700000
E00000
ENDCHAR
STARTCHAR 20AC
ENCODING 8364
SWIDTH 500 0
DWIDTH 16 0
BBX 15 18 0 0
BITMAP
01FE
071E
0E0E
1E04
1C00
3C00
7FF0
3C00
3C00
3C00
FFE0
3C00
3C00
1E00
1E02
0F06
07FC
01F0
ENDCHAR
STARTCHAR 2122
ENCODING 8482
SWIDTH 625 0
DWIDTH 20 0
BBX 19 7 0 13
BITMAP
FFC0E0
99E1C0
18F1C0
18D2C0
18DAC0
18CCC0
3DEDE0
ENDCHAR
STARTCHAR 2126
ENCODING 8486
SWIDTH 687 0
DWIDTH 22 0
BBX 20 20 1 0
BITMAP
01FC00
070F00
0E0780
1C03C0
3C01C0
3801E0
7801E0
7801E0
7801E0
7801E0
7801C0
3C03C0
3C0380
1E0780
4E0720
470E30
639C60
7F9FE0
FF9FE0
7F9FE0
ENDCHAR
STARTCHAR 2202
ENCODING 8706
SWIDTH 500 0
DWIDTH 16 0
BBX 14 22 1 0
BITMAP
1F80
3FE0
61F0
C0F0
0078
0078
003C
0F3C
1FFC
38FC
787C
703C
F03C
F03C
F03C
F038
F038
F038
7870
7870
3C60
0F80
ENDCHAR
STARTCHAR 2205
ENCODING 8709
SWIDTH 656 0
DWIDTH 21 0
BBX 21 23 0 -2
BITMAP
000038
00FC70
03FFE0
0F07E0
1C03C0
1807E0
380FE0
301E70
701C70
603C30
607830
607030
60E030
61E030
71C060
338060
3F00C0
3F01C0
1F0780
3FFE00
31F800
600000
C00000
ENDCHAR
STARTCHAR 2206
ENCODING 8710
SWIDTH 625 0
DWIDTH 20 0
BBX 18 20 1 0
BITMAP
004000
01C000
03E000
03E000
07F000
06F000
0EF000
0E7800
0C7800
1C3C00
183C00
183C00
381E00
301E00
700F00
700F00
600F00
E00780
FFFF80
FFFFC0
ENDCHAR
STARTCHAR 220F
ENCODING 8719
SWIDTH 656 0
DWIDTH 21 0
BBX 19 20 1 0
BITMAP
FFFFE0
7C07C0
3C0780
3C0780
3C0780
3C0780
3C0780
3C0780
3C0780
3C0780
3C0780
3C0780
3C0780
3C0780
3C0780
3C0780
3C0780
3C0780
7E0FC0
FF1FE0
ENDCHAR
STARTCHAR 2211
ENCODING 8721
SWIDTH 562 0
DWIDTH 18 0
BBX 15 20 1 0
BITMAP
FFFE
FFFE
780E
3C06
3E06
1E00
0F00
0F00
0780
03C0
0380
0700
0600
0E00
1C02
3802
3806
7FFE
FFFE
FFFE
ENDCHAR
STARTCHAR 2212
ENCODING 8722
SWIDTH 406 0
DWIDTH 13 0
BBX 12 2 1 8
BITMAP
FFF0
FFE0
ENDCHAR
STARTCHAR 2219
ENCODING 8729
SWIDTH 218 0
DWIDTH 7 0
BBX 5 5 1 8
BITMAP
70
F8
F8
F8
70
ENDCHAR
STARTCHAR 221A
ENCODING 8730
SWIDTH 625 0
DWIDTH 20 0
BBX 20 23 0 0
BITMAP
0001F0
0001F0
0001F0
000180
000380
000300
000300
000700
780600
FC0600
1C0600
1E0E00
0E0C00
0F0C00
070C00
079C00
039800
03D800
03F800
01F000
01F000
00F000
00C000
ENDCHAR
STARTCHAR 221E
ENCODING 8734
SWIDTH 687 0
DWIDTH 22 0
BBX 20 10 1 4
BITMAP
0F03C0
3F8FE0
7FDFF0
67FC70
C1F830
C1F830
E3FE60
FFFFE0
7F3FC0
3C0F00
ENDCHAR
STARTCHAR 222B
ENCODING 8747
SWIDTH 312 0
DWIDTH 10 0
BBX 17 32 -4 -8
BITMAP
001F00
007F80
00E700
01C200
01C000
03C000
03C000
03C000
03C000
03C000
03C000
03C000
03C000
03C000
03C000
03E000
01E000
01E000
01E000
01E000
01E000
01E000
01E000
01E000
01E000
01E000
01C000
01C000
638000
FF0000
FE0000
780000
ENDCHAR
STARTCHAR 2248
ENCODING 8776
SWIDTH 468 0
DWIDTH 15 0
BBX 13 9 1 4
BITMAP
3E10
7FF8
C3E0
8000
0000
3C10
7E38
C7F0
81E0
ENDCHAR
STARTCHAR 2260
ENCODING 8800
SWIDTH 468 0
DWIDTH 15 0
BBX 13 14 1 2
BITMAP
0030
00E0
00E0
01C0
FFF8
FFF0
0700
0700
0E00
FFF8
FFF0
3800
7000
6000
ENDCHAR
STARTCHAR 2264
ENCODING 8804
SWIDTH 468 0
DWIDTH 15 0
BBX 13 13 1 3
BITMAP
0018
00F0
07F0
1F80
FE00
F000
FE00
3FC0
07F0
00F8
0020
FFF8
FFF0
ENDCHAR
STARTCHAR 2265
ENCODING 8805
SWIDTH 468 0
DWIDTH 15 0
BBX 13 13 1 3
BITMAP
6000
FC00
7F00
0FE0
01F8
00F0
07F0
3F80
FC00
E000
8000
FFF8
FFF0
ENDCHAR
STARTCHAR 25CA
ENCODING 9674
SWIDTH 375 0
DWIDTH 12 0
BBX 12 20 0 0
BITMAP
0200
0E00
0F00
1F00
1F80
3380
33C0
71C0
61E0
E0E0
F0F0
70E0
78C0
38C0
3D80
1D80
1F00
0F00
0E00
0400
ENDCHAR
STARTCHAR 25CC
ENCODING 9676
SWIDTH 531 0
DWIDTH 17 0
BBX 15 14 1 0
BITMAP
0F60
3018
0000
8004
C006
0000
C004
0000
0000
C006
0000
3018
0C60
0300
ENDCHAR
STARTCHAR 2C60
ENCODING 11360
SWIDTH 500 0
DWIDTH 16 0
BBX 15 20 1 0
BITMAP
FF00
7E00
3C00
3C00
3C00
3C00
3C00
3C00
FFE0
3C00
3C00
3C00
FFE0
3C00
3C00
3C00
3C02
3C06
7C0E
FFFE
ENDCHAR
STARTCHAR 2C61
ENCODING 11361
SWIDTH 343 0
DWIDTH 11 0
BBX 10 24 0 0
BITMAP
0600
7E00
7E00
1E00
1E00
1E00
1E00
1E00
1E00
1E00
FFC0
1E00
1E00
1E00
FFC0
1E00
1E00
1E00
1E00
1E00
1E00
1E00
3F00
7F80
ENDCHAR
STARTCHAR 2C62
ENCODING 11362
SWIDTH 500 0
DWIDTH 16 0
BBX 17 20 -1 0
BITMAP
3FC000
1F8000
0F0000
0F0000
0F0000
0F0000
0F0000
0F0000
3F1000
7F3000
CFE000
8FC000
0F0000
0F0000
0F0000
0F0000
0F0080
0F0180
1F0380
3FFF80
ENDCHAR
STARTCHAR A789
ENCODING 42889
SWIDTH 250 0
DWIDTH 8 0
BBX 5 12 1 1
BITMAP
70
F8
F8
F8
70
00
00
70
F8
F8
F8
70
ENDCHAR
STARTCHAR A78A
ENCODING 42890
SWIDTH 343 0
DWIDTH 11 0
BBX 9 6 1 4
BITMAP
FF80
FF80
0000
0000
FF80
FF80
ENDCHAR
STARTCHAR A78B
ENCODING 42891
SWIDTH 281 0
DWIDTH 9 0
BBX 5 14 2 11
BITMAP
38
F8
F8
F0
F0
F0
70
70
70
70
70
70
70
60
ENDCHAR
STARTCHAR A78C
ENCODING 42892
SWIDTH 281 0
DWIDTH 9 0
BBX 5 13 2 10
BITMAP
38
F8
F8
F0
70
70
70
70
70
70
70
70
70
ENDCHAR
STARTCHAR F130
ENCODING 61744
SWIDTH 156 0
DWIDTH 5 0
BBX 4 5 1 -5
BITMAP
F0
10
10
10
10
ENDCHAR
STARTCHAR F131
ENCODING 61745
SWIDTH 156 0
DWIDTH 5 0
BBX 5 5 0 -5
BITMAP
F8
80
80
80
80
ENDCHAR
STARTCHAR F195
ENCODING 61845
SWIDTH 218 0
DWIDTH 7 0
BBX 7 8 0 16
BITMAP
70
F8
78
3C
1C
0C
06
06
ENDCHAR
STARTCHAR F197
ENCODING 61847
SWIDTH 218 0
DWIDTH 7 0
BBX 7 8 0 16
BITMAP
1C
1E
3C
3C
78
70
E0
C0
ENDCHAR
STARTCHAR F1C8
ENCODING 61896
SWIDTH 312 0
DWIDTH 10 0
BBX 8 11 1 13
BITMAP
3E
67
C3
C3
03
06
0C
18
18
18
18
ENDCHAR
STARTCHAR F1E9
ENCODING 61929
SWIDTH 250 0
DWIDTH 8 0
BBX 5 12 1 1
BITMAP
70
F8
F8
F8
70
00
00
70
F8
F8
F8
70
ENDCHAR
STARTCHAR F1EA
ENCODING 61930
SWIDTH 343 0
DWIDTH 11 0
BBX 9 6 1 4
BITMAP
FF80
FF80
0000
0000
FF80
FF80
ENDCHAR
STARTCHAR F20E
ENCODING 61966
SWIDTH 343 0
DWIDTH 11 0
BBX 10 24 0 0
BITMAP
0600
7E00
7E00
1E00
1E00
1E00
1E00
1E00
1E00
1E00
FFC0
1E00
1E00
1E00
FFC0
1E00
1E00
1E00
1E00
1E00
1E00
1E00
3F00
7F80
ENDCHAR
STARTCHAR F20F
ENCODING 61967
SWIDTH 500 0
DWIDTH 16 0
BBX 15 20 1 0
BITMAP
FF00
7E00
3C00
3C00
3C00
3C00
3C00
3C00
FFE0
3C00
3C00
3C00
FFE0
3C00
3C00
3C00
3C02
3C06
7C0E
FFFE
ENDCHAR
STARTCHAR F211
ENCODING 61969
SWIDTH 562 0
DWIDTH 18 0
BBX 22 23 1 -8
BITMAP
03C200
0C3600
381E00
701E00
701E00
F01E00
F01E00
F01E00
F01E00
F81E00
F81E00
7C7E00
7FFE00
3FDE00
0F1E00
001E00
001E00
001E00
001E00
001E3C
001E3C
000F38
0007F0
ENDCHAR
STARTCHAR F212
ENCODING 61970
SWIDTH 656 0
DWIDTH 21 0
BBX 24 28 1 -8
BITMAP
01F080
07FDC0
0E1F80
1C0780
380780
780780
700780
F00780
F00780
F00780
F00780
F00780
F00780
F80780
780780
7C0F80
7E3F80
3FFF80
1FE780
078780
000780
000780
000780
000780
00078F
00078F
00038E
0001F8
ENDCHAR
STARTCHAR F218
ENCODING 61976
SWIDTH 687 0
DWIDTH 22 0
BBX 20 20 1 0
BITMAP
FF03F0
7E01E0
3C00C0
3C00C0
3C00C0
3C00C0
3C00C0
3C00C0
3C00C0
FFFFF0
3C00C0
3C00C0
3C00C0
3C00C0
3C00C0
3E0180
1E0180
0F0300
07FE00
01F800
ENDCHAR
STARTCHAR F219
ENCODING 61977
SWIDTH 656 0
DWIDTH 21 0
BBX 21 20 0 0
BITMAP
003000
007000
00F800
00F800
01F800
01BC00
01BC00
039E00
031E00
031E00
070F00
060F00
060780
0E0780
0C0780
1C03C0
1803C0
1801E0
3803E0
FE07F8
ENDCHAR
STARTCHAR F21D
ENCODING 61981
SWIDTH 281 0
DWIDTH 9 0
BBX 5 13 2 10
BITMAP
38
F8
F8
F0
70
70
70
70
70
70
70
70
70
ENDCHAR
STARTCHAR F21E
ENCODING 61982
SWIDTH 437 0
DWIDTH 14 0
BBX 12 15 1 0
BITMAP
3FC0
71E0
F0F0
F0F0
C0F0
01F0
03E0
0780
0700
0F00
0F00
0F00
0F00
1F80
7FE0
ENDCHAR
STARTCHAR F21F
ENCODING 61983
SWIDTH 500 0
DWIDTH 16 0
BBX 15 20 1 0
BITMAP
FF00
7E00
3C00
3C00
3C00
3C00
3C00
3C00
3C00
3C00
FFE0
3C00
3C00
3C00
3C00
3C00
3C02
3C06
7C0E
FFFE
ENDCHAR
STARTCHAR F242
ENCODING 62018
SWIDTH 500 0
DWIDTH 16 0
BBX 17 20 -1 0
BITMAP
3FC000
1F8000
0F0000
0F0000
0F0000
0F0000
0F0000
0F0000
3F1000
7F3000
CFE000
8FC000
0F0000
0F0000
0F0000
0F0000
0F0080
0F0180
1F0380
3FFF80
ENDCHAR
STARTCHAR F26A
ENCODING 62058
SWIDTH 281 0
DWIDTH 9 0
BBX 5 14 2 11
BITMAP
38
F8
F8
F0
F0
F0
70
70
70
70
70
70
70
60
ENDCHAR
STARTCHAR FB01
ENCODING 64257
SWIDTH 656 0
DWIDTH 21 0
BBX 19 24 1 0
BITMAP
01F000
07F800
0E7000
1C2380
1C07C0
3C07C0
3C0380
3C0000
3C0000
7FC380
FFDF80
3C8780
3C0780
3C0780
3C0780
3C0780
3C0780
3C0780
3C0780
3C0780
3C0780
3C0780
7E0FC0
FF9FE0
ENDCHAR
STARTCHAR FB02
ENCODING 64258
SWIDTH 625 0
DWIDTH 20 0
BBX 18 24 1 0
BITMAP
01E300
07FF00
0E6F00
1C4F00
1C0F00
3C0F00
3C0F00
3C0F00
3C0F00
FFCF00
3C8F00
3C0F00
3C0F00
3C0F00
3C0F00
3C0F00
3C0F00
3C0F00
3C0F00
3C0F00
3C0F00
3C0F00
7F1F80
FFBFC0
ENDCHAR
ENDFONT
